<mxfile host="app.diagrams.net" agent="Mozilla/5.0 (Windows NT 10.0; Win64; x64) AppleWebKit/537.36 (KHTML, like Gecko) Chrome/138.0.0.0 Safari/537.36" version="28.0.6" pages="3">
  <diagram name="Page-1" id="eCyb02joGWAP32DcqrBH">
    <mxGraphModel dx="1426" dy="863" grid="1" gridSize="10" guides="1" tooltips="1" connect="1" arrows="1" fold="1" page="1" pageScale="1" pageWidth="827" pageHeight="1169" math="0" shadow="0">
      <root>
        <mxCell id="0" />
        <mxCell id="1" parent="0" />
        <mxCell id="sZsfLgfr7TtL8EStAJE5-69" value="UI" style="rounded=1;whiteSpace=wrap;html=1;strokeColor=none;fillColor=#FFCC99;arcSize=5;align=left;verticalAlign=top;spacingLeft=4;" vertex="1" parent="1">
          <mxGeometry x="160" y="160" width="240" height="220" as="geometry" />
        </mxCell>
        <mxCell id="sZsfLgfr7TtL8EStAJE5-67" value="" style="rounded=1;whiteSpace=wrap;html=1;fillColor=#E6FFCC;strokeColor=none;arcSize=8;" vertex="1" parent="1">
          <mxGeometry x="871" y="160" width="229" height="300" as="geometry" />
        </mxCell>
        <mxCell id="sZsfLgfr7TtL8EStAJE5-65" value="" style="rounded=1;whiteSpace=wrap;html=1;fillColor=#CCFFFF;strokeColor=none;arcSize=2;" vertex="1" parent="1">
          <mxGeometry x="490" y="160" width="370" height="300" as="geometry" />
        </mxCell>
        <mxCell id="sZsfLgfr7TtL8EStAJE5-54" style="edgeStyle=orthogonalEdgeStyle;rounded=0;orthogonalLoop=1;jettySize=auto;html=1;fontFamily=Poppins;fontSource=https%3A%2F%2Ffonts.googleapis.com%2Fcss%3Ffamily%3DPoppins;fontSize=12;fontColor=default;" edge="1" parent="1" source="sZsfLgfr7TtL8EStAJE5-3" target="sZsfLgfr7TtL8EStAJE5-42">
          <mxGeometry relative="1" as="geometry" />
        </mxCell>
        <mxCell id="sZsfLgfr7TtL8EStAJE5-3" value="Retail&lt;br&gt;Portal" style="verticalLabelPosition=bottom;sketch=0;html=1;fillColor=#2072B8;strokeColor=none;verticalAlign=top;pointerEvents=1;align=center;shape=mxgraph.cisco_safe.security_icons.icon4;fontFamily=Poppins;fontSource=https%3A%2F%2Ffonts.googleapis.com%2Fcss%3Ffamily%3DPoppins;" vertex="1" parent="1">
          <mxGeometry x="310" y="181.5" width="50" height="42" as="geometry" />
        </mxCell>
        <mxCell id="sZsfLgfr7TtL8EStAJE5-6" value="New Policy" style="edgeStyle=orthogonalEdgeStyle;rounded=0;orthogonalLoop=1;jettySize=auto;html=1;fontFamily=Poppins;fontSource=https%3A%2F%2Ffonts.googleapis.com%2Fcss%3Ffamily%3DPoppins;verticalAlign=middle;labelBackgroundColor=none;" edge="1" parent="1" source="sZsfLgfr7TtL8EStAJE5-5" target="sZsfLgfr7TtL8EStAJE5-3">
          <mxGeometry x="0.0566" y="-7" relative="1" as="geometry">
            <mxPoint y="1" as="offset" />
          </mxGeometry>
        </mxCell>
        <mxCell id="sZsfLgfr7TtL8EStAJE5-5" value="Agent" style="sketch=0;pointerEvents=1;shadow=0;dashed=0;html=1;strokeColor=none;fillColor=#2072B8;labelPosition=center;verticalLabelPosition=bottom;verticalAlign=top;outlineConnect=0;align=center;shape=mxgraph.office.users.call_center_agent;fontFamily=Poppins;fontSource=https%3A%2F%2Ffonts.googleapis.com%2Fcss%3Ffamily%3DPoppins;" vertex="1" parent="1">
          <mxGeometry x="178" y="175" width="46" height="55" as="geometry" />
        </mxCell>
        <mxCell id="sZsfLgfr7TtL8EStAJE5-58" style="edgeStyle=orthogonalEdgeStyle;rounded=0;orthogonalLoop=1;jettySize=auto;html=1;entryX=0;entryY=0.5;entryDx=0;entryDy=0;fontFamily=Poppins;fontSource=https%3A%2F%2Ffonts.googleapis.com%2Fcss%3Ffamily%3DPoppins;fontSize=12;fontColor=default;" edge="1" parent="1" source="sZsfLgfr7TtL8EStAJE5-7" target="sZsfLgfr7TtL8EStAJE5-52">
          <mxGeometry relative="1" as="geometry" />
        </mxCell>
        <mxCell id="sZsfLgfr7TtL8EStAJE5-7" value="Retail&lt;br&gt;Portal" style="verticalLabelPosition=bottom;sketch=0;html=1;fillColor=#2072B8;strokeColor=none;verticalAlign=top;pointerEvents=1;align=center;shape=mxgraph.cisco_safe.security_icons.icon4;fontFamily=Poppins;fontSource=https%3A%2F%2Ffonts.googleapis.com%2Fcss%3Ffamily%3DPoppins;" vertex="1" parent="1">
          <mxGeometry x="310" y="296.5" width="50" height="42" as="geometry" />
        </mxCell>
        <mxCell id="sZsfLgfr7TtL8EStAJE5-8" value="&lt;font face=&quot;Poppins&quot; data-font-src=&quot;https://fonts.googleapis.com/css?family=Poppins&quot;&gt;Policy&lt;br&gt;Amenment&lt;/font&gt;" style="edgeStyle=orthogonalEdgeStyle;rounded=0;orthogonalLoop=1;jettySize=auto;html=1;verticalAlign=middle;spacing=0;spacingLeft=-6;spacingTop=-9;labelBackgroundColor=none;" edge="1" parent="1" source="sZsfLgfr7TtL8EStAJE5-9" target="sZsfLgfr7TtL8EStAJE5-7">
          <mxGeometry x="0.0566" y="-22" relative="1" as="geometry">
            <mxPoint y="1" as="offset" />
          </mxGeometry>
        </mxCell>
        <mxCell id="sZsfLgfr7TtL8EStAJE5-9" value="Agent" style="sketch=0;pointerEvents=1;shadow=0;dashed=0;html=1;strokeColor=none;fillColor=#2072B8;labelPosition=center;verticalLabelPosition=bottom;verticalAlign=top;outlineConnect=0;align=center;shape=mxgraph.office.users.call_center_agent;fontFamily=Poppins;fontSource=https%3A%2F%2Ffonts.googleapis.com%2Fcss%3Ffamily%3DPoppins;" vertex="1" parent="1">
          <mxGeometry x="178" y="290" width="46" height="55" as="geometry" />
        </mxCell>
        <mxCell id="sZsfLgfr7TtL8EStAJE5-62" style="edgeStyle=orthogonalEdgeStyle;rounded=0;orthogonalLoop=1;jettySize=auto;html=1;fontFamily=Poppins;fontSource=https%3A%2F%2Ffonts.googleapis.com%2Fcss%3Ffamily%3DPoppins;fontSize=12;fontColor=default;" edge="1" parent="1" source="sZsfLgfr7TtL8EStAJE5-11" target="sZsfLgfr7TtL8EStAJE5-60">
          <mxGeometry relative="1" as="geometry" />
        </mxCell>
        <mxCell id="sZsfLgfr7TtL8EStAJE5-11" value="Policy&lt;br&gt;Renewal" style="sketch=0;html=1;aspect=fixed;strokeColor=none;shadow=0;fillColor=#3B8DF1;verticalAlign=top;labelPosition=center;verticalLabelPosition=bottom;shape=mxgraph.gcp2.process;fontSize=12;fontFamily=Poppins;fontSource=https%3A%2F%2Ffonts.googleapis.com%2Fcss%3Ffamily%3DPoppins;fontColor=#330000;fontStyle=0" vertex="1" parent="1">
          <mxGeometry x="180" y="407.5" width="42" height="50" as="geometry" />
        </mxCell>
        <mxCell id="sZsfLgfr7TtL8EStAJE5-21" style="edgeStyle=orthogonalEdgeStyle;rounded=0;orthogonalLoop=1;jettySize=auto;html=1;fontFamily=Poppins;fontSource=https%3A%2F%2Ffonts.googleapis.com%2Fcss%3Ffamily%3DPoppins;fontSize=12;fontColor=default;" edge="1" parent="1" source="sZsfLgfr7TtL8EStAJE5-14" target="sZsfLgfr7TtL8EStAJE5-19">
          <mxGeometry relative="1" as="geometry" />
        </mxCell>
        <mxCell id="sZsfLgfr7TtL8EStAJE5-14" value="BO Activity&lt;br&gt;Manager" style="sketch=0;html=1;aspect=fixed;strokeColor=none;shadow=0;fillColor=#3B8DF1;verticalAlign=top;labelPosition=center;verticalLabelPosition=bottom;shape=mxgraph.gcp2.process;fontSize=12;fontFamily=Poppins;fontSource=https%3A%2F%2Ffonts.googleapis.com%2Fcss%3Ffamily%3DPoppins;fontColor=#330000;fontStyle=0" vertex="1" parent="1">
          <mxGeometry x="524" y="235" width="42" height="50" as="geometry" />
        </mxCell>
        <mxCell id="sZsfLgfr7TtL8EStAJE5-19" value="TMO1_EVENTMESSAGE" style="shape=image;html=1;verticalAlign=top;verticalLabelPosition=bottom;labelBackgroundColor=none;imageAspect=0;aspect=fixed;image=https://cdn2.iconfinder.com/data/icons/font-awesome/1792/table-128.png;fontSize=11;fontFamily=Poppins;fontSource=https%3A%2F%2Ffonts.googleapis.com%2Fcss%3Ffamily%3DPoppins;spacingTop=-5;" vertex="1" parent="1">
          <mxGeometry x="646" y="235" width="50" height="50" as="geometry" />
        </mxCell>
        <mxCell id="sZsfLgfr7TtL8EStAJE5-23" style="edgeStyle=orthogonalEdgeStyle;rounded=0;orthogonalLoop=1;jettySize=auto;html=1;fontFamily=Poppins;fontSource=https%3A%2F%2Ffonts.googleapis.com%2Fcss%3Ffamily%3DPoppins;fontSize=12;fontColor=default;" edge="1" parent="1" source="sZsfLgfr7TtL8EStAJE5-22" target="sZsfLgfr7TtL8EStAJE5-19">
          <mxGeometry relative="1" as="geometry" />
        </mxCell>
        <mxCell id="sZsfLgfr7TtL8EStAJE5-25" style="edgeStyle=orthogonalEdgeStyle;rounded=0;orthogonalLoop=1;jettySize=auto;html=1;fontFamily=Poppins;fontSource=https%3A%2F%2Ffonts.googleapis.com%2Fcss%3Ffamily%3DPoppins;fontSize=12;fontColor=default;" edge="1" parent="1" source="sZsfLgfr7TtL8EStAJE5-22" target="sZsfLgfr7TtL8EStAJE5-24">
          <mxGeometry relative="1" as="geometry" />
        </mxCell>
        <mxCell id="sZsfLgfr7TtL8EStAJE5-22" value="Event&lt;br&gt;CISL&lt;br&gt;Adapter&lt;div&gt;&lt;br/&gt;&lt;/div&gt;" style="sketch=0;pointerEvents=1;shadow=0;dashed=0;html=1;strokeColor=none;fillColor=#DF8C42;labelPosition=center;verticalLabelPosition=bottom;verticalAlign=top;align=center;outlineConnect=0;shape=mxgraph.veeam2.application;fontFamily=Poppins;fontSource=https%3A%2F%2Ffonts.googleapis.com%2Fcss%3Ffamily%3DPoppins;fontSize=12;fontColor=default;" vertex="1" parent="1">
          <mxGeometry x="774" y="239" width="40" height="42" as="geometry" />
        </mxCell>
        <mxCell id="sZsfLgfr7TtL8EStAJE5-33" style="edgeStyle=orthogonalEdgeStyle;rounded=0;orthogonalLoop=1;jettySize=auto;html=1;fontFamily=Poppins;fontSource=https%3A%2F%2Ffonts.googleapis.com%2Fcss%3Ffamily%3DPoppins;fontSize=12;fontColor=default;" edge="1" parent="1" source="sZsfLgfr7TtL8EStAJE5-24" target="sZsfLgfr7TtL8EStAJE5-26">
          <mxGeometry relative="1" as="geometry" />
        </mxCell>
        <mxCell id="sZsfLgfr7TtL8EStAJE5-24" value="ContractUpdated" style="shape=image;verticalLabelPosition=bottom;labelBackgroundColor=none;verticalAlign=top;aspect=fixed;imageAspect=0;image=data:image/png,iVBORw0KGgoAAAANSUhEUgAAAQAAAAEACAYAAABccqhmAAAACXBIWXMAAAsSAAALEgHS3X78AAAZUklEQVR42u2debSWxZHGS4JoxBU1QHCLCgbEgPuuI7gAgwoG4aDijg4RcHfihuMSg7iMK2rQEBR3jfsWDMR1BMVdA0YRXFBBNhGRRZx+7L4zNzcX7uV+1W93v/38zqm/OOfS3V9Vvd3V1VUiRJu1jexj5FQjI4w8Y2SSkS+NzDPyjZE5Rj4x8rqRB41cZeQYI+2NrMolJCQdVjHySyPnGHnRyEIjP1QgM4zca6SfkfW4vITESVMj/Y2MN/J9hUa/PMFu4Q4jezhHQwiJYIuPr/0Xnoy+Nllm5CUj3Yw04k9ASPE0dl/8zws0/NocwTgj2/LnIKQ4tjbyQkDDrymLjVxuZA3+NIT4A+fu37iz+A8RyptGtuHPRIg++LreFqnhV5f5Rvrw5yJEjw0j2/LXJUuNnC28KSCkYloaeSsh468eILyMToCQyr78KRp/dbmUToCQhp35X0rc+Kt2Aifz5ySk/iC55o4SGH+VLDHSlT8rIfVjcImMv0q+MrIZf1pCVkwHI9+W0AFAkDXYmD8xIbWDp7cTSmr8VTKQPzMhtTOw5MYPmSv2apMQUo1mRmZ6Nj687b/PyJlGeop91ruzkU5i3/sPNfK8kUWexzGCPzch/8zFnowNtQGeMtLdyGr1HEsLI6cZ+cjTmOBgtuJPTohlXSOzPRjaa0b2rGBcqztH8DV3AYT442QPX/3LV+KLXxetjbyqPMYFRn7Gn57kDpJ+3hbdt/nHehjnmkYeVXYCp/PnJ7mzvfKX/xiPY13dxRM0jyh8J0Cy5vei+/CmiHjFJEWHxWAgyRZ8/d5UMiZUA25S0Lh3dkcNjXHzoRDJFly3LRGdAhw7FTz24UoO4BGqAcmVg5WM6MEAY28lOm8WUM6c7wNIllyg5AD2CTT+20WnXsAmVAWSI/cqGNDHAb+gXZUcWBeqAsmRVxSM548Bx4/cAI0S5QOoCiRHPlUwnhMDz0Hj+fLFVAWSG0jTnadgPJ0Cz2O0whyGUx1IbqCbr0YUvX3geVytMIeRVAeSG2uJzrv70Jl0wxTmcBvVgeTGGko7gI6B53GdpB3IJCQIqP+nUQOgW+B53K8wh2upDiRHpioYzxkBx4+3DO8pzGEIVYHkiEbDzwcDjr+56DwKOoaqQHLkT6JTZbdpoPEfJTqZgHtSFUiOnKFkQEcEGv9Y0WkbxtJgJEv2UXIAqNf3k4LHvoPYgh6Vjv1DYVUgkilri14bsL4FjhsG+xelcY+iGpCcGadkSNML3Eprnf0h/agCJGdOUzSmJ8TmF/gEqcfzlMb7ndibBEKyZTPRKQtWJTd7jAdsamSK4lif5s9PiMgY0a23j8c1qymPsZ2y8RcdtyAkWg4R/dZbLxrZQmFsCPgdZmSO8vg+N/LTxH6nRi7OghuQHmIbsKCj8ylGTjJytNgejHifsb7wdoPUE5zbJ3twAvONnC/2tqEhbGPkMbF1+7THdn4CvwvKrO/mxvqk2EBrfa8+caybKjZTE3GeDlL8VS1JiGM8GFmVoO34Ve7LVVf9wHWM9HKGv9TTeGaJbYce61d+TxdL+VJxzsvcEepy51gJ+ZddwNsenUD1Mtz4ml3nvmy/FVuSC09yUd7r2wLG8J8Rrj+OI8cX9BtgF/GckZ7cFZDq7Cc62XUxy+TIzv7YER1n5KNA6/GGixswXkB+5LYSG//3zsnFwi5GJkawLsvcrmxLqj9B9HhaSR3ADZGsMbocXya6+RdaQduBLg5BMmZv0akXGJO8LrYMWmg2E51S5j4FNwfr0QzyZrD4uX4LITMi2d4iuv9lImv2Ho8EeYOg0DUlMP4FRvaKYD2RuPNtYmuHG5vtaQr5giuiUQkbPx77HBTBOvZK+EiFnIkdaQr5gmuqWxP98sdg/F2cI0r9CNWOppAviApfmlBMYKYLZIYG6bdzSxJHQeUkPp3OHBTP+CZyRUViS+sI1grXqf+Qct2k/FX813sgkYOCHK9LnEk+N4ltGR5DAPV+KWcuxYU0AYK3/v8l8US1sT3tGtH6HCXlzaZEH4ZdaAIEtDFyn4R7P4Dz9XkSri9BbTR3MYgyv6fAMasJ1Z9UsYNzBIuluCDfJUY2jHAtbi5oDRCL+buRZ8VWSH7eyAdS3I3DIKo9qckv3BnRR/BriVP2YyM559dGO89OENl56GO4k9T+ohGxBxRfQb8HvPv/1ONYkNG4DlWe1AYSiLYT+97/+QqUbLoLpp1oZOME5n2nJ2Ob4GIcK/t2H7GaI93OwMe4zqaqk7poXYGCbZ3Y7kc72w/b/JOk8qIdeAQ1VPRfH34m6dVVJAk5gJSyzy5VNi4UCOmgPMZuol9c9TCqOMndAayqfN6e7PHIg7z+WaKbHERI1g6gk3JwbQvP4/030bstQNCzFdWc5OwAtJ5Nowpyl4LGfKqi0+pPNSe5OgBcvU1SMqQRBY4bgcUXlMZ9P9Wc5OoAWopO/4KvjbQoeOxoOqKRxTldWF6cZOoADlT6il4baPcyVmHseCa+OVWd5OgAzlUyoA6Bxn+YkgM7mKpOcnQAIxWM530J15gD1X8XKszhdKo6ydEBaGyhbw08h/EKc7ieqk5ydADvKBjP4MBzGKEwh3uo6iQ3B4Btu0YXpZ6B53GewhyepKqT3BwAiqVOVzCeToHnMViYEkzoAII5gH0Dz+MUhTmMoaqTHGMAGm29eweew0UKc3iMqk5ydABvKBjPbwPPYbTCHO6gqpMcHcATCsZzb+A5vKcwh6uo6qQ22legVGjqGXuO+Y0KxoMmnKEabmwiOm8ZTqKqE7ChO9MiMWSiVNZJaJkzDlwxIeV2d7F17mJCI4IO6Rxo/KcojX9fqn6+tHKG8Jz474I7051ZD4rEGewl6T6pRePXd0WnjkELmkFeYGv+70YekXCtrz8XW/56y4DrgDLcGh2SULCz6AdBfZR+B5SBX4UmkQfoCHOM0pdDs10VvqDbBVoTrcIaSKZpVNCY1xKdK0zILTSL8tPIne3fj8jwa9uKwhFsVeC6bGDkRcU5nFLAmFdxRqs15l40j3LTwZ3vU+ldh4KXw9xXzif7G/lEeew4Tu3nedwDxQZYNcY73x2DSAlZXWyW2KKEjL+6TBE/0Wk02vhv0bk+q03miW3v5YNjRbdByF00k3KCbfSriRp+zWMBjFXrxqCjkbcKGDcCi0cpBtcQ8UffRu1Ozp1pKuWjt/sKlaml9f+ITXqpxIDOFJ3qOSuTB4EU25YV/p5tjYzzML43hcVASxfou8jDVyIWQS+7XRuwLpuKjdCHGvdcse3QWzXA8G8Sfy3D+9FkygOu9/5UUsOv2XDzoHquCbbfKJo5S+IJbj4t9qYAjmxD97s1dkecn7vYAbImX/IYo4CgEtKqNJvyBPseyMD4q0fa+9axJs3c9nuZxB3fWOB2CN8WuHPDmnSn2ZTny5+T8VdPHuqznDVBhZ6pGa5JfeUhYeZfac78ozJWZGypu9TYCQ3zvHVOXXAc2pimUw4uoUL/uH1GotM2Rl7jetS59e9LsykHfUsc7W/Io6IFXAfW/s+FrcU2o6RS+5clJZnHGImvFgNpAD8VnTp2lBULdlc3O2f7UeJzwdFoPZpOObiMxuldUMWoR7U1b5PwrQKy/X5GsykHO4i9/gp9d42qPqgngGSV541MMPKh2JdlqRs/CqTUlrqL9tmTEpsL0qc3oNmUA+RsvxxoKzzR3TgcYKS5LD9/fHX3tTxCbNfdLxIyFjivAbLigh7I3BuXyHxQqbgpzaY8HFmwAs0xcqXY0t4NTRpB0AkZZ09K3Hfz6K7btp5zauLWJdb5IEvyLCmuMhEpgNULDEThOu13YlNptY8viETHlJq72O1smjRgPl1Fp7Godn7/zjSX8jGgIAUaK7YRiC+wk+jrYgihjeUDI3tUOJ91jFwt/l7rrczx5Xz3oSAlY1WnrL4De0PEvkorAqSivhDIWJa5+MQ6ivNp687cRecMoLbBzcLU3lLTy7MS4RXaoQHmhXyGOws2mBnitwAm4iXDxaYn+76mxHXwJjSP8jPGs/F3CTg37Dj+WJDxIxDZqqB5ocgmyoE9KnpXozg2oX5fD+c8SQZs7nFbuTTQl782J/CQ+I2KD5Jwpa/WFFt3D2f0P4styz5/BcFQXLviBuZtZ/CnG9lFmMabJWd7NIwhEc0TX8x3PO5y1o/sd0WwroWLHWxvZCexxUoRgN1AWKmHOF7xZBTjCgz41ZcOotOiqzY5kqpEUmNj8ZNsskD8XvVVwgXiLyuOkKTwlfl3acRzRsMOHwlPX0nDkn0ICYaP6PicCM/DNTnBk+PbjipFUsJH996rEpg3rrg+9zD3gVQpkgrrin4/P1wvtUtk/pd7cAAjqVYkFXbwYACvSzqloHcU/UdDr1KtSCoc7sEB/C6h+eOK8jPl+c8W3q+TRPCRANQlsTW4z8MRiKWxSBIM96D8LRNbg3M8OMEOVC2SAneL/j1448TWwMcryE5ULZICjysr/t8TXIPdPDiAQ6haJAW0nwC/nOAabO3BAbAtFkmCscqK/0KCa/BLDw6gH1WLpMDTyoo/McE16OjBAfShapEUeFhZ8fHAJrV+8J09OIADqVokBUaJ/hPg1MpIHevBAexO1SIpcIUH5W+X2Bpc6WENWlO1SAoM9KD8Rye2Bs+Lfm3AtalaJAW6e3AAtyc0f7yG1C4P9nGCcRCSKVuK/ms4lJVOpXNMHw8OcAzViqQCylfN9mAEPROZ/2Me5j6MakVSwkcb6hS+ggjULfYw90OpUiQlLvFgBHgVuGvk8/6D+GmC0ooqRVLCRyIM5G8Sb+/49qJfCq2qbTYDgCQpUCJ7jicncFSE80XrrrGe5ns51YmkyH2eDGKWkc0im+upnuYK2YOqRFLk1x6NYrzbZcTAXka+8zTPTySuYii44dlIbE/AA8TWKEDxk4Pdse9XYkuX/YTqT5qKrebjywlghxG6UCYaZM7wOEd0Vx4q4brrbio2CxPBTbzKnCc2GFtX0BK/O7IhrzXSW1jPMFuu8WgckNESrm1WW/eF/qEAQaPVot5DoK37uUbeEL3+jgiOoq7DYCPNaRb50NZ9xXwaB0qQrRtg2z+jIOOvkvlGBoifWxDcMuxr5IkCfi+kSd8ptn8CyYCHCzCOSe5c6hucbU/zeOavjzxipIXinPZxX+dlBc/je+e8t6eJlJud63Fu1BAYJRqIrOlpHrjnHxfQ8KvLdLGPrioBLdwfKOi3qSvOMcLIBjSV8vJQgQqFc/lARUfQxsgt4ifJp9Iv6PUu2Lqy2/3jjcyNbD5waj1oKuWNBRS9bZ7hgpBIH17Z24L1xFbhLeJMXKm8LfVvH46aAvdEPBc4tesk3K0H8cgVARXrS7cLGeIMe2+xnXZQvhvNTHGn3d/I1UZeMrIwcqOvKRjvGbLi+/ctxKYVpzCf54RXh6VjLSNTEjOs1GSMO9vXBIG2zxOby2SxV5KkROCqaSkN1asgCad3jSDsrETnMk1sgRlSIq6kkXoXXOmNFFtJeGbic/lQbPoxKQmruXM2DbWYoFoZ5jFRWBS1VMCjf0oD/VGeSXiLXqTg9qIRTac8IBX068yV+lmxxU43MfJXGnmdMohmUy66Sdi02pCCxzbrV1sLPPs9S9K7gixS0CWqLc2mXKBuwKLMFPldIy2Xsx7bu3+nwS9/18R6AyUDBSW+zUSB31yB8VeB9N4bIg7i4ZYBJd/QuBUPsaYVfJw7giZTPvbJIBiGx0TNVmJN0BE4lgQe5Bfc4nZsSDZatZbbHdzZH2nkXiPfeBzLVEmvYSypB+3cF6WMxn+rNKy7EXYLjwYcN4ztRFn5R0d43XeuR6d+Es2lnKC4xwMlMnwcbX4jlZX2buT+xjcFjruqHFnTCn9P5PSPFv16Ax9I+JJwxBNVCj+/BOf9bRXXBY+XJha03d9PcdxwfnhspX3jczBNpdyg1dYzCRo+rvIuET8NTfE3h4m/Z8qIOWzj6ffsphzsfYQmksdu4DB3Fk0hB/9J96X2DcpwT1MePyL5vkt0oc/hUkVHy0pCmYA+AEiU+SJS43/RyP5SbBsvJBK9rOi8Di9o3L8XXgmSBoK6AicbeT8Co8eX7Al3Xg7Vv+8Vpbk8UOAccGX4ltK4R9Mk8gQR4C7i/865NvnIfcXaBF4D5BRoZFFiK71FwWPvIjo3A9OEj4SyZx2xpb5Gi5/EGQTckLuPa7HdJJ52XVpdmEcGGDt2GxMUxo5syY1pAqQKGCcejBwntmpuQ68SYfAXGTlI4u1mc7rS2X/XQOPvr+TAulHtyfKY3EClOiuBuf1BaQsd6nENHOtihTmcTDUnOTqApxWM5/bAc3hDYQ7XUM1Jjg5AI5J+euA5jFSYw11Uc5KjA5iqYDy9As/hAoU5PEE1J7k5AFx9TVcwns6B53GywhyeoZoTOgA6AEJ4BOARgJA8HMCbwiAgg4AkWwcwRngNyGtAkq0DuEWYCMREIJKtAzhTmArMVGCSrQM4QNJ+DDRe+BiI0AE0mA2UttB8DkzoABJ0AEDjJoAFQQgdQKIOYKiwJBgh2TqAXRSNiUVBCR1AYg4AV3j/UHQCPsuCdxWWBSd0AOqcK7ol0Hw0Bjle2BiE0AF4oYWRBaJfB5GtwUjSoIvOhw1UsAslreulG0W/GGpVc9AThM1BSSIgKWSQ2A49c6SyBBOU/x4htk33GpHPe1Pl83VNmenW4hBhe3ASGU2M9Bb7OMZXz7xZ7ivbMeJ1GOrR6GpeGcK5ThHbzh0G+XVB/zev/sj/ga/AQPelLkr5sDNAMc49I1yPtUW/X2Bs8qyEe7xEIgFn8z4VnO+1voIPS/juQDU50DmpMho/Ap1tqf55s7nolMPWEpy7z3fHkFi4qaQOYBDVP2/6GZkbqXK+7IJgMYCA5aslM/57hI9+sg7yDRf9u2QfgcLukazZL0SnaGgMMtHFN0iGoPHnXxJS1iUuMBkDO0a8Y6qvIM6zEc0gT9Y38kqCSrvMxQVWiWAN9zYyL1HjnxbRsYoUzLqJn2PhBM6NZC3R0vyrxNZvsgv4kgxBVtnYEpxdcR3XP5I1xfXZ+4ms23Ni3xCQDMG2+RYpT/R6kZFOkaxtM7FPaGN2mNe5DwDJlP4Sf7S/IW/sW0Wyvo1ckHJ+hGvUg+qfN20jVEwteUriusdGEdBHI3C2uDXBIyNW9smcxkZekHLnsZ8Q4XELpcXHS5jt/uPivwQZSYQTSm78VZV2YgxuYWeyv9ulLBH/qdPo5bcTVZ5UgWSfLzwr3lz3xUE32sPdlw/BuQOd87lWbMaZbwO4IfLfAkcD5DCg3LhW8c5Fbnc3WGw7MEL+iSHi7y4ez0dRiba+FW02dQbwmacxoS5eCvfbOB5sZuRod0afIDahqK6Xht+7nc6LYpt2Hiq80iMrADneMz0Y2rtuW9vQbLw1nSNY4GFsNyb6W6EKUEsj27kdVE9n4IjedzbSwX3hG1OtSX05ycNX/3rRKxm1tZG3lceImw5GvUn24Ov8hqJhLRU/xSJ9PEhiS2uSPR1F7x4af2eAx7Hijf04RQfwisTxWIiQYFyiaFBXFTBevE7UKkOGYBlfupGseV3JmF6T4vLH9xC9q0KWuCLZ0lzJkPAl3b3gsWs9VnqQakBy5UAlI3o0wNiRK7BQdB7AsMQ1yZILlBzAfoHGf5foBC43oSqQHLlbwYA+lXANIrsrObD9qQokRzRq/Y0KOP61RKcX339QFUiOfKpgPAMCz0GjZuHFVAWSG6jzr1GuunPgedwh5X8dSIg6TZW2z+0Dz+NqhTmMpDqQ3MD5eZGC8WwVeB7DFOZwG9WB5Aby6jWe2XYIPI/rFOZwK9WB5Aau7mYrGE/XwPO4T2EO11IdSI5MVTCe0wLP4R2FOQyhKpAc0agA/EDA8W9oZLHCHI6lKpAcGaVgPLNdPCEEh4tOJuDeVAWSI2cqGVCfQOPXqBCECkYsmEmypLOSA3hZiu+401F0SmZPEVYFIpmCOnsLlZxArwLHDYN9XGnco6kGJGeeVTKkj8WW6yqCvqJXx/AoqgBhHEBHHhL/xTWQeThb9LrltKQKkJzZXPTaT0Gu8RgP+LmR9xXH+gx/fkJ0S21Xdd3RLhLS2sgk5XH2409PiL3G0269NVb0Sm2h/dVXyuP7Uurfq5CQUoPaAB96cAJzjJwhDU8UamPkXtEL+FWXC/mzE/L/nCB+OvFCpottQLJNPeIDcBbdnOEv8jQeOCb2BSSkGqt5OGPXVoF3mtj3A5e53QH6850jtirP38S2v/7Bs5zHn5uQf6W7p+12TDKFZ39CamcVt/Uuq/F/744XhJDl0Nyd2cvoAEbw5yWkbrqIXvPNWASFQ9biT0tI/TinRMaP1OG2/EkJqT+4rru1BMb/nYTrXUhI0iCd9/6EjR/lwnrzZySk4SA/4J5Ev/x9+PMRorMTuD4h40emXxf+bITogRyBge7LGrPxI5uxPX8uQvywi+i+yddMM75dbJkzQohHcJ+OppyLIzF+tDn/tbC4JyGFsq3Yqjqh3g98Y2Qov/qEhI0NoLz4GLG59kUY/jy3A9mIy09IPPxKbE3AL8TPQ55XjQwy0oxLTUi8NHG7giuMvCYNvzmYZeRJsQ1I2/CMT0iarGtkVyPHia0MhBTjPxt5ysUQ0OTjbiPDjZxt5FCxuftNuHSkSP4X++MPoUBbrVkAAAAASUVORK5CYII=;labelPosition=center;align=center;fontFamily=Poppins;fontSource=https%3A%2F%2Ffonts.googleapis.com%2Fcss%3Ffamily%3DPoppins;fontSize=11;fontColor=#000000;fontStyle=0" vertex="1" parent="1">
          <mxGeometry x="961.75" y="236.25" width="47.5" height="47.5" as="geometry" />
        </mxCell>
        <mxCell id="sZsfLgfr7TtL8EStAJE5-30" style="edgeStyle=orthogonalEdgeStyle;rounded=0;orthogonalLoop=1;jettySize=auto;html=1;fontFamily=Poppins;fontSource=https%3A%2F%2Ffonts.googleapis.com%2Fcss%3Ffamily%3DPoppins;fontSize=12;fontColor=default;" edge="1" parent="1" source="sZsfLgfr7TtL8EStAJE5-26" target="sZsfLgfr7TtL8EStAJE5-29">
          <mxGeometry relative="1" as="geometry" />
        </mxCell>
        <mxCell id="sZsfLgfr7TtL8EStAJE5-36" style="edgeStyle=orthogonalEdgeStyle;rounded=1;orthogonalLoop=1;jettySize=auto;html=1;fontFamily=Poppins;fontSource=https%3A%2F%2Ffonts.googleapis.com%2Fcss%3Ffamily%3DPoppins;fontSize=12;fontColor=default;curved=0;" edge="1" parent="1" source="sZsfLgfr7TtL8EStAJE5-26" target="sZsfLgfr7TtL8EStAJE5-31">
          <mxGeometry relative="1" as="geometry">
            <Array as="points">
              <mxPoint x="1044" y="379" />
            </Array>
          </mxGeometry>
        </mxCell>
        <mxCell id="sZsfLgfr7TtL8EStAJE5-26" value="&lt;b&gt;&lt;font style=&quot;color: rgb(195, 0, 0);&quot;&gt;Policy&lt;br&gt;Payment&lt;br&gt;Service&lt;/font&gt;&lt;/b&gt;" style="sketch=0;pointerEvents=1;shadow=0;dashed=0;html=1;strokeColor=none;fillColor=#DF8C42;labelPosition=center;verticalLabelPosition=bottom;verticalAlign=top;align=center;outlineConnect=0;shape=mxgraph.veeam2.application;fontFamily=Poppins;fontSource=https%3A%2F%2Ffonts.googleapis.com%2Fcss%3Ffamily%3DPoppins;fontSize=12;fontColor=default;" vertex="1" parent="1">
          <mxGeometry x="1140" y="239" width="40" height="42" as="geometry" />
        </mxCell>
        <mxCell id="sZsfLgfr7TtL8EStAJE5-29" value="OnePay" style="outlineConnect=0;dashed=0;verticalLabelPosition=bottom;verticalAlign=top;align=center;html=1;shape=mxgraph.aws3.bank;fillColor=#5294CF;gradientColor=none;sketch=0;pointerEvents=1;fontFamily=Poppins;fontSource=https%3A%2F%2Ffonts.googleapis.com%2Fcss%3Ffamily%3DPoppins;fontSize=12;fontColor=default;" vertex="1" parent="1">
          <mxGeometry x="1230" y="230" width="59" height="60" as="geometry" />
        </mxCell>
        <mxCell id="sZsfLgfr7TtL8EStAJE5-35" style="edgeStyle=orthogonalEdgeStyle;rounded=0;orthogonalLoop=1;jettySize=auto;html=1;fontFamily=Poppins;fontSource=https%3A%2F%2Ffonts.googleapis.com%2Fcss%3Ffamily%3DPoppins;fontSize=12;fontColor=default;" edge="1" parent="1" source="sZsfLgfr7TtL8EStAJE5-31" target="sZsfLgfr7TtL8EStAJE5-34">
          <mxGeometry relative="1" as="geometry" />
        </mxCell>
        <mxCell id="sZsfLgfr7TtL8EStAJE5-31" value="PaymentDataCreated" style="shape=image;verticalLabelPosition=bottom;labelBackgroundColor=none;verticalAlign=top;aspect=fixed;imageAspect=0;image=data:image/png,iVBORw0KGgoAAAANSUhEUgAAAQAAAAEACAYAAABccqhmAAAACXBIWXMAAAsSAAALEgHS3X78AAAZUklEQVR42u2debSWxZHGS4JoxBU1QHCLCgbEgPuuI7gAgwoG4aDijg4RcHfihuMSg7iMK2rQEBR3jfsWDMR1BMVdA0YRXFBBNhGRRZx+7L4zNzcX7uV+1W93v/38zqm/OOfS3V9Vvd3V1VUiRJu1jexj5FQjI4w8Y2SSkS+NzDPyjZE5Rj4x8rqRB41cZeQYI+2NrMolJCQdVjHySyPnGHnRyEIjP1QgM4zca6SfkfW4vITESVMj/Y2MN/J9hUa/PMFu4Q4jezhHQwiJYIuPr/0Xnoy+Nllm5CUj3Yw04k9ASPE0dl/8zws0/NocwTgj2/LnIKQ4tjbyQkDDrymLjVxuZA3+NIT4A+fu37iz+A8RyptGtuHPRIg++LreFqnhV5f5Rvrw5yJEjw0j2/LXJUuNnC28KSCkYloaeSsh468eILyMToCQyr78KRp/dbmUToCQhp35X0rc+Kt2Aifz5ySk/iC55o4SGH+VLDHSlT8rIfVjcImMv0q+MrIZf1pCVkwHI9+W0AFAkDXYmD8xIbWDp7cTSmr8VTKQPzMhtTOw5MYPmSv2apMQUo1mRmZ6Nj687b/PyJlGeop91ruzkU5i3/sPNfK8kUWexzGCPzch/8zFnowNtQGeMtLdyGr1HEsLI6cZ+cjTmOBgtuJPTohlXSOzPRjaa0b2rGBcqztH8DV3AYT442QPX/3LV+KLXxetjbyqPMYFRn7Gn57kDpJ+3hbdt/nHehjnmkYeVXYCp/PnJ7mzvfKX/xiPY13dxRM0jyh8J0Cy5vei+/CmiHjFJEWHxWAgyRZ8/d5UMiZUA25S0Lh3dkcNjXHzoRDJFly3LRGdAhw7FTz24UoO4BGqAcmVg5WM6MEAY28lOm8WUM6c7wNIllyg5AD2CTT+20WnXsAmVAWSI/cqGNDHAb+gXZUcWBeqAsmRVxSM548Bx4/cAI0S5QOoCiRHPlUwnhMDz0Hj+fLFVAWSG0jTnadgPJ0Cz2O0whyGUx1IbqCbr0YUvX3geVytMIeRVAeSG2uJzrv70Jl0wxTmcBvVgeTGGko7gI6B53GdpB3IJCQIqP+nUQOgW+B53K8wh2upDiRHpioYzxkBx4+3DO8pzGEIVYHkiEbDzwcDjr+56DwKOoaqQHLkT6JTZbdpoPEfJTqZgHtSFUiOnKFkQEcEGv9Y0WkbxtJgJEv2UXIAqNf3k4LHvoPYgh6Vjv1DYVUgkilri14bsL4FjhsG+xelcY+iGpCcGadkSNML3Eprnf0h/agCJGdOUzSmJ8TmF/gEqcfzlMb7ndibBEKyZTPRKQtWJTd7jAdsamSK4lif5s9PiMgY0a23j8c1qymPsZ2y8RcdtyAkWg4R/dZbLxrZQmFsCPgdZmSO8vg+N/LTxH6nRi7OghuQHmIbsKCj8ylGTjJytNgejHifsb7wdoPUE5zbJ3twAvONnC/2tqEhbGPkMbF1+7THdn4CvwvKrO/mxvqk2EBrfa8+caybKjZTE3GeDlL8VS1JiGM8GFmVoO34Ve7LVVf9wHWM9HKGv9TTeGaJbYce61d+TxdL+VJxzsvcEepy51gJ+ZddwNsenUD1Mtz4ml3nvmy/FVuSC09yUd7r2wLG8J8Rrj+OI8cX9BtgF/GckZ7cFZDq7Cc62XUxy+TIzv7YER1n5KNA6/GGixswXkB+5LYSG//3zsnFwi5GJkawLsvcrmxLqj9B9HhaSR3ADZGsMbocXya6+RdaQduBLg5BMmZv0akXGJO8LrYMWmg2E51S5j4FNwfr0QzyZrD4uX4LITMi2d4iuv9lImv2Ho8EeYOg0DUlMP4FRvaKYD2RuPNtYmuHG5vtaQr5giuiUQkbPx77HBTBOvZK+EiFnIkdaQr5gmuqWxP98sdg/F2cI0r9CNWOppAviApfmlBMYKYLZIYG6bdzSxJHQeUkPp3OHBTP+CZyRUViS+sI1grXqf+Qct2k/FX813sgkYOCHK9LnEk+N4ltGR5DAPV+KWcuxYU0AYK3/v8l8US1sT3tGtH6HCXlzaZEH4ZdaAIEtDFyn4R7P4Dz9XkSri9BbTR3MYgyv6fAMasJ1Z9UsYNzBIuluCDfJUY2jHAtbi5oDRCL+buRZ8VWSH7eyAdS3I3DIKo9qckv3BnRR/BriVP2YyM559dGO89OENl56GO4k9T+ohGxBxRfQb8HvPv/1ONYkNG4DlWe1AYSiLYT+97/+QqUbLoLpp1oZOME5n2nJ2Ob4GIcK/t2H7GaI93OwMe4zqaqk7poXYGCbZ3Y7kc72w/b/JOk8qIdeAQ1VPRfH34m6dVVJAk5gJSyzy5VNi4UCOmgPMZuol9c9TCqOMndAayqfN6e7PHIg7z+WaKbHERI1g6gk3JwbQvP4/030bstQNCzFdWc5OwAtJ5Nowpyl4LGfKqi0+pPNSe5OgBcvU1SMqQRBY4bgcUXlMZ9P9Wc5OoAWopO/4KvjbQoeOxoOqKRxTldWF6cZOoADlT6il4baPcyVmHseCa+OVWd5OgAzlUyoA6Bxn+YkgM7mKpOcnQAIxWM530J15gD1X8XKszhdKo6ydEBaGyhbw08h/EKc7ieqk5ydADvKBjP4MBzGKEwh3uo6iQ3B4Btu0YXpZ6B53GewhyepKqT3BwAiqVOVzCeToHnMViYEkzoAII5gH0Dz+MUhTmMoaqTHGMAGm29eweew0UKc3iMqk5ydABvKBjPbwPPYbTCHO6gqpMcHcATCsZzb+A5vKcwh6uo6qQ22legVGjqGXuO+Y0KxoMmnKEabmwiOm8ZTqKqE7ChO9MiMWSiVNZJaJkzDlwxIeV2d7F17mJCI4IO6Rxo/KcojX9fqn6+tHKG8Jz474I7051ZD4rEGewl6T6pRePXd0WnjkELmkFeYGv+70YekXCtrz8XW/56y4DrgDLcGh2SULCz6AdBfZR+B5SBX4UmkQfoCHOM0pdDs10VvqDbBVoTrcIaSKZpVNCY1xKdK0zILTSL8tPIne3fj8jwa9uKwhFsVeC6bGDkRcU5nFLAmFdxRqs15l40j3LTwZ3vU+ldh4KXw9xXzif7G/lEeew4Tu3nedwDxQZYNcY73x2DSAlZXWyW2KKEjL+6TBE/0Wk02vhv0bk+q03miW3v5YNjRbdByF00k3KCbfSriRp+zWMBjFXrxqCjkbcKGDcCi0cpBtcQ8UffRu1Ozp1pKuWjt/sKlaml9f+ITXqpxIDOFJ3qOSuTB4EU25YV/p5tjYzzML43hcVASxfou8jDVyIWQS+7XRuwLpuKjdCHGvdcse3QWzXA8G8Sfy3D+9FkygOu9/5UUsOv2XDzoHquCbbfKJo5S+IJbj4t9qYAjmxD97s1dkecn7vYAbImX/IYo4CgEtKqNJvyBPseyMD4q0fa+9axJs3c9nuZxB3fWOB2CN8WuHPDmnSn2ZTny5+T8VdPHuqznDVBhZ6pGa5JfeUhYeZfac78ozJWZGypu9TYCQ3zvHVOXXAc2pimUw4uoUL/uH1GotM2Rl7jetS59e9LsykHfUsc7W/Io6IFXAfW/s+FrcU2o6RS+5clJZnHGImvFgNpAD8VnTp2lBULdlc3O2f7UeJzwdFoPZpOObiMxuldUMWoR7U1b5PwrQKy/X5GsykHO4i9/gp9d42qPqgngGSV541MMPKh2JdlqRs/CqTUlrqL9tmTEpsL0qc3oNmUA+RsvxxoKzzR3TgcYKS5LD9/fHX3tTxCbNfdLxIyFjivAbLigh7I3BuXyHxQqbgpzaY8HFmwAs0xcqXY0t4NTRpB0AkZZ09K3Hfz6K7btp5zauLWJdb5IEvyLCmuMhEpgNULDEThOu13YlNptY8viETHlJq72O1smjRgPl1Fp7Godn7/zjSX8jGgIAUaK7YRiC+wk+jrYgihjeUDI3tUOJ91jFwt/l7rrczx5Xz3oSAlY1WnrL4De0PEvkorAqSivhDIWJa5+MQ6ivNp687cRecMoLbBzcLU3lLTy7MS4RXaoQHmhXyGOws2mBnitwAm4iXDxaYn+76mxHXwJjSP8jPGs/F3CTg37Dj+WJDxIxDZqqB5ocgmyoE9KnpXozg2oX5fD+c8SQZs7nFbuTTQl782J/CQ+I2KD5Jwpa/WFFt3D2f0P4styz5/BcFQXLviBuZtZ/CnG9lFmMabJWd7NIwhEc0TX8x3PO5y1o/sd0WwroWLHWxvZCexxUoRgN1AWKmHOF7xZBTjCgz41ZcOotOiqzY5kqpEUmNj8ZNsskD8XvVVwgXiLyuOkKTwlfl3acRzRsMOHwlPX0nDkn0ICYaP6PicCM/DNTnBk+PbjipFUsJH996rEpg3rrg+9zD3gVQpkgrrin4/P1wvtUtk/pd7cAAjqVYkFXbwYACvSzqloHcU/UdDr1KtSCoc7sEB/C6h+eOK8jPl+c8W3q+TRPCRANQlsTW4z8MRiKWxSBIM96D8LRNbg3M8OMEOVC2SAneL/j1448TWwMcryE5ULZICjysr/t8TXIPdPDiAQ6haJAW0nwC/nOAabO3BAbAtFkmCscqK/0KCa/BLDw6gH1WLpMDTyoo/McE16OjBAfShapEUeFhZ8fHAJrV+8J09OIADqVokBUaJ/hPg1MpIHevBAexO1SIpcIUH5W+X2Bpc6WENWlO1SAoM9KD8Rye2Bs+Lfm3AtalaJAW6e3AAtyc0f7yG1C4P9nGCcRCSKVuK/ms4lJVOpXNMHw8OcAzViqQCylfN9mAEPROZ/2Me5j6MakVSwkcb6hS+ggjULfYw90OpUiQlLvFgBHgVuGvk8/6D+GmC0ooqRVLCRyIM5G8Sb+/49qJfCq2qbTYDgCQpUCJ7jicncFSE80XrrrGe5ns51YmkyH2eDGKWkc0im+upnuYK2YOqRFLk1x6NYrzbZcTAXka+8zTPTySuYii44dlIbE/AA8TWKEDxk4Pdse9XYkuX/YTqT5qKrebjywlghxG6UCYaZM7wOEd0Vx4q4brrbio2CxPBTbzKnCc2GFtX0BK/O7IhrzXSW1jPMFuu8WgckNESrm1WW/eF/qEAQaPVot5DoK37uUbeEL3+jgiOoq7DYCPNaRb50NZ9xXwaB0qQrRtg2z+jIOOvkvlGBoifWxDcMuxr5IkCfi+kSd8ptn8CyYCHCzCOSe5c6hucbU/zeOavjzxipIXinPZxX+dlBc/je+e8t6eJlJud63Fu1BAYJRqIrOlpHrjnHxfQ8KvLdLGPrioBLdwfKOi3qSvOMcLIBjSV8vJQgQqFc/lARUfQxsgt4ifJp9Iv6PUu2Lqy2/3jjcyNbD5waj1oKuWNBRS9bZ7hgpBIH17Z24L1xFbhLeJMXKm8LfVvH46aAvdEPBc4tesk3K0H8cgVARXrS7cLGeIMe2+xnXZQvhvNTHGn3d/I1UZeMrIwcqOvKRjvGbLi+/ctxKYVpzCf54RXh6VjLSNTEjOs1GSMO9vXBIG2zxOby2SxV5KkROCqaSkN1asgCad3jSDsrETnMk1sgRlSIq6kkXoXXOmNFFtJeGbic/lQbPoxKQmruXM2DbWYoFoZ5jFRWBS1VMCjf0oD/VGeSXiLXqTg9qIRTac8IBX068yV+lmxxU43MfJXGnmdMohmUy66Sdi02pCCxzbrV1sLPPs9S9K7gixS0CWqLc2mXKBuwKLMFPldIy2Xsx7bu3+nwS9/18R6AyUDBSW+zUSB31yB8VeB9N4bIg7i4ZYBJd/QuBUPsaYVfJw7giZTPvbJIBiGx0TNVmJN0BE4lgQe5Bfc4nZsSDZatZbbHdzZH2nkXiPfeBzLVEmvYSypB+3cF6WMxn+rNKy7EXYLjwYcN4ztRFn5R0d43XeuR6d+Es2lnKC4xwMlMnwcbX4jlZX2buT+xjcFjruqHFnTCn9P5PSPFv16Ax9I+JJwxBNVCj+/BOf9bRXXBY+XJha03d9PcdxwfnhspX3jczBNpdyg1dYzCRo+rvIuET8NTfE3h4m/Z8qIOWzj6ffsphzsfYQmksdu4DB3Fk0hB/9J96X2DcpwT1MePyL5vkt0oc/hUkVHy0pCmYA+AEiU+SJS43/RyP5SbBsvJBK9rOi8Di9o3L8XXgmSBoK6AicbeT8Co8eX7Al3Xg7Vv+8Vpbk8UOAccGX4ltK4R9Mk8gQR4C7i/865NvnIfcXaBF4D5BRoZFFiK71FwWPvIjo3A9OEj4SyZx2xpb5Gi5/EGQTckLuPa7HdJJ52XVpdmEcGGDt2GxMUxo5syY1pAqQKGCcejBwntmpuQ68SYfAXGTlI4u1mc7rS2X/XQOPvr+TAulHtyfKY3EClOiuBuf1BaQsd6nENHOtihTmcTDUnOTqApxWM5/bAc3hDYQ7XUM1Jjg5AI5J+euA5jFSYw11Uc5KjA5iqYDy9As/hAoU5PEE1J7k5AFx9TVcwns6B53GywhyeoZoTOgA6AEJ4BOARgJA8HMCbwiAgg4AkWwcwRngNyGtAkq0DuEWYCMREIJKtAzhTmArMVGCSrQM4QNJ+DDRe+BiI0AE0mA2UttB8DkzoABJ0AEDjJoAFQQgdQKIOYKiwJBgh2TqAXRSNiUVBCR1AYg4AV3j/UHQCPsuCdxWWBSd0AOqcK7ol0Hw0Bjle2BiE0AF4oYWRBaJfB5GtwUjSoIvOhw1UsAslreulG0W/GGpVc9AThM1BSSIgKWSQ2A49c6SyBBOU/x4htk33GpHPe1Pl83VNmenW4hBhe3ASGU2M9Bb7OMZXz7xZ7ivbMeJ1GOrR6GpeGcK5ThHbzh0G+XVB/zev/sj/ga/AQPelLkr5sDNAMc49I1yPtUW/X2Bs8qyEe7xEIgFn8z4VnO+1voIPS/juQDU50DmpMho/Ap1tqf55s7nolMPWEpy7z3fHkFi4qaQOYBDVP2/6GZkbqXK+7IJgMYCA5aslM/57hI9+sg7yDRf9u2QfgcLukazZL0SnaGgMMtHFN0iGoPHnXxJS1iUuMBkDO0a8Y6qvIM6zEc0gT9Y38kqCSrvMxQVWiWAN9zYyL1HjnxbRsYoUzLqJn2PhBM6NZC3R0vyrxNZvsgv4kgxBVtnYEpxdcR3XP5I1xfXZ+4ms23Ni3xCQDMG2+RYpT/R6kZFOkaxtM7FPaGN2mNe5DwDJlP4Sf7S/IW/sW0Wyvo1ckHJ+hGvUg+qfN20jVEwteUriusdGEdBHI3C2uDXBIyNW9smcxkZekHLnsZ8Q4XELpcXHS5jt/uPivwQZSYQTSm78VZV2YgxuYWeyv9ulLBH/qdPo5bcTVZ5UgWSfLzwr3lz3xUE32sPdlw/BuQOd87lWbMaZbwO4IfLfAkcD5DCg3LhW8c5Fbnc3WGw7MEL+iSHi7y4ez0dRiba+FW02dQbwmacxoS5eCvfbOB5sZuRod0afIDahqK6Xht+7nc6LYpt2Hiq80iMrADneMz0Y2rtuW9vQbLw1nSNY4GFsNyb6W6EKUEsj27kdVE9n4IjedzbSwX3hG1OtSX05ycNX/3rRKxm1tZG3lceImw5GvUn24Ov8hqJhLRU/xSJ9PEhiS2uSPR1F7x4af2eAx7Hijf04RQfwisTxWIiQYFyiaFBXFTBevE7UKkOGYBlfupGseV3JmF6T4vLH9xC9q0KWuCLZ0lzJkPAl3b3gsWs9VnqQakBy5UAlI3o0wNiRK7BQdB7AsMQ1yZILlBzAfoHGf5foBC43oSqQHLlbwYA+lXANIrsrObD9qQokRzRq/Y0KOP61RKcX339QFUiOfKpgPAMCz0GjZuHFVAWSG6jzr1GuunPgedwh5X8dSIg6TZW2z+0Dz+NqhTmMpDqQ3MD5eZGC8WwVeB7DFOZwG9WB5Aby6jWe2XYIPI/rFOZwK9WB5Aau7mYrGE/XwPO4T2EO11IdSI5MVTCe0wLP4R2FOQyhKpAc0agA/EDA8W9oZLHCHI6lKpAcGaVgPLNdPCEEh4tOJuDeVAWSI2cqGVCfQOPXqBCECkYsmEmypLOSA3hZiu+401F0SmZPEVYFIpmCOnsLlZxArwLHDYN9XGnco6kGJGeeVTKkj8WW6yqCvqJXx/AoqgBhHEBHHhL/xTWQeThb9LrltKQKkJzZXPTaT0Gu8RgP+LmR9xXH+gx/fkJ0S21Xdd3RLhLS2sgk5XH2409PiL3G0269NVb0Sm2h/dVXyuP7Uurfq5CQUoPaAB96cAJzjJwhDU8UamPkXtEL+FWXC/mzE/L/nCB+OvFCpottQLJNPeIDcBbdnOEv8jQeOCb2BSSkGqt5OGPXVoF3mtj3A5e53QH6850jtirP38S2v/7Bs5zHn5uQf6W7p+12TDKFZ39CamcVt/Uuq/F/744XhJDl0Nyd2cvoAEbw5yWkbrqIXvPNWASFQ9biT0tI/TinRMaP1OG2/EkJqT+4rru1BMb/nYTrXUhI0iCd9/6EjR/lwnrzZySk4SA/4J5Ev/x9+PMRorMTuD4h40emXxf+bITogRyBge7LGrPxI5uxPX8uQvywi+i+yddMM75dbJkzQohHcJ+OppyLIzF+tDn/tbC4JyGFsq3Yqjqh3g98Y2Qov/qEhI0NoLz4GLG59kUY/jy3A9mIy09IPPxKbE3AL8TPQ55XjQwy0oxLTUi8NHG7giuMvCYNvzmYZeRJsQ1I2/CMT0iarGtkVyPHia0MhBTjPxt5ysUQ0OTjbiPDjZxt5FCxuftNuHSkSP4X++MPoUBbrVkAAAAASUVORK5CYII=;labelPosition=center;align=center;fontFamily=Poppins;fontSource=https%3A%2F%2Ffonts.googleapis.com%2Fcss%3Ffamily%3DPoppins;fontSize=11;fontColor=#000000;fontStyle=0" vertex="1" parent="1">
          <mxGeometry x="1000" y="358.75" width="47.5" height="47.5" as="geometry" />
        </mxCell>
        <mxCell id="sZsfLgfr7TtL8EStAJE5-38" style="edgeStyle=orthogonalEdgeStyle;rounded=0;orthogonalLoop=1;jettySize=auto;html=1;fontFamily=Poppins;fontSource=https%3A%2F%2Ffonts.googleapis.com%2Fcss%3Ffamily%3DPoppins;fontSize=12;fontColor=default;" edge="1" parent="1" source="sZsfLgfr7TtL8EStAJE5-34" target="sZsfLgfr7TtL8EStAJE5-37">
          <mxGeometry relative="1" as="geometry" />
        </mxCell>
        <mxCell id="sZsfLgfr7TtL8EStAJE5-34" value="Kafka&lt;div&gt;Sink&lt;/div&gt;&lt;div&gt;Connector&lt;/div&gt;" style="shape=image;html=1;verticalAlign=top;verticalLabelPosition=bottom;labelBackgroundColor=none;imageAspect=0;aspect=fixed;image=https://cdn1.iconfinder.com/data/icons/science-technology-outline-24-px/24/Electrical_plug_plug_plug_connector_plug_in_power_plug-128.png;fontSize=11;fontFamily=Poppins;fontSource=https%3A%2F%2Ffonts.googleapis.com%2Fcss%3Ffamily%3DPoppins;" vertex="1" parent="1">
          <mxGeometry x="886.5" y="355" width="55" height="55" as="geometry" />
        </mxCell>
        <mxCell id="sZsfLgfr7TtL8EStAJE5-37" value="TBATCHTERMIN" style="shape=image;html=1;verticalAlign=top;verticalLabelPosition=bottom;labelBackgroundColor=none;imageAspect=0;aspect=fixed;image=https://cdn2.iconfinder.com/data/icons/font-awesome/1792/table-128.png;fontSize=11;fontFamily=Poppins;fontSource=https%3A%2F%2Ffonts.googleapis.com%2Fcss%3Ffamily%3DPoppins;spacingTop=-5;" vertex="1" parent="1">
          <mxGeometry x="769" y="357.5" width="50" height="50" as="geometry" />
        </mxCell>
        <mxCell id="sZsfLgfr7TtL8EStAJE5-42" value="Policy Onboarding&lt;br&gt;SubProcess" style="points=[[0,0],[0.25,0],[0.5,0],[0.75,0],[1,0],[1,0.25],[1,0.5],[1,0.75],[1,1],[0.75,1],[0.5,1],[0.25,1],[0,1],[0,0.75],[0,0.5],[0,0.25]];outlineConnect=0;gradientColor=none;html=1;whiteSpace=wrap;fontSize=11;fontStyle=0;container=1;pointerEvents=0;collapsible=0;recursiveResize=0;shape=mxgraph.aws4.groupCenter;grIcon=mxgraph.aws4.group_auto_scaling_group;grStroke=1;strokeColor=light-dark(#2072b8, #d8762e);fillColor=none;verticalAlign=bottom;align=center;fontColor=#000000;dashed=1;spacingTop=25;sketch=0;fontFamily=Poppins;fontSource=https%3A%2F%2Ffonts.googleapis.com%2Fcss%3Ffamily%3DPoppins;spacingBottom=-44;" vertex="1" parent="1">
          <mxGeometry x="417.5" y="175" width="52.5" height="55" as="geometry" />
        </mxCell>
        <mxCell id="sZsfLgfr7TtL8EStAJE5-50" style="edgeStyle=orthogonalEdgeStyle;rounded=0;orthogonalLoop=1;jettySize=auto;html=1;fontFamily=Poppins;fontSource=https%3A%2F%2Ffonts.googleapis.com%2Fcss%3Ffamily%3DPoppins;fontSize=12;fontColor=default;" edge="1" parent="1" source="sZsfLgfr7TtL8EStAJE5-43" target="sZsfLgfr7TtL8EStAJE5-49">
          <mxGeometry relative="1" as="geometry" />
        </mxCell>
        <mxCell id="sZsfLgfr7TtL8EStAJE5-43" value="Output&lt;br&gt;Batch" style="sketch=0;html=1;aspect=fixed;strokeColor=none;shadow=0;fillColor=#3B8DF1;verticalAlign=top;labelPosition=center;verticalLabelPosition=bottom;shape=mxgraph.gcp2.process;fontSize=12;fontFamily=Poppins;fontSource=https%3A%2F%2Ffonts.googleapis.com%2Fcss%3Ffamily%3DPoppins;fontColor=#330000;fontStyle=0" vertex="1" parent="1">
          <mxGeometry x="654" y="354.5" width="42" height="50" as="geometry" />
        </mxCell>
        <mxCell id="sZsfLgfr7TtL8EStAJE5-48" style="edgeStyle=orthogonalEdgeStyle;rounded=0;orthogonalLoop=1;jettySize=auto;html=1;entryX=1.024;entryY=0.57;entryDx=0;entryDy=0;entryPerimeter=0;fontFamily=Poppins;fontSource=https%3A%2F%2Ffonts.googleapis.com%2Fcss%3Ffamily%3DPoppins;fontSize=12;fontColor=default;" edge="1" parent="1" source="sZsfLgfr7TtL8EStAJE5-37" target="sZsfLgfr7TtL8EStAJE5-43">
          <mxGeometry relative="1" as="geometry" />
        </mxCell>
        <mxCell id="sZsfLgfr7TtL8EStAJE5-49" value="Thunderhead" style="image;aspect=fixed;html=1;points=[];align=center;fontSize=11;image=img/lib/azure2/compute/Image_Templates.svg;fontFamily=Poppins;fontSource=https%3A%2F%2Ffonts.googleapis.com%2Fcss%3Ffamily%3DPoppins;" vertex="1" parent="1">
          <mxGeometry x="645.9999999999999" y="520" width="56.67" height="50" as="geometry" />
        </mxCell>
        <mxCell id="sZsfLgfr7TtL8EStAJE5-59" style="edgeStyle=orthogonalEdgeStyle;rounded=1;orthogonalLoop=1;jettySize=auto;html=1;fontFamily=Poppins;fontSource=https%3A%2F%2Ffonts.googleapis.com%2Fcss%3Ffamily%3DPoppins;fontSize=12;fontColor=default;curved=0;" edge="1" parent="1" source="sZsfLgfr7TtL8EStAJE5-52" target="sZsfLgfr7TtL8EStAJE5-14">
          <mxGeometry relative="1" as="geometry" />
        </mxCell>
        <mxCell id="sZsfLgfr7TtL8EStAJE5-52" value="Policy&lt;br&gt;Amendment&lt;br&gt;SubProcess" style="points=[[0,0],[0.25,0],[0.5,0],[0.75,0],[1,0],[1,0.25],[1,0.5],[1,0.75],[1,1],[0.75,1],[0.5,1],[0.25,1],[0,1],[0,0.75],[0,0.5],[0,0.25]];outlineConnect=0;gradientColor=none;html=1;whiteSpace=wrap;fontSize=11;fontStyle=0;container=1;pointerEvents=0;collapsible=0;recursiveResize=0;shape=mxgraph.aws4.groupCenter;grIcon=mxgraph.aws4.group_auto_scaling_group;grStroke=1;strokeColor=light-dark(#2072b8, #d8762e);fillColor=none;verticalAlign=bottom;align=center;fontColor=#000000;dashed=1;spacingTop=25;sketch=0;fontFamily=Poppins;fontSource=https%3A%2F%2Ffonts.googleapis.com%2Fcss%3Ffamily%3DPoppins;spacingBottom=-44;" vertex="1" parent="1">
          <mxGeometry x="417.5" y="290" width="52.5" height="55" as="geometry" />
        </mxCell>
        <mxCell id="sZsfLgfr7TtL8EStAJE5-57" style="edgeStyle=orthogonalEdgeStyle;rounded=1;orthogonalLoop=1;jettySize=auto;html=1;entryX=0.381;entryY=0.02;entryDx=0;entryDy=0;entryPerimeter=0;fontFamily=Poppins;fontSource=https%3A%2F%2Ffonts.googleapis.com%2Fcss%3Ffamily%3DPoppins;fontSize=12;fontColor=default;curved=0;" edge="1" parent="1" source="sZsfLgfr7TtL8EStAJE5-42" target="sZsfLgfr7TtL8EStAJE5-14">
          <mxGeometry relative="1" as="geometry" />
        </mxCell>
        <mxCell id="sZsfLgfr7TtL8EStAJE5-64" style="edgeStyle=orthogonalEdgeStyle;rounded=1;orthogonalLoop=1;jettySize=auto;html=1;fontFamily=Poppins;fontSource=https%3A%2F%2Ffonts.googleapis.com%2Fcss%3Ffamily%3DPoppins;fontSize=12;fontColor=default;curved=0;" edge="1" parent="1" source="sZsfLgfr7TtL8EStAJE5-60" target="sZsfLgfr7TtL8EStAJE5-14">
          <mxGeometry relative="1" as="geometry" />
        </mxCell>
        <mxCell id="sZsfLgfr7TtL8EStAJE5-60" value="Policy&lt;br&gt;Renewal&lt;br&gt;SubProcess" style="points=[[0,0],[0.25,0],[0.5,0],[0.75,0],[1,0],[1,0.25],[1,0.5],[1,0.75],[1,1],[0.75,1],[0.5,1],[0.25,1],[0,1],[0,0.75],[0,0.5],[0,0.25]];outlineConnect=0;gradientColor=none;html=1;whiteSpace=wrap;fontSize=11;fontStyle=0;container=1;pointerEvents=0;collapsible=0;recursiveResize=0;shape=mxgraph.aws4.groupCenter;grIcon=mxgraph.aws4.group_auto_scaling_group;grStroke=1;strokeColor=light-dark(#2072b8, #d8762e);fillColor=none;verticalAlign=bottom;align=center;fontColor=#000000;dashed=1;spacingTop=25;sketch=0;fontFamily=Poppins;fontSource=https%3A%2F%2Ffonts.googleapis.com%2Fcss%3Ffamily%3DPoppins;spacingBottom=-44;" vertex="1" parent="1">
          <mxGeometry x="417.5" y="404.5" width="52.5" height="55" as="geometry" />
        </mxCell>
        <mxCell id="sZsfLgfr7TtL8EStAJE5-66" value="ABS" style="shape=image;verticalLabelPosition=middle;labelBackgroundColor=none;verticalAlign=middle;aspect=fixed;imageAspect=0;image=data:image/png,iVBORw0KGgoAAAANSUhEUgAAAJ8AAACfCAYAAADnGwvgAAAACXBIWXMAAC4jAAAuIwF4pT92AAALeklEQVR42u2d33Xa6hLFN6y82x2EDuC88WZuBeZUYFJBdBogCg0EV2C5A1zBld94u1BBoANTge6DRokO4Z++mU9/916LFXtlWQjpx56Zb0ZSL0kSUOfVGy8GAAZF/y5Zz2MevSvHtuvw9caLEYB7ABP5N/t9aPQWBwAb+TkG8CG/b5L1/IPwdcvFJgLYCMBDxbu0z0AEEHfNLVsNX2+8uAcwFeAmAD43YLffxSFbD2Pr4BN3mwKYGYbOqnQAsAKwStbzFeEjcASR8AG98SID7rFjufoeQAQgStbzHeErN4+bAQgaksP51huAZRPzw8bAJ9AF8rojcycLlbBJENYePkLXXghrDV9vvAgJXXshrCV8UkgsmdOZ6FUg3BG+y9ANpIp7IDOmOgiAS8J3GrwAQFjDELtF2o8FfvdlTynrC2ca1fSzzJL1fEP46uN2WwA7/O6zfljlSrmpmFHu36rB/J6s52Gn4euNFzPJ7co+Eb/6p6houkSmaUaoru/8Li646xR8snyyBPBU0lvuBbTatqZyLcJpiVHgIACuOgGfHOQV/Pdgs17osi45TsEv5xTpMlMZvepKwnCp8PXGi4kA4TPMviPteUZtKFPlyxogbSn6PG5v4oIfrYNP8rsXj2/x2kSXc3DD0GN+uAUwKQvAUuDrjRdLAF89Qhc2ebrD8YvsC8KDALhpPHy98SLyVFh0DroSISwFQK/weQKvcdMbJYTjAMC3pgHoDT4P4NWyRVSzwiSC7TKNVwC9wOcBvNIrsQZDaN2m9AagOXzG4NHt6uGCXgA0hU++dT8My/5ZW5dOSoIwNMwFDwAGltHHDD7jdbxXAIGvMCsnxZdiALu6VOHGC/um64Am8EmTPDb6gN5bPb3xooyV9S3SRe+oBgCOJAxbtOrekvV8arFffaNS3wq8L3UY9THSEMCL5MCVSlKXiXwhtHqUpkH18BlZ+gHAX23pxx7pyXOYvxXADwHw1WBzX+VSh+rCrlFCW1o7p+Sw6zVZr8GKxAHASJPb9hUfYNJE8CrSHdKhgFooWc9nBg54J1Gv3LAreV5E8AppVKedMQJwqEkpXJ0vgr6Z3bU1vFEN9ykwKEK+STXtHz5JNLU35vnSxlt+NU25IkQLYOQdvty1Fxq9trSqbTKAM0mDSg2/RZ0vVIbbd8k1qtb33OtNeeDbAODGoCAKpKd8u5ndutQiG/7ZluUGT8sP1754kzpDaLB0Vqj7UcT5tKFyWueRKHHkfccdMEQ6rOuqR1mCs4NPNqgZz3luyOQxiyB9/rc0hU9yPVdtk/U8aMiB37EAme8EQE3xMTOBTzakcb2gQcees4MpgCtl+A1N4FO63jMv9Olk+P18i/v1b8j1XJdWDkpwqerDr2ZNN1TBp4Qn4AU/rah+XVcAPl8bu/p0wfU0zybbW3cxpLsyUhzIRoR/5ef88NAvD+F+eURwaQXhk6dCITQ4CQPZhwlsxr97DTGcEYD/Ko5blvLESG8JpzKBZD2PZPHZJf166I0Xg3Mzf/0L3z7X1X6160my+hPp/V3a+jgrn7pDOvzx0hsvNq5TJ76NqH+h0qnE9Uq4m1XXNASwEkNxdb+VIvebnntva/hUrmc0NUOdSP4NjqurqZyd4u6fKTRcQ532A87AB774kmpqRUxlb/nefUPXO0A/fDAhI/7ywCJN/zNyPb+Pp0Jv3/AbsjJY1xuREa+qCr6TXPVPhFzXjoZFrsbHXdVYsmTy5gU+hevteUOfzsh17OyP0GsFH+fguuN+EdwHDiYn4RMqXavciKeF7lc09PYNklGGXMKncz4FfAy53VPsWlDmr3CzgC/muehc3vcB90nnySn4ho47Quej+xXR6F/wKVa+33kOCJ8KPrh3FlhodDf0usL3YAUf871uyynyZfOFGXwDOh9V4vkf5OFzuVbj0OWH7lEq+FLnU0y40vWonQo+FhtUBUXHfQafq/PxmlwKcBsyUDsfK13KNQLe5QsOinKVUwTsjRcD5nxUVRXvwDnn431YKK0YdqlKwq4Gvj2POaUMu5M+3LobOx5zimGXInwURfgowkdRhI8ifBR1Cj6u2VGVwbdz+DveyozS6sM17PLuoVSmiePfbZjzUY0Luyj6VGmKMoMP7pdbUgy7SNbzWBN2CR+ldr6Y8FEKuUxF7TP46HyUkxTXfO8AoK+49pLwUSMVfPKLy7WXDzz2hM8CPqdRaIOnGVLdhC9Wwwe22QhfVc4HPiut68WGy62Uf93djM5HucrVeH6x1gcAxXM0hmyzET6XfC/vfIDBre0pwlfY+Y6JJHzUlXxvAPdHpcWW8E15Ouh6N2qbv8fPL/gUnY673nhBALsl1/P9L8aOe7tvJe8M1byQew/g0fHPV5fgWxE+ytO5PhxH1/4lWywYemc8L51QYOF6f8AnK89bx40TPla57vCJIseNP3DBufUKFSH3Jvg0jzANeH5aXWi45nsnmfoDPgm9rlXvTDHdStU/13O9Xju6CT6l+93R/Vor15x+f24N+SR8yXoewW26GQACul/rQu4MwGdL17vkfACwpPtRYiShYhNLF/gixRvS/dqV67m63uul57WchU8Kj1eF+4U8b61wPU0Uu8hAX/PHV/SVFxg1XktFhft+7WHgF+FTup8mb6Sqd70JgCdfrneL82nd76E3XrD4aK7ruer9lhG9q/AZuF/ItlvjXC+Eew/3ZsPqW27sQvER8ZQ2BrwRgG+KTbzeOph8E3zifs/K8MvqtxnV7Uq5mZvPc7/gRg+KnfrG6rf2iuC+pgcA369VuE7wyWKhtniIufhcW9cL4D4eD6T33CtUpBS6P5/0fN8VO3hHAGsJ3gTAD+VmgqJPn//k8CYzAD8VOzmUb8jsxP/9p+LzsPG4Dx812IfdmQJDm+e9nRoWvQp9kiSuFq39prwm6/mMvlN5gbGD7rkqBwCDoq5XOOzmwu9SGX4B4IkL0JWDF0P/QJ+ZC3jO8OXC70G54z941Vul4A2Vm3p2Cbdq+KSktgDnhQA2ErwtlJNLqsdfCfXPRgBGRMM7eAMj8A6acKsqOE58qBg2NwhnEeIPvJFRjgcAf2vCrYnz5TSFzXN7n3rjxYbrgObgzQzB+24Bnhl8Yr9TgwIEEhI2bMWZgRcCeDEC7zVZz0OzfbMIu0fW/j/DY/ePLOtQboXFCnbPS9km67mpIZg+b1fu7fzFcJM/euPFimG4MHhTpIvHZuDBwx1oTZ3vKMd4MdxkVl2tiNZVt4ugGxA4CZ62si0NPk8AAultPIIiYzsdKyo0F/yUCp5X+DwCeJCDvPR1UBoG3QTpYq/1s/C8gucdPo8AZhAGMubVRegGAt2Th817B68U+HJVcGwcEjLtAYRdgdAzdFlqMysjqpQCXw7AFXRj2p0NxxJetdPG11Rqh6k0+HLVWAx9b/HqQQQQKR7vUKfqdQbd/VJu1Zeyo0ep8OUO6hLA1xLeai9uGymeL1cFcFN5PZbwlgfJ70o/PpXA53Fp4BqIscAY1yk0S0oykddjiW/9DmBa1bGoDL5c8rwqIQyfq+hipNdMxGWuHUr+lgfuroLP/92yT9s4+HInI4TuKnlLJ9gdvT6KhiQJnVkfdATgXiAblJC73fKlm9UhDakFfLnQE1Xkgi6Q5lUHqBrhdrWELwdhgHQd6w6U5ZclqFvRVTv4cmFrCX8LqV1RrRfgawnfUShewr5v2XY1YsG91vAdVYchIWwHdI2C7whC3y0mQkf4LkI4ECecdrww2QpwURN3vpHwHRUmU3HDYUeAOyBdmF82pWXYSvhOuGEgMH5uIXRvAFZtGh1rDXwnquQJ0omQpjpi5nCxQNe+MbE2wnciNE9yr2GNYdvkYNug5Wo9fGdgzJxxhLQ1NqwItF+vLsDWefiuhOrMJYHfAwHZz0Wq6i1+34l0Iz/v5LXhhU+p/g+0QSpQ20YgmwAAAABJRU5ErkJggg==;fontSize=12;fontFamily=Poppins;fontSource=https%3A%2F%2Ffonts.googleapis.com%2Fcss%3Ffamily%3DPoppins;labelPosition=right;align=left;" vertex="1" parent="1">
          <mxGeometry x="504" y="167.51" width="20" height="20" as="geometry" />
        </mxCell>
        <mxCell id="sZsfLgfr7TtL8EStAJE5-68" value="Kafka" style="shape=image;verticalLabelPosition=middle;labelBackgroundColor=none;verticalAlign=middle;aspect=fixed;imageAspect=0;image=data:image/png,iVBORw0KGgoAAAANSUhEUgAAAQAAAAEACAYAAABccqhmAAAACXBIWXMAAAsSAAALEgHS3X78AAAZUklEQVR42u2debSWxZHGS4JoxBU1QHCLCgbEgPuuI7gAgwoG4aDijg4RcHfihuMSg7iMK2rQEBR3jfsWDMR1BMVdA0YRXFBBNhGRRZx+7L4zNzcX7uV+1W93v/38zqm/OOfS3V9Vvd3V1VUiRJu1jexj5FQjI4w8Y2SSkS+NzDPyjZE5Rj4x8rqRB41cZeQYI+2NrMolJCQdVjHySyPnGHnRyEIjP1QgM4zca6SfkfW4vITESVMj/Y2MN/J9hUa/PMFu4Q4jezhHQwiJYIuPr/0Xnoy+Nllm5CUj3Yw04k9ASPE0dl/8zws0/NocwTgj2/LnIKQ4tjbyQkDDrymLjVxuZA3+NIT4A+fu37iz+A8RyptGtuHPRIg++LreFqnhV5f5Rvrw5yJEjw0j2/LXJUuNnC28KSCkYloaeSsh468eILyMToCQyr78KRp/dbmUToCQhp35X0rc+Kt2Aifz5ySk/iC55o4SGH+VLDHSlT8rIfVjcImMv0q+MrIZf1pCVkwHI9+W0AFAkDXYmD8xIbWDp7cTSmr8VTKQPzMhtTOw5MYPmSv2apMQUo1mRmZ6Nj687b/PyJlGeop91ruzkU5i3/sPNfK8kUWexzGCPzch/8zFnowNtQGeMtLdyGr1HEsLI6cZ+cjTmOBgtuJPTohlXSOzPRjaa0b2rGBcqztH8DV3AYT442QPX/3LV+KLXxetjbyqPMYFRn7Gn57kDpJ+3hbdt/nHehjnmkYeVXYCp/PnJ7mzvfKX/xiPY13dxRM0jyh8J0Cy5vei+/CmiHjFJEWHxWAgyRZ8/d5UMiZUA25S0Lh3dkcNjXHzoRDJFly3LRGdAhw7FTz24UoO4BGqAcmVg5WM6MEAY28lOm8WUM6c7wNIllyg5AD2CTT+20WnXsAmVAWSI/cqGNDHAb+gXZUcWBeqAsmRVxSM548Bx4/cAI0S5QOoCiRHPlUwnhMDz0Hj+fLFVAWSG0jTnadgPJ0Cz2O0whyGUx1IbqCbr0YUvX3geVytMIeRVAeSG2uJzrv70Jl0wxTmcBvVgeTGGko7gI6B53GdpB3IJCQIqP+nUQOgW+B53K8wh2upDiRHpioYzxkBx4+3DO8pzGEIVYHkiEbDzwcDjr+56DwKOoaqQHLkT6JTZbdpoPEfJTqZgHtSFUiOnKFkQEcEGv9Y0WkbxtJgJEv2UXIAqNf3k4LHvoPYgh6Vjv1DYVUgkilri14bsL4FjhsG+xelcY+iGpCcGadkSNML3Eprnf0h/agCJGdOUzSmJ8TmF/gEqcfzlMb7ndibBEKyZTPRKQtWJTd7jAdsamSK4lif5s9PiMgY0a23j8c1qymPsZ2y8RcdtyAkWg4R/dZbLxrZQmFsCPgdZmSO8vg+N/LTxH6nRi7OghuQHmIbsKCj8ylGTjJytNgejHifsb7wdoPUE5zbJ3twAvONnC/2tqEhbGPkMbF1+7THdn4CvwvKrO/mxvqk2EBrfa8+caybKjZTE3GeDlL8VS1JiGM8GFmVoO34Ve7LVVf9wHWM9HKGv9TTeGaJbYce61d+TxdL+VJxzsvcEepy51gJ+ZddwNsenUD1Mtz4ml3nvmy/FVuSC09yUd7r2wLG8J8Rrj+OI8cX9BtgF/GckZ7cFZDq7Cc62XUxy+TIzv7YER1n5KNA6/GGixswXkB+5LYSG//3zsnFwi5GJkawLsvcrmxLqj9B9HhaSR3ADZGsMbocXya6+RdaQduBLg5BMmZv0akXGJO8LrYMWmg2E51S5j4FNwfr0QzyZrD4uX4LITMi2d4iuv9lImv2Ho8EeYOg0DUlMP4FRvaKYD2RuPNtYmuHG5vtaQr5giuiUQkbPx77HBTBOvZK+EiFnIkdaQr5gmuqWxP98sdg/F2cI0r9CNWOppAviApfmlBMYKYLZIYG6bdzSxJHQeUkPp3OHBTP+CZyRUViS+sI1grXqf+Qct2k/FX813sgkYOCHK9LnEk+N4ltGR5DAPV+KWcuxYU0AYK3/v8l8US1sT3tGtH6HCXlzaZEH4ZdaAIEtDFyn4R7P4Dz9XkSri9BbTR3MYgyv6fAMasJ1Z9UsYNzBIuluCDfJUY2jHAtbi5oDRCL+buRZ8VWSH7eyAdS3I3DIKo9qckv3BnRR/BriVP2YyM559dGO89OENl56GO4k9T+ohGxBxRfQb8HvPv/1ONYkNG4DlWe1AYSiLYT+97/+QqUbLoLpp1oZOME5n2nJ2Ob4GIcK/t2H7GaI93OwMe4zqaqk7poXYGCbZ3Y7kc72w/b/JOk8qIdeAQ1VPRfH34m6dVVJAk5gJSyzy5VNi4UCOmgPMZuol9c9TCqOMndAayqfN6e7PHIg7z+WaKbHERI1g6gk3JwbQvP4/030bstQNCzFdWc5OwAtJ5Nowpyl4LGfKqi0+pPNSe5OgBcvU1SMqQRBY4bgcUXlMZ9P9Wc5OoAWopO/4KvjbQoeOxoOqKRxTldWF6cZOoADlT6il4baPcyVmHseCa+OVWd5OgAzlUyoA6Bxn+YkgM7mKpOcnQAIxWM530J15gD1X8XKszhdKo6ydEBaGyhbw08h/EKc7ieqk5ydADvKBjP4MBzGKEwh3uo6iQ3B4Btu0YXpZ6B53GewhyepKqT3BwAiqVOVzCeToHnMViYEkzoAII5gH0Dz+MUhTmMoaqTHGMAGm29eweew0UKc3iMqk5ydABvKBjPbwPPYbTCHO6gqpMcHcATCsZzb+A5vKcwh6uo6qQ22legVGjqGXuO+Y0KxoMmnKEabmwiOm8ZTqKqE7ChO9MiMWSiVNZJaJkzDlwxIeV2d7F17mJCI4IO6Rxo/KcojX9fqn6+tHKG8Jz474I7051ZD4rEGewl6T6pRePXd0WnjkELmkFeYGv+70YekXCtrz8XW/56y4DrgDLcGh2SULCz6AdBfZR+B5SBX4UmkQfoCHOM0pdDs10VvqDbBVoTrcIaSKZpVNCY1xKdK0zILTSL8tPIne3fj8jwa9uKwhFsVeC6bGDkRcU5nFLAmFdxRqs15l40j3LTwZ3vU+ldh4KXw9xXzif7G/lEeew4Tu3nedwDxQZYNcY73x2DSAlZXWyW2KKEjL+6TBE/0Wk02vhv0bk+q03miW3v5YNjRbdByF00k3KCbfSriRp+zWMBjFXrxqCjkbcKGDcCi0cpBtcQ8UffRu1Ozp1pKuWjt/sKlaml9f+ITXqpxIDOFJ3qOSuTB4EU25YV/p5tjYzzML43hcVASxfou8jDVyIWQS+7XRuwLpuKjdCHGvdcse3QWzXA8G8Sfy3D+9FkygOu9/5UUsOv2XDzoHquCbbfKJo5S+IJbj4t9qYAjmxD97s1dkecn7vYAbImX/IYo4CgEtKqNJvyBPseyMD4q0fa+9axJs3c9nuZxB3fWOB2CN8WuHPDmnSn2ZTny5+T8VdPHuqznDVBhZ6pGa5JfeUhYeZfac78ozJWZGypu9TYCQ3zvHVOXXAc2pimUw4uoUL/uH1GotM2Rl7jetS59e9LsykHfUsc7W/Io6IFXAfW/s+FrcU2o6RS+5clJZnHGImvFgNpAD8VnTp2lBULdlc3O2f7UeJzwdFoPZpOObiMxuldUMWoR7U1b5PwrQKy/X5GsykHO4i9/gp9d42qPqgngGSV541MMPKh2JdlqRs/CqTUlrqL9tmTEpsL0qc3oNmUA+RsvxxoKzzR3TgcYKS5LD9/fHX3tTxCbNfdLxIyFjivAbLigh7I3BuXyHxQqbgpzaY8HFmwAs0xcqXY0t4NTRpB0AkZZ09K3Hfz6K7btp5zauLWJdb5IEvyLCmuMhEpgNULDEThOu13YlNptY8viETHlJq72O1smjRgPl1Fp7Godn7/zjSX8jGgIAUaK7YRiC+wk+jrYgihjeUDI3tUOJ91jFwt/l7rrczx5Xz3oSAlY1WnrL4De0PEvkorAqSivhDIWJa5+MQ6ivNp687cRecMoLbBzcLU3lLTy7MS4RXaoQHmhXyGOws2mBnitwAm4iXDxaYn+76mxHXwJjSP8jPGs/F3CTg37Dj+WJDxIxDZqqB5ocgmyoE9KnpXozg2oX5fD+c8SQZs7nFbuTTQl782J/CQ+I2KD5Jwpa/WFFt3D2f0P4styz5/BcFQXLviBuZtZ/CnG9lFmMabJWd7NIwhEc0TX8x3PO5y1o/sd0WwroWLHWxvZCexxUoRgN1AWKmHOF7xZBTjCgz41ZcOotOiqzY5kqpEUmNj8ZNsskD8XvVVwgXiLyuOkKTwlfl3acRzRsMOHwlPX0nDkn0ICYaP6PicCM/DNTnBk+PbjipFUsJH996rEpg3rrg+9zD3gVQpkgrrin4/P1wvtUtk/pd7cAAjqVYkFXbwYACvSzqloHcU/UdDr1KtSCoc7sEB/C6h+eOK8jPl+c8W3q+TRPCRANQlsTW4z8MRiKWxSBIM96D8LRNbg3M8OMEOVC2SAneL/j1448TWwMcryE5ULZICjysr/t8TXIPdPDiAQ6haJAW0nwC/nOAabO3BAbAtFkmCscqK/0KCa/BLDw6gH1WLpMDTyoo/McE16OjBAfShapEUeFhZ8fHAJrV+8J09OIADqVokBUaJ/hPg1MpIHevBAexO1SIpcIUH5W+X2Bpc6WENWlO1SAoM9KD8Rye2Bs+Lfm3AtalaJAW6e3AAtyc0f7yG1C4P9nGCcRCSKVuK/ms4lJVOpXNMHw8OcAzViqQCylfN9mAEPROZ/2Me5j6MakVSwkcb6hS+ggjULfYw90OpUiQlLvFgBHgVuGvk8/6D+GmC0ooqRVLCRyIM5G8Sb+/49qJfCq2qbTYDgCQpUCJ7jicncFSE80XrrrGe5ns51YmkyH2eDGKWkc0im+upnuYK2YOqRFLk1x6NYrzbZcTAXka+8zTPTySuYii44dlIbE/AA8TWKEDxk4Pdse9XYkuX/YTqT5qKrebjywlghxG6UCYaZM7wOEd0Vx4q4brrbio2CxPBTbzKnCc2GFtX0BK/O7IhrzXSW1jPMFuu8WgckNESrm1WW/eF/qEAQaPVot5DoK37uUbeEL3+jgiOoq7DYCPNaRb50NZ9xXwaB0qQrRtg2z+jIOOvkvlGBoifWxDcMuxr5IkCfi+kSd8ptn8CyYCHCzCOSe5c6hucbU/zeOavjzxipIXinPZxX+dlBc/je+e8t6eJlJud63Fu1BAYJRqIrOlpHrjnHxfQ8KvLdLGPrioBLdwfKOi3qSvOMcLIBjSV8vJQgQqFc/lARUfQxsgt4ifJp9Iv6PUu2Lqy2/3jjcyNbD5waj1oKuWNBRS9bZ7hgpBIH17Z24L1xFbhLeJMXKm8LfVvH46aAvdEPBc4tesk3K0H8cgVARXrS7cLGeIMe2+xnXZQvhvNTHGn3d/I1UZeMrIwcqOvKRjvGbLi+/ctxKYVpzCf54RXh6VjLSNTEjOs1GSMO9vXBIG2zxOby2SxV5KkROCqaSkN1asgCad3jSDsrETnMk1sgRlSIq6kkXoXXOmNFFtJeGbic/lQbPoxKQmruXM2DbWYoFoZ5jFRWBS1VMCjf0oD/VGeSXiLXqTg9qIRTac8IBX068yV+lmxxU43MfJXGnmdMohmUy66Sdi02pCCxzbrV1sLPPs9S9K7gixS0CWqLc2mXKBuwKLMFPldIy2Xsx7bu3+nwS9/18R6AyUDBSW+zUSB31yB8VeB9N4bIg7i4ZYBJd/QuBUPsaYVfJw7giZTPvbJIBiGx0TNVmJN0BE4lgQe5Bfc4nZsSDZatZbbHdzZH2nkXiPfeBzLVEmvYSypB+3cF6WMxn+rNKy7EXYLjwYcN4ztRFn5R0d43XeuR6d+Es2lnKC4xwMlMnwcbX4jlZX2buT+xjcFjruqHFnTCn9P5PSPFv16Ax9I+JJwxBNVCj+/BOf9bRXXBY+XJha03d9PcdxwfnhspX3jczBNpdyg1dYzCRo+rvIuET8NTfE3h4m/Z8qIOWzj6ffsphzsfYQmksdu4DB3Fk0hB/9J96X2DcpwT1MePyL5vkt0oc/hUkVHy0pCmYA+AEiU+SJS43/RyP5SbBsvJBK9rOi8Di9o3L8XXgmSBoK6AicbeT8Co8eX7Al3Xg7Vv+8Vpbk8UOAccGX4ltK4R9Mk8gQR4C7i/865NvnIfcXaBF4D5BRoZFFiK71FwWPvIjo3A9OEj4SyZx2xpb5Gi5/EGQTckLuPa7HdJJ52XVpdmEcGGDt2GxMUxo5syY1pAqQKGCcejBwntmpuQ68SYfAXGTlI4u1mc7rS2X/XQOPvr+TAulHtyfKY3EClOiuBuf1BaQsd6nENHOtihTmcTDUnOTqApxWM5/bAc3hDYQ7XUM1Jjg5AI5J+euA5jFSYw11Uc5KjA5iqYDy9As/hAoU5PEE1J7k5AFx9TVcwns6B53GywhyeoZoTOgA6AEJ4BOARgJA8HMCbwiAgg4AkWwcwRngNyGtAkq0DuEWYCMREIJKtAzhTmArMVGCSrQM4QNJ+DDRe+BiI0AE0mA2UttB8DkzoABJ0AEDjJoAFQQgdQKIOYKiwJBgh2TqAXRSNiUVBCR1AYg4AV3j/UHQCPsuCdxWWBSd0AOqcK7ol0Hw0Bjle2BiE0AF4oYWRBaJfB5GtwUjSoIvOhw1UsAslreulG0W/GGpVc9AThM1BSSIgKWSQ2A49c6SyBBOU/x4htk33GpHPe1Pl83VNmenW4hBhe3ASGU2M9Bb7OMZXz7xZ7ivbMeJ1GOrR6GpeGcK5ThHbzh0G+XVB/zev/sj/ga/AQPelLkr5sDNAMc49I1yPtUW/X2Bs8qyEe7xEIgFn8z4VnO+1voIPS/juQDU50DmpMho/Ap1tqf55s7nolMPWEpy7z3fHkFi4qaQOYBDVP2/6GZkbqXK+7IJgMYCA5aslM/57hI9+sg7yDRf9u2QfgcLukazZL0SnaGgMMtHFN0iGoPHnXxJS1iUuMBkDO0a8Y6qvIM6zEc0gT9Y38kqCSrvMxQVWiWAN9zYyL1HjnxbRsYoUzLqJn2PhBM6NZC3R0vyrxNZvsgv4kgxBVtnYEpxdcR3XP5I1xfXZ+4ms23Ni3xCQDMG2+RYpT/R6kZFOkaxtM7FPaGN2mNe5DwDJlP4Sf7S/IW/sW0Wyvo1ckHJ+hGvUg+qfN20jVEwteUriusdGEdBHI3C2uDXBIyNW9smcxkZekHLnsZ8Q4XELpcXHS5jt/uPivwQZSYQTSm78VZV2YgxuYWeyv9ulLBH/qdPo5bcTVZ5UgWSfLzwr3lz3xUE32sPdlw/BuQOd87lWbMaZbwO4IfLfAkcD5DCg3LhW8c5Fbnc3WGw7MEL+iSHi7y4ez0dRiba+FW02dQbwmacxoS5eCvfbOB5sZuRod0afIDahqK6Xht+7nc6LYpt2Hiq80iMrADneMz0Y2rtuW9vQbLw1nSNY4GFsNyb6W6EKUEsj27kdVE9n4IjedzbSwX3hG1OtSX05ycNX/3rRKxm1tZG3lceImw5GvUn24Ov8hqJhLRU/xSJ9PEhiS2uSPR1F7x4af2eAx7Hijf04RQfwisTxWIiQYFyiaFBXFTBevE7UKkOGYBlfupGseV3JmF6T4vLH9xC9q0KWuCLZ0lzJkPAl3b3gsWs9VnqQakBy5UAlI3o0wNiRK7BQdB7AsMQ1yZILlBzAfoHGf5foBC43oSqQHLlbwYA+lXANIrsrObD9qQokRzRq/Y0KOP61RKcX339QFUiOfKpgPAMCz0GjZuHFVAWSG6jzr1GuunPgedwh5X8dSIg6TZW2z+0Dz+NqhTmMpDqQ3MD5eZGC8WwVeB7DFOZwG9WB5Aby6jWe2XYIPI/rFOZwK9WB5Aau7mYrGE/XwPO4T2EO11IdSI5MVTCe0wLP4R2FOQyhKpAc0agA/EDA8W9oZLHCHI6lKpAcGaVgPLNdPCEEh4tOJuDeVAWSI2cqGVCfQOPXqBCECkYsmEmypLOSA3hZiu+401F0SmZPEVYFIpmCOnsLlZxArwLHDYN9XGnco6kGJGeeVTKkj8WW6yqCvqJXx/AoqgBhHEBHHhL/xTWQeThb9LrltKQKkJzZXPTaT0Gu8RgP+LmR9xXH+gx/fkJ0S21Xdd3RLhLS2sgk5XH2409PiL3G0269NVb0Sm2h/dVXyuP7Uurfq5CQUoPaAB96cAJzjJwhDU8UamPkXtEL+FWXC/mzE/L/nCB+OvFCpottQLJNPeIDcBbdnOEv8jQeOCb2BSSkGqt5OGPXVoF3mtj3A5e53QH6850jtirP38S2v/7Bs5zHn5uQf6W7p+12TDKFZ39CamcVt/Uuq/F/744XhJDl0Nyd2cvoAEbw5yWkbrqIXvPNWASFQ9biT0tI/TinRMaP1OG2/EkJqT+4rru1BMb/nYTrXUhI0iCd9/6EjR/lwnrzZySk4SA/4J5Ev/x9+PMRorMTuD4h40emXxf+bITogRyBge7LGrPxI5uxPX8uQvywi+i+yddMM75dbJkzQohHcJ+OppyLIzF+tDn/tbC4JyGFsq3Yqjqh3g98Y2Qov/qEhI0NoLz4GLG59kUY/jy3A9mIy09IPPxKbE3AL8TPQ55XjQwy0oxLTUi8NHG7giuMvCYNvzmYZeRJsQ1I2/CMT0iarGtkVyPHia0MhBTjPxt5ysUQ0OTjbiPDjZxt5FCxuftNuHSkSP4X++MPoUBbrVkAAAAASUVORK5CYII=;labelPosition=right;align=left;fontFamily=Poppins;fontSource=https%3A%2F%2Ffonts.googleapis.com%2Fcss%3Ffamily%3DPoppins;" vertex="1" parent="1">
          <mxGeometry x="881" y="167.51" width="20" height="20" as="geometry" />
        </mxCell>
      </root>
    </mxGraphModel>
  </diagram>
  <diagram id="4QR0NWm2xJJscfL-qG_P" name="Page-2">
    <mxGraphModel dx="1426" dy="863" grid="1" gridSize="10" guides="1" tooltips="1" connect="1" arrows="1" fold="1" page="1" pageScale="1" pageWidth="827" pageHeight="1169" math="0" shadow="0">
      <root>
        <mxCell id="0" />
        <mxCell id="1" parent="0" />
        <mxCell id="25lFBpKABG4JQTpR2Emw-47" value="" style="rounded=1;whiteSpace=wrap;html=1;fillColor=#E6FFCC;strokeColor=none;" parent="1" vertex="1">
          <mxGeometry x="1110" y="677.5" width="100" height="160" as="geometry" />
        </mxCell>
        <mxCell id="25lFBpKABG4JQTpR2Emw-48" value="" style="rounded=1;whiteSpace=wrap;html=1;strokeColor=none;fillColor=#FFCC99;" parent="1" vertex="1">
          <mxGeometry x="720" y="844.5" width="100" height="160.5" as="geometry" />
        </mxCell>
        <mxCell id="25lFBpKABG4JQTpR2Emw-49" value="" style="rounded=1;whiteSpace=wrap;html=1;fillColor=#CCFFFF;strokeColor=none;fontStyle=1;fontColor=#D10000;" parent="1" vertex="1">
          <mxGeometry x="410" y="675" width="680" height="160" as="geometry" />
        </mxCell>
        <mxCell id="25lFBpKABG4JQTpR2Emw-50" value="" style="rounded=1;whiteSpace=wrap;html=1;fillColor=#E6FFCC;strokeColor=none;" parent="1" vertex="1">
          <mxGeometry x="230" y="675" width="160" height="160" as="geometry" />
        </mxCell>
        <mxCell id="25lFBpKABG4JQTpR2Emw-51" value="" style="rounded=1;whiteSpace=wrap;html=1;fillColor=#FFF2CC;strokeColor=none;" parent="1" vertex="1">
          <mxGeometry x="120" y="675" width="90" height="160" as="geometry" />
        </mxCell>
        <mxCell id="25lFBpKABG4JQTpR2Emw-52" value="BIOS" style="shape=image;verticalLabelPosition=middle;labelBackgroundColor=none;verticalAlign=middle;aspect=fixed;imageAspect=0;image=data:image/png,iVBORw0KGgoAAAANSUhEUgAAAQAAAAEACAYAAABccqhmAAAACXBIWXMAAAsSAAALEgHS3X78AAAgAElEQVR42u1dB5RV1dWeqGl/evmT2E2iMcYeK/4mFlSqikaaSFFQcAAVEBGkiCIgovRepfcyDH1geu+992HKm/7m9bb/cy5vzIDz7j33vjK37L3Wt5Llmhneu/d+3z1n732+HRSEgeGjAIAfEPyc4I8ENxLcQnAzwfUEvyH4EV4lDAzlEvz3BE8RvEOwmGAvQRRBEUEzgROEw0hQTZBKcIJgLcF0glcI7kaRwMCQB9l/TdCX4DOCUwT1EJiwEKQQbCB4i+BOArwhGBh+Jvy1BP8iWESQROAA+UQdwW6C0QR/wruFgeEb0v+QYCDBVvcSXglBtxmxBFNpjgHvIgaGeOL/k2ANQSMoO6gYRBC8SfAzvLMYGJ5J/1P3njoV1BltBKtozgDvNgbGf4lPM/fzCHSgjXARhBL8G+8+hpaJ/7/uhF5HwKjnMILLUg9OUzk4DYXg7Mgl/1sATmMxuMw14LK3Eno6AykG0QS98WnA0BLxaSPOXPeS2Mc7bhM42zPAXrsfrCWLwJI9HkwpA8EY+zAYwm8Dw4XrGXAjGKPuBlPis2DOeAOshTPBVrURHM0R4LI2+EsILhI8jE8HhpqJfw3BGIJan62lzdUc2S350whhnwHDxZsYSS4dxuj7wZw5BmwVq8HZlkI+hN2XW4OdBDfg04KhNvLfTxDnPUVs3JvYWjQHTHFP+J3sTIIQ+TdOEOy1e8jHa/KFENAt0YcE1+GTg6F04v/Evc+3e/NidLTEgiVvKlma3yUL0nsEWYGY0wZfFgO73lshSKflUHyKMJRKflrLz5NMe7LftpUvJ/v3R+VNek+I+AsRrfcvbxOkh43gU9oQhU8UhpL2+h+7H17xebyOPLDkvgeG8FuVSfxuYEruB/b6Y0TVJHcvJxD8FZ8uDLmTn9b0z0oifns6l3U3XLhBNcT/nhDE9SLbg71SE4ftBIPxKcOQK/kfIagUTXxjMViy3lQt6bsVgvgnwN4Q4k78i45vMEGIITfyDyMwiUvot3I19kCU7uQKc8qL3MpHQpynBib45GH0NPEp5oh7lbm42j1tttEq8a+sHNzICaHLIbohMp/gL/gUYvQU+a91m2KIaNypAnPaECR9d/0EsQ+Do+m8WBGgrYkP4dOIEWjy/4jggJgnlXvrR9yBZBeApWA6d2ZBZHLwKXwqMQJJ/hPMb32ytLXkTEByi0oSPgnOjhwxIkDzLy/g04khK/LTk3b0YUZSS0D4n8Fed1CMCJgJnsenVB1E+y1VdIJpBBsJzhFkuQ/StLkVn64TWwgqCJIJjrtLRNQR9zGCH/thz8+87Hc0nsElvw9gLfxETAOREX0GlEl46n3Xh2AZQY7UAnE37rVR7iz9A94417qz/cwJP3p8lma3kcA+KhdmjCAaYBDjPPQgskoZJbRH3cQKhOFloVsMbpTwWeewlvisRfOQtP7ICyQ9Dy4rs2kSXSnehiyTb/lsqNvauifC7l7KP8z4eYcxrUjIMpUefkGy+jc56LJcYr3PdCX5K2ScfIhPx1K95s0JOT9409G8wd08n/lhpg4/Sv6cYCRpQPoFHgGXibnjmg5MuRbZ1/Pkv9/t/ybHoCuClQS/vOoz/56tt98JltzJSM5AikDcY2JWAguRgT1bNvtC6tHYAAedh9fH/bmvYT3Vx/XzIyl7ZjtgbWRd6b2IbAw8+f/mrce9y2ABW04NmM9kg2FHLOhXhUH7klPQvjAU2hefBP3yc9CxJQpMx9LAmlgGjoZ2X2wLaClxNlO2v3w5krFHfQb6snYN0iTzzcjKwJF/kLtFU6TlnQOsSWWgXx0Gze9sg4a+X0NDn6Wi0DhkDbTNPwamExngbPSf4zY1uFDz2X3FlAgzx7D2CdAJRdcgO/1f2vsQ2MZQ/5dMpTrQrzwPuv+sEk14XhABaZ2+H8xhuZy4+Mx9W5/JdaohAWXSLFT8Geutm44s9W+Wf6kow7esamidccC3pPe0Mhi+DowHk8Fl8c7G2mVrvuyzj8STFS4bjDC1C/8d2eqfN/8q5jbZ6hZonX04IMS/Gk0jNoD5Yp7kFAHtSkPCybAyEHE7OA1FLDcxBrcCvheAxWzMd4JhTwLoBi7rEfJ3ReusQ+DUibOutlWuRbLJOSmY2Jvsz6wst/JtZK3vyD+Rad9MyNYyZU+PE/+KbcFrq8FewjbuymnIV5VTr2rzAUXzWG4nnWDyW2Sv9+TvTd/rgm/O7BouOy8n8nfCVljHJADW0iVIMEXgBnC0xLDc0lXIYO/IfyOBYCeGJapQFkv+bjHgG+bqgDlzJJJLMfbjj5PXkmAHN21OuxOZLI38tFMuTJA0F/Ogof838iQ/QXPwt8z7f2PMg0guJW0FShaw3NZDyGY/7fstccWyJj9F+zdnGMd06ZBUinMbvoWbucDQ+YnzB0WS/yYC3vQ53VfrXloha/JTmELYPOkdTReRUAo1EmGIY8hqcQKwizdb3maCpjc2yJ78XAIwr5at/FexAgmlUDiaI1lWAfcgs9nI/5CQOUbb3COKID/dnrB2BVqy30YyKdZJqC+Ln8t2ZDebAITyJv3OZiuD/DQBOH47u+d0XC8kk5JXAbrTLP6Rf0KG85P/Pj4pdbabuMYapQhA+1en2RKA9nY89af4VUAflls9F1nOLwDb+K6efs0FxZCfwniUzarA0RqHJNJGLqAa7cM8k/83fN54jvp20A1YpigBoEYjbBbfG5BA2qkI9EO2dy8AE9T09m/o9zW4TGwuZej3p54WYaepTOh270e2dy8A4Xy2XbqXVyhKAJrGbWVPACY8jeRRjXHIfJYZg79Axl9J/t/xHfgxhWYo6+1PE4BfnmS0/jGD4eJNSB61eAZE30uzukJ3fQSy/koBGMZ3tVqm7VOcABgPp7Dxvz0ViaO2ZGDjOaHbfhhZf6UArPfc9Wfk9tNKEwBbZhWbV2HNt0galYEOcBGIDl8PllW6AGTxnvZTGPmpUSjNWzAlAPM/RNKobRsQeQd5cwne/xeQ+ZfJ/xP35Jzus/8rzytOAJre2sKeAEzqi6RR4zagSfAk+1fI/ssC8CDvtIVJO5WXAFx4gtH/0w6G8NuQMGqsBhTMFLr7acj+ywLwmmeCuED34nLlJQAPsA0ldnbkIllU6xjUS7ABFCcLXxaAaR4J0qhX3v6fwJrONlnWXrsfyaJiuMyCnaB9UAB47L5t+bWKFACX3sxmAlo4G4mi5kEidYfwcBCDAGz0SJCkMuUlAEdvYk4AmlMHIVFUnQf4GJ2CGARgh8cSWXSh4gSg7fMQRvo7wRhxBxJF7ZOF+aMcBQBgj0cBiCxQXgJwXwIb/Y2lSBK1I/w2obZg6n3xc1wBeBKA2GLlJQBTykWM/kaSqB0MswQf0roAbPCYA8ioUpwAUMNSpgRgyQIkiBYSgTrBQ2FDsQrg6S1Z0aSsBOAbG9gTgOlDkSAagK1ijdCjMEPrAvCBxw2S0aqsBOD8Y+xTgKLuRoJoohIwQ+hRWI2dgDzR+Pp6xQiAYXc8WwewuQbJoRWbsMyReDRYQADu57s6rbMPKycBmFjKZgLaeAbJgaXAzojWugD8lO80oGFXnHISgM0GNhPQsqVIDq0cDY59ROhxyMVeAIBsj2TJrlYE+elWhTkBmDkayaEZb4C/CT0ONSgAAJ77Zx1ORQwDoePK2MeAP4Tk0MwE4ZuEHocWFAAA3kyJfsU5+ScAd8SyJQBtTUgKjQGcvPbwZhQAgOuFpis6LrWC+XwO6JedhaaxW2UnAJb4ErYEYHMEkkJrAuDgbQ6zBWFwIpACIoJ23NFW4Y6NEdDy/m5uEm+PJgAbOxjHgK9CUmhOAIy8XeHI/ssC8Bl4ES6LjWsdprX41lmHQDdoZeASgEPXMn9OS/Z4JIXmtgC8/hBWLZP+x3RIAsE57nysL8PpBHtxPZiOpULbFyegcfg6vwlA6yeH2U1A459AUmhNAFy8j3aHFon/B4LPCRoggOGvPIJhewyjB6gex4Br7kjwn4UeC52WiP9Hgq/5pgAHMq7II7y3S3IewRJTxCZArQlICM2NCrtf6LEo1QLx/4dgNq3ogYzjijzCzIPMeQQ6upxtDPgmJIXWWoETnhZ6LFLVTv6B1PoIlBhd8wgLQrrNIzQOXsOeAMx7D0mhtcNAaa8JPRZn1Ur83/HZfSk1rs4j0JUCcwIw8VkkhdbmBOZOEnosdqqR/L0JaqUQrKGpA3YeToP5y8Pg6NlcqCSEk/W2weZgXE1YwHDxZiSF1vwAShcLPRlfqon41xDME1vSc7lcEJNcAZPmHIcH+q6Ae55fdgWeGrIB3vs0BLYfTIHMvFqw2R3K2020pyMhtGgJVrtX6NGYqBby/5wgRNRy2umCE2H58PK4b79Hej488uJqePPDg7BiayxEJ5VDh9EqewGwX9qJhNCiKWhbstCj0V8N5L+RIF0MISLiSwnxd4givifc12c5vDp+J3y+8gKEXsiH2gb5FRusBR8hITSHG8BlF6wQ3aF08t8hJstfVdsG42ce9Qnx+fDc65th+henYF9IJhSU6MDpdPWoAJiS+yMhtNYDEPeYYGGI4Dolk/9O1mQf3efvPJLGLd/9Tf7u8PigNUR4jsCG3YmQlFENZos9oAJgjL4XSaEl8kfdA872VKHHIlPJ5P8rK/mbW43wzsdHeoT4nvBAvxUwfPJe+Gp9JITFlEBTi9G/W4Diz5AYWmn+if8/cJnKmN6LBBcJhhP8SGnn95m+YUZeLTw7fJOsyN8d7iUYMGYbzFpyFo6cyYHSymayavFll2EdGMJvRYKovfEnZSBn+iIh6Mt0JsGv5U7+n7Ge3acJuYcGrJI9+T3hyf+sg0lzj8O2AymQkVsLNpt35UdL/lQkiZrJnzVW6OgvS7QRzCf4lRzJ/wOCQyzfYvvBVLj3heWKJX93oGI2auoBWL4lBqISy6FdL+5mO43FYLh4I5JFjQ0/RXOEjv2KjUbaIyCrJKF7iSIY63YmqIr4HrcNROAGvb0DEtOr2B2Bs95CwqjK9PNGsFWt92f6KIuglxzI/ySff39nbN6XpAnyd8UbH+wXcQQ5BUmjovHf9obQgDSSEqykp2p7ivy/JKgU+pSHTmVrjvydSM2uYV8FpL6C5FF8me8f4GhLCnQ7SQHBgz0hAFuFPllsSkW3ffxaQfBs9sGgjqYwJJGiG3weB6exRBKDWwx6GLp8AXy0exMUXKqWlEsmmBBI8j8LApbd9MTeE6+u0yz5L+cDlkFROWv5x4VHgxU7668/uKyNkshfrquHJ+a8B398ZzCHP40fAq+vXAhJJYVS/txmv/cO0H+AgPfTWa0OGPzubk2TvxMzvzzDfjio7hASSnGTfscIefx7jJSyIvjHtLHfkf9qjFi1iKwIqsT+2XCC3/hTAD4UPMy8LgLJ36W78FJDO+MiwM4NjkRiKaTMVziL3DNpfSCn0pPgtklveCR/J26cMAxm79sGerNJbJXgen+Q/zcEvG4ctKdebbV+b7FoTTjznbNVbUZyKeBEn61yjeSs3aYLp+D6CUMFyd8VD8yYAGHZaWL+mWKCm3wtAIt4MxFWO9c6i6T/vldBazujgjuMYIy6G0km2zLfrWBvOC6tbudywdwD34oiflf8iYAmCs02qxgRuN5X5P8tCDj4rt+VgIT3gLU74tlXAWVLkWiyLPPdxdm4S0rT22zw1vqlksnfFb0/nw4VjczjM7J9khMgf2SukG9fTx3rVcYZgvVgMtsYPQWbwRDxVySdnMgf+yg4DUWSyN/coYeBX872Cfk7cdfUtyC+KE9MYvBH3mb+6/j+BWrYiUTnx66j7AZJ1sLZSDy5lPmS+oLLqpNE/rKGOnh89mSfkr8TNwe/DsdT4lg/Cu3bkSwAw/n+8qUGPTzYbwWSXADPj9gMdgfb4RCXuRodg+VQ5ssYKTTJ12Mklxbylvl8AZpM3Bt7kfUjBUsVgDC+v7pwdTgSnBEh5/PY9425k5CEPenfX/CR5DJfaFoC3DpxhF/J/50IjB8C++MiWDsG/ymW/DfxWXrrOyzw6Eu492fFK2/vZDYVcXbk4eDQnirzVayUXObbGHaSkHJoQMjfiRvISoD2FjBEoagDROSHp/L9td3H0pHYIhGZUMb8MJkzRiAhA13mqz8iucw3e/+2gBK/K+iKI628mOWjrhQjANF8f+m1CbuQ1CIxasoB9kNCrXFIykBl+iP/Do6WWGkOz1YrvLnuqx4jfyfum/4O1Le1sBwl7sVC/t/TZ9DTXympaEJCS0R6ziUR9uEDkKB+L/M9DE6DpAM40NTRDv0Xzepx8nfipSVzwO4UzF1kCToLkR8Ygi4//sHkuezdZA7dKSSpX8t8L4DLWi+J/KUNtX4r83mDL4/v974qQDnO99tDgvcgmb2wDiupaGY2f7EWzydL1L8hYX1e5hsBLkeH5DIfbciRG/k7k4IM+QDa3PALPgHI9Ghi0GaC+/DQj1f4ZMlZcTbidj3YKlaDMeZBJK8vynz507gTmFLiRGp8wMp8UvHU/GlgdwhuBebyDfb0+Nvno4uRxF6CNk/pmgwS0s1WbsKsKeFpJLLUMl/5MsllvvXnT3C1dzmTvxNrzwnO5qUZw192JwCP8/3WVxsikcReYvHaCG48mhejRcDRdB7Mqa8iqZnLfLeAve6gtDKf0wmz9m1VBPE7cfv7o6FRL+hHMb07ARjL9xt0FDeSWLpV2Ka9vjWPdLangSX7bZwxwFvmuxMczVGSy3xj1i5RFPk7QQ1FBKLyexUB8h8W8/0GnZCDZBaP+/uugKNnc/1mEesyVYC14GPypvszkr4r+WP+CU5DvrRpHPo26CejMp9Y3DLxdahrFUw4D7paADzWEdr0ZiSzBDw8cBVExJcGxCuaHim2li3lJtJqvsyX+Bw3h1FKlNTXwmOfTFIs+Tsx/9BOwbwmcwdgblEDElok/u/VddwswYCH0wS26m1giuulzTJf+lCueiIlEovzZVvmE4s73h8NRgvv2DpaDvlDVwHw6H4QTt5iSGp2PDdiMzdZuEfD5QB7QwhnYa2ZMl/eB5LLfCEpcdzSWQ3k78SOqPNCX/vdrgLg0XOI7mGR2GwYNG4H1On0IKeg5wvMmSNVfdKQ2qpJDVo6U0qZTwz6L54l9NXPdRUAjy6WO4+kIbkZMPKD/Vy+REocqi6DYfFhcKSmHMwOh392B4YC8pacwp2AU89gzlvAXrtPmjA6nTBz7xbVEb8r6CASPiOq7zoDgWfo55b9yUhwAUyacxzMFmnLz42lefDkxePfYUD0adhclg+tNot/dgeWOrCWLFB8q7Ex8g5wNEdIugZGqwVGrflS1eSnWHVGcFzdwE4B8NihQmvYSHLPmPv1OXA4xM+Fd7hcsCg//Qryd0XviFD4qiADqo0GP6UJOsBWuY4rmSmvzPcgODuklVd17W3Qd+FM1ZO/86SgQHzdKQAezce3HUhBonvAiq3SzpNbnA6YkZXokfxd8e/wEJiVnQTZbX5KLLrsYK87oJhZhabEZ8BlrpH0VYvrLsGjsyZpgvzcpKF3h0EH/5ShuE4B8Ji52huSiWS/Cvf1Wc65I0mJdpsV3k2NZiL/1aC/F9VYR5ZrLn8oATiaLoA57TX5lvnSBhO9apf07RKK8+HvU97UDPk7cYF/whBNWv2QCoDHOcWhF/KR9F3wz/4r4UyENDOJBosJ3ki8KIn8XTE84QIcv1TBrST8kjDUZ4AlZwIYLt4knzJf7mTa8STp+xxLjlVdmY8VS0IEvQLuCXI7hnQb8WmVSHw3Hnt5DbkeVZIewjKDHl6NPec1+bvixZgzsL28ENrYx0eJbDWuBGvhJz0+uMRauhhA4qpnzdnj3BhuLZKf4o1Vi4Qu0TAqAB4Pq9OmFiT/MnhqyAbIK26Q9BBmkv17v6hTPiV/VzwXGQrfFGbBJZPRP0Jga+aO1Bqj7w1wme9msF/aJbnMN2P3Js0SvxMPzQwWulSzqQBs9Ziwsto1PwG43+htUHWpVdKDGE327DSj7y/yX50wnJOTDHntreCfvYEZ7DU7wBT3hP8z/RG3czkJSWU+iwVGrv5S8+TvnCNAZxXyxBYqAJ/w/UTfUVs1S/7BwbuhqUXamzWE7NOfIqQMBPmvxqS0GIhtqvdLuhBcTrDrToIpZaCfynwPgFOfJS3PQsTvhS8+RvJ3Aa1+8MRpKgCD+X5i8rwQTZJ/3EeHwWCUtr+me/OeIP7VoEnH0NpKsDmdflkUONoSwZw52metxqaEp7hRadLKfDXwyKyJSPqrEFOQw3fZ0qgA3MX3Ext2J2qO/B8uOAk2m/gsOx0Y8TXZj8uB/F3xcsxZ2FlRBHq7zT+7A0MRWPKngiH8NullvtRXwWVvk/TvxxXlwp0fvImE7wYhKbzj6kupAFxL4NEuNTGjWlPkX7QmXJJ9F33Lzs5Olh35u+KFyJOwsjgb6vkbRKTvDqwNYC1ZyA3eEFXmywnm/A+lxNGkGLgl+HUkuwfsjubNpeg6m4HC+RKBDw1YpQn7ro17pNl3dZA36+S0WFmTvytobmJ+bgoU6tv8IwS01bhqAzeEQ7DMV/KF5DLfytNHNV3mY8HW8DN8l7CtUwA+5/upCbOOqt6+68jpHEkPYZPVDGOSwhVD/qvxQXocJDQ3gH+UwA72+sNgSuzdTZnvJrDVfCu5zPfR7o1IcAZsunCK993VKQDP8v3U/hPqbQmm9l3hEu27qowdMDjuvGLJ3xWjiYidqasGu8tPrcbNkWBOH3KZ/BF/BUfjeUl/yWAxw4hVi5DcjNgWwTuTorVTAH7MdyaAlsLu76O+fgBq35Wee0nSg0jr7QOjT6uC/F1BOxb3VpWAwW73y6LAqc/mIL3MNwOJLQL74sL5LmldV2OQw1raBjz3+mZu6KmUSCRL5ucjT6qO/F3RJ+oUrCnJBZ3FDHKIwtpqeHhmMJJaJE6l8+a1CrsKwHC+nzynoglBL4/7VrJ915n6ang6/ISqyd8Vz0ScgAV5aVBqaO8x8scV0jLfGCS0BNC5hjwRf/WIMI8OFNT4ovfrmxRP/je8sO+iS+N/aYT4V4N+7w8z4yGlRRdQ8h9KjIabg4cjmSWiprmR7/IeudoifDvfT287qGyDkIlzjkmy76JpsdXFOZokfncYmxwJ5xtqOGcjfwaW+bwfFOLkv0crrxaAJ3kzsEarYicFzZFo32V3OeGz3FQkfjd4Le48HKwuBZPDtwlDu9MB03ZuQBJ7iafnTxO61O9fLQAUvDYiW/Ypzyh0+ZYYkPKyog/21Ix4JLsA6HHnDaV50Gz13swUy3y+w8Stq4Qud9/uhoWO5PsNC1lCPz9iszLsu15YDruOSrPvos6848hSFwnOjmcjTsDi/HSoMHZIFoCP92xG8voImy+eFrrcN3QnANcRlPOeIYwolD35H+y3kvucUqLWbOSst5DU0hOG1Pg0o1V8mTWnulyVwzp6AlmVZbw9AHTF322AwMhwGuNnHpG5fVelJPIXdbRxp+eQyL7BOylREK67JJSMuvLZ2rQcCewl6KxDgWt+NMhTuFcBBbxvyQY9RzQ52nfRoaZSIq21EfpEnUTi+gF0DgJrlNbXcrbWSGTpeHfzCqHLPDWIL8gPDBD6C8fP58nLvmvUVsn2XRcbLnF7WCSr/yzLyg3szVdTd6xHInuB4ylxQpf4/iChID90UuivfLLkrDzsu96Vbt91uKaMe0CRqP7FJ9nsx61rWpo0a+ftLf4yeSSY+CsydLrKD1gE4M/UZ5HvL9HGGkq+niT/2OmHJNt3bSzNR3IGMDmYr2dfoc3Zvx0JLQGTt60WurTrg1iD2gIK/TXaV//ssE2Ksu+iXWyLeebzIfyDKRlxzPeoUd/Ovc2Q1OKQVFIgdGl7ixGAawjCBE9rlTVCr1fWBpT8C1eHg9MpvsOHTtX5mHE+H8L3SG1tZL5Xi4/vQ1KLwPMLZghWuakNYJCYIL9wPfUPE/rLmXm1AakMXLbvSpS05PdmPh/CNxifEsV+v0xGuHMKGn6y4khitNAlXRQkJeiygbZps4jAE35cCXhj30Xn8430wXw+hPegQ1NYg866R3ILo9ec9zi7ND4/FoLbg6QGrc4wmTeQ7UDv4Zv8Y98VJ82+yx/z+RDSMSoxnLk5iGa075v+DpJcAEeTBEfWhwZ5E+7DQutZblq9rgOGBPuuOvDEq+sgLUeafVdWWzP0jz6FxJMZztazDwGh7rZIcs/ou3Ami539M0HeBlyeI3CU5abREuHspee8Jj81IpFq3xUTwPl8CHEYGh/GHbdmCZvdjpN/eGYAppYVCV3CeI+9/xJE4CfAM1X4e+uOsHzoNUhaXuClsdLtu07UVvbYfD4EG47WlDPfz/1xEUj4bjBjz2aWy/dCkC+D/MGfihGBugY9BM8+Jor8I97fJ9m+69uKQiSYAjAo9ixXlmXq3XA64V/zpiDpu+DhmROhQ3jS04Ugf4TbTvyQGGKGxRRDn5Fb/GbfRRNL38hwPh/CM3ZXFjPf39C0BCS+GzdMGArxRXmCuknwQJC/wp0TWCGGpLRzb+eRNHh66MZuyU/zBnYJ9l10Pt+cnGQklcLQP/o0N16NyZ+RCDyOAL+MZScPs1yydUGBCDo6gHJQDGHpG37P8QzoP2ab1/ZddJDF5PRYJJRCsaksn/leh+dmaJ78Y9Z+xZL1p11/vw4KVJB/7AmCKtGuu+SLxKdWcseLpQSdz/dmUgQSScGgg1ZaRHgKvrJ0nmbJ3/vzjzjvRIYYFBToIP/o71jLhL6IKqNBNfP5tI4VRewjw+iBFy2S/9FZk6C+rYXlEm0P6qlwNwyNImj2J/np0dKB0WeQPCoyFa0Xzmh/F29ozD34wRkToLKRye2KmmH+Iqing3yIPxLsBKkD4HlCC/P50DpMYPXXpIOlJw7C0OUL4K/vjVR5uS8YKhrrWS4L9e+4L0hOQT5QL4IEX5H/nMbm82kJtHGrUk6qQ5MAAA3jSURBVIKtOO0RyK4qhy3hp2H8pmVw/0fjVTXgo7aVaTFNX7TDguQY1IKI4CWCVG/Ir+X5fFrBnOxkn7woqpt13GzBj3Zv4kikRLvxYSu+4I5EM8a8ILmHWwj6u7sImbcGOJ9PW9ZhBfo2n+eMWsnKIiw7DRYe3QODls6DWyeOkC3x6UzEBUd2Cx3v7RqbmXz+ZCYGdxF8LZQspAdGPs/D+XxawrSMeL9XkKx2Ozc+e83ZEBi9dgn8Y9pYWZD/ng/HcUIlIg6KdvmRmRAc8kx+F87n0yhafDBrUGw/SlFdDeyNvQhTvl0Hj8+eHHDyv7NxGTR1tIsytSb4YZCSw1228DipB8mgzYGjcogmfTucSk+CTw/ugH6LZvptYAl187mQI3qOJa2wXad08v+Iz2rsdF0VEkKDmJwWC3IMs9UKcYW5XB8+TdDd8f5or5f7my6c4vwORMZX1LA3SOlBvsSdvAbmpXlICA1iZXEOKCHo6dPc6grOsYiO43ro43eZiE9/bv35UDCK3+bQARjjg9QS5Mv04fu2dJoMEkJ7oCs/pUZ1cyMcTYrhRp0/89mHcP34od8d36VNSydSE8DudEj509QT78kgNQX5QuP4vvFbyXjIR4soYUyE1bSlQpOxBFy+bzb1WehNRojMy4K6Vq86408T/CFIbUG+1Fy+bz0w+jQSQoNnAuyMZ8L3po+ENXH/gs1J/SA0bzqk1OyA2vZMcDitoJIwEAQrrsYvQgBW8dX/setPexibHMnEDLvTDGvjn+YE4GqsT3gWDmcHQ1zFOihviQWLXa9E8tPhvLcFqTnIF9zj6ds3WsxICA1iMeOBoHp9Trfk7w5r4/4NezNGQUTpUijUnQW9pV7OxKdl8RfBVy6+MhcAjyPI6TAPJIT2cLi6jIkl2XVHmQWgO3yb8h84V/Qp+TtH3HkEZ08Tnw5KGK/4xh6RAuBxvZfd1oyE0CAy29iSZeElX3olAFejB/MIuQRjaU9MkNaCmrt4uiopLY1ICM0dBAoBo4OtKeZA5jifCkCA8wi0AWA/wXOqTfAxCoDHDV98UwOSQmMYFh/GxB6ny84R1J8C4Oc8wpEgDE4AMj1dodimeiSF1rwActi8ABoNxQElvx/yCNT77GcoADwrgDgUAM1hR0URE3vyG07KQgD48ghtZsHhpwNQAAA8Sn5Ssw5JoTHEN7Etq6PKlstSALriVMEsoa+xHAUAINrT1cnEKoDmQGc8MG2gs4NlLwAbEnpzzUo8kYoCAHDG09Up7mhHUmgIL8WcYbSHc8LGxBdkLwAUFS1xvM2MBD/RugDs89jpZTYhMTSEqYw2YK2mSkWQnyKuYq3Q13lE6wLg8QrRsdFIDO1gXQnbaLiixjDFCMCxnPeEvs4orQvAPL6r0zfqFJJDIwhrqGESAPpWVYoAbEkeKPR1PtO6ALzDK4+J4UgOjYB1IMjx3CmKEQAKi533e23VugD05bs6M7ISkRyamA4cytlrscSWpIGKEoBmI+/hplCtCwCvJ+AqHAaiCUxIjWZz17HUK4r8FLXtGXxfKVbrAkBdgT0apJ2orUSCaABfF2YyCUBZc5TiBKCyNQF7AQREwONcgLz2ViSIBhByqYJJABKrtihOACpaeC3OM1EALk836d4D2engJsYiSdSNPH0rm0dW/gzFCUBVaxLfV0pGAQCYg87A2h4JbmG0yd6e8oriBKBOzzvjIAoFAKAf3xX6pigLiaJijEy8yHZ+1taiOPJTCJwKPIYCAPA74BkVfrHhEhJFxfgsN5VJAGgyTWnkpyYiAtZiG4MwOBHI9XSF2mxW+DfmAVSLvVUlTAKQWrNTcQKwI3Ww0NeahewXOBNA4+2USCSLSpHSomMSgDOFcxUnAKcKZgp9rSHI/ssC8B++q7StvBDJolLQFR5L7EobpjgBSK3ZJfS17kL2XxaAX/ONCS81oDeAGvGfuHNsI3EdBm4/rTQBqO/I5W1sJLgW2f9fEYjgu1ojEi4gaVQGetaDaSxue7riyL81+UVwuXhNQs8h668UgCm4DdAWNpcVMAlARu0BxQlAROlXQl9rJrL+SgG4la8cWGs2coMjkDjqQaSulkkAwooXKO8QkD5L6Gs9gKz/vgjwNk5PyYhD4qgIVNSZxoBnjFIU+ennFYhSTU8E4hGAd/muGn1jIHHUgX5Rp4DFAcDutMA6D2PA5Yp83Smhr7UQ2d69APyGwKOXssPlgtfiziOBVIDJabFsY8A7chVF/p1pQ7nRZbzGxgB3INs9i8BOvqu3v6oUCaQCrCzOZhKAnPpjihIAaloqlNJAlvMLwBO8h0IcdhgQfRpJpHCcrqtiGwNeukQx5D+aM4kvj90Z/ZDl/ALAOzKMBp0hhyRSNujgF5Y4mPW2Isi/IeE5aDUJiloqJv/YROB1vqtIZ8i/GHMGiaRQPBNxAuwu4Um6l8eA91aEAGTVHWbRMxwIyigA11ELON43QzXmApQKavLCEnTkthLIf7ZwHsvXOU9XtxjsIsA7M4C+QYZje7AisSg/nW0MuO6U7Ml/IHOc0BBQ7jgDwT+Q1eIEgDoGl/NdVTpOGgmlPByqLmMSgOjyFbIm/+6018Foa2b5KvOR0dJEQLCl6pPsJCSVwpDZ1sQ2BjxnomzJvyttOHRYG1i+Rgp9mSGbpQnAtfQsCO8+0WrmusqQWMrAvwhoEld4DLgLNiX2ke2yn/HNT0sdf0MmeycCzwldZRwgohwMiw9jevu3W2plm/CzOU0sX4E2BLyCDPaNCBwSutof4xxBRYB2crIGTQJulMkqgJYjGUt9eNzXDwJwCwHvmNVWmxVejjmLJJMxpmXEgwvEBV0JnMib1uMdfq2mSjEfew2W/HwvAu8LZltaGtFBWKZ4JfYcJ9JSg84F3J0+IrAHe1KHQFHjeZb23itGfhNcg4z1vQBcI+QXwJlHVhYj4WTY+Zfd1gzehtPlgALdGdiXMcbP5/lHQl5DqNCpPk9vfiS/H0XgDgKDUOZldnYyEk+Bwz/FRG17JlwsWQxbkgb4hPT074SXfCk0zpvvsZuFy/7AiMB4obthdjhwloBMsKo4h4VAOr4x8UKrgkuEtElVWyEkbypsTX6JifDbU16F0PzpkFL9LdTps8DlckjVIj1m+wMrAExVgWarBQajeUiPgjZpOV2C+2cLwUMEz1IDYF+sDiz2Du4cQXVbCpQ1R0NpcwSUt8Ry7sItpnKwOUy+WoikYJ2/Z0TgVwTFQnenytgBL+GpwR7Be+mxYHU6WUg0qct9/a2QIYxMwkbbe7HDr2dF4D6h0iCNko526I8GIgHFhNRozriFIXZ0t28m/+15agYkU/JfILgbGSgPERjMUqMp0LeiCASQ/AY7E/npVJCf8txbeiT8bbqQkwnx0whexESf/ERgNsvdo+PFcDvgf6NPI9ubn5L6esb7S0+FjhY6E+KncLnf+APRyUfeScFNTE+dsQOGxGNi0B+YlZ1E9vxMmfRWgnsk3udeBOvdVQN/Bq1bfklwJzJMGSJAl4vHWe5si9UC76REIWl9iGVFWSzZfs7TleDfPrrfzxAsJkhwG254E/RzhbtXkw/h216ZIvATarnMcrdpn8CcHGwW8hZPh4fAkZpyVpJRkvb3073/KcGjBG8RLKINoW4LrmR3MpEOIcxyiwWd2rGNYJ7be/Jegh8ig9QhAj9zKznT5m53ZTE8hWcHJIHmU9Jbm1jJT8tmg/AJxQiECPwP60qA82luaYRBsXiKUAzeT4+FJquFuS8HyY8RaBH4McEx1ie0zWblklhIboElf8QJ2FVZxLrfB/e5jRfwicToqcTgRjGZoNDaSuiL9mIerbxLGId5dOnvfxSfRIyeLhHOEnOgu9FixgRhFzwfeRL2VBZzg1lFRCHB7fgEYshFCF5jaRvuGknNOhih4bkD1Lzz09wUaLCIPjhzjk55xqcOQ24icK/7zcQc9K1Hy1xaSxIGp8ZATnuLlK452jxzLT5tGHIVAXqK8IDYJ5ueattXVaL6eYTvpkZDQnODlEYaavfzMj5hGErJC4wVuyXg6llOBxyuLuOsrdVCeuqhOCMrQUxN/3sTvKlpKz5ZGEoTgtsJoqS50LggpqkePspMUKwJ6cDo07C6OAeqTQapxKcD8T5EDzwMJYsANRqd7J7gIilo1WBnRRGMTgqXPel7R4RyLj2RulqwsZl1eIpIdMLBUJMQ3Eiw19sjZPS0IXUlDiZ7abm0GNM3/We5qXCh4RLrUV2h2v4YPCyDoVYheIp2B/viPKnBboPoxjpumT0hNQqejTgREMLTigV9y9OkZaG+TfQgDp523q9pEhWfEgwtbAvoKbESXx4wt7ucXCfdufpq2FCaxzUbjUuO5A7ViM0j0KU8TUTSnvwlBRmwl5CdZu/poFQfh8N9su7P+GRgaE0IrnMvd4v8bTtD+w2oT0El2ULk61sho7WJO6SU3KKDNPL/s9taOPGoMxt9sYxn0is38e/CJwFD60Jwrdt7MBbUH9TjfiW+8TEwuhcDajqxRWg6kQIj210N+SXeZQwMYSH4pbuZ6CJtC1Ao6XXuWXaPodMtBoZ0MfgTQTDBWXe2XM5R5Sb9czTHgXcPA8O3YvBzggEEywnSpc6782HQ/t4QginUiRff9BgYgRWEXxD0JphOsIcg04+rhDq3FdoygpEEf8eGHQwM+YkC7TO4leBpglEEHxN8Q7DdbWNG3Wyj3Q62Ce7qQwTBSYL9BOsIPieYSL32CB7E5B2GlPh/uOrJxQv7X3wAAAAASUVORK5CYII=;align=left;fontFamily=Poppins;labelPosition=right;fontStyle=0;fontSource=https%3A%2F%2Ffonts.googleapis.com%2Fcss%3Ffamily%3DPoppins;" parent="1" vertex="1">
          <mxGeometry x="140.61333333333334" y="684.84" width="15.333333333333336" height="15.333333333333336" as="geometry" />
        </mxCell>
        <mxCell id="25lFBpKABG4JQTpR2Emw-53" value="Kafka" style="shape=image;verticalLabelPosition=middle;labelBackgroundColor=none;verticalAlign=middle;aspect=fixed;imageAspect=0;image=data:image/png,iVBORw0KGgoAAAANSUhEUgAAAQAAAAEACAYAAABccqhmAAAACXBIWXMAAAsSAAALEgHS3X78AAAZUklEQVR42u2debSWxZHGS4JoxBU1QHCLCgbEgPuuI7gAgwoG4aDijg4RcHfihuMSg7iMK2rQEBR3jfsWDMR1BMVdA0YRXFBBNhGRRZx+7L4zNzcX7uV+1W93v/38zqm/OOfS3V9Vvd3V1VUiRJu1jexj5FQjI4w8Y2SSkS+NzDPyjZE5Rj4x8rqRB41cZeQYI+2NrMolJCQdVjHySyPnGHnRyEIjP1QgM4zca6SfkfW4vITESVMj/Y2MN/J9hUa/PMFu4Q4jezhHQwiJYIuPr/0Xnoy+Nllm5CUj3Yw04k9ASPE0dl/8zws0/NocwTgj2/LnIKQ4tjbyQkDDrymLjVxuZA3+NIT4A+fu37iz+A8RyptGtuHPRIg++LreFqnhV5f5Rvrw5yJEjw0j2/LXJUuNnC28KSCkYloaeSsh468eILyMToCQyr78KRp/dbmUToCQhp35X0rc+Kt2Aifz5ySk/iC55o4SGH+VLDHSlT8rIfVjcImMv0q+MrIZf1pCVkwHI9+W0AFAkDXYmD8xIbWDp7cTSmr8VTKQPzMhtTOw5MYPmSv2apMQUo1mRmZ6Nj687b/PyJlGeop91ruzkU5i3/sPNfK8kUWexzGCPzch/8zFnowNtQGeMtLdyGr1HEsLI6cZ+cjTmOBgtuJPTohlXSOzPRjaa0b2rGBcqztH8DV3AYT442QPX/3LV+KLXxetjbyqPMYFRn7Gn57kDpJ+3hbdt/nHehjnmkYeVXYCp/PnJ7mzvfKX/xiPY13dxRM0jyh8J0Cy5vei+/CmiHjFJEWHxWAgyRZ8/d5UMiZUA25S0Lh3dkcNjXHzoRDJFly3LRGdAhw7FTz24UoO4BGqAcmVg5WM6MEAY28lOm8WUM6c7wNIllyg5AD2CTT+20WnXsAmVAWSI/cqGNDHAb+gXZUcWBeqAsmRVxSM548Bx4/cAI0S5QOoCiRHPlUwnhMDz0Hj+fLFVAWSG0jTnadgPJ0Cz2O0whyGUx1IbqCbr0YUvX3geVytMIeRVAeSG2uJzrv70Jl0wxTmcBvVgeTGGko7gI6B53GdpB3IJCQIqP+nUQOgW+B53K8wh2upDiRHpioYzxkBx4+3DO8pzGEIVYHkiEbDzwcDjr+56DwKOoaqQHLkT6JTZbdpoPEfJTqZgHtSFUiOnKFkQEcEGv9Y0WkbxtJgJEv2UXIAqNf3k4LHvoPYgh6Vjv1DYVUgkilri14bsL4FjhsG+xelcY+iGpCcGadkSNML3Eprnf0h/agCJGdOUzSmJ8TmF/gEqcfzlMb7ndibBEKyZTPRKQtWJTd7jAdsamSK4lif5s9PiMgY0a23j8c1qymPsZ2y8RcdtyAkWg4R/dZbLxrZQmFsCPgdZmSO8vg+N/LTxH6nRi7OghuQHmIbsKCj8ylGTjJytNgejHifsb7wdoPUE5zbJ3twAvONnC/2tqEhbGPkMbF1+7THdn4CvwvKrO/mxvqk2EBrfa8+caybKjZTE3GeDlL8VS1JiGM8GFmVoO34Ve7LVVf9wHWM9HKGv9TTeGaJbYce61d+TxdL+VJxzsvcEepy51gJ+ZddwNsenUD1Mtz4ml3nvmy/FVuSC09yUd7r2wLG8J8Rrj+OI8cX9BtgF/GckZ7cFZDq7Cc62XUxy+TIzv7YER1n5KNA6/GGixswXkB+5LYSG//3zsnFwi5GJkawLsvcrmxLqj9B9HhaSR3ADZGsMbocXya6+RdaQduBLg5BMmZv0akXGJO8LrYMWmg2E51S5j4FNwfr0QzyZrD4uX4LITMi2d4iuv9lImv2Ho8EeYOg0DUlMP4FRvaKYD2RuPNtYmuHG5vtaQr5giuiUQkbPx77HBTBOvZK+EiFnIkdaQr5gmuqWxP98sdg/F2cI0r9CNWOppAviApfmlBMYKYLZIYG6bdzSxJHQeUkPp3OHBTP+CZyRUViS+sI1grXqf+Qct2k/FX813sgkYOCHK9LnEk+N4ltGR5DAPV+KWcuxYU0AYK3/v8l8US1sT3tGtH6HCXlzaZEH4ZdaAIEtDFyn4R7P4Dz9XkSri9BbTR3MYgyv6fAMasJ1Z9UsYNzBIuluCDfJUY2jHAtbi5oDRCL+buRZ8VWSH7eyAdS3I3DIKo9qckv3BnRR/BriVP2YyM559dGO89OENl56GO4k9T+ohGxBxRfQb8HvPv/1ONYkNG4DlWe1AYSiLYT+97/+QqUbLoLpp1oZOME5n2nJ2Ob4GIcK/t2H7GaI93OwMe4zqaqk7poXYGCbZ3Y7kc72w/b/JOk8qIdeAQ1VPRfH34m6dVVJAk5gJSyzy5VNi4UCOmgPMZuol9c9TCqOMndAayqfN6e7PHIg7z+WaKbHERI1g6gk3JwbQvP4/030bstQNCzFdWc5OwAtJ5Nowpyl4LGfKqi0+pPNSe5OgBcvU1SMqQRBY4bgcUXlMZ9P9Wc5OoAWopO/4KvjbQoeOxoOqKRxTldWF6cZOoADlT6il4baPcyVmHseCa+OVWd5OgAzlUyoA6Bxn+YkgM7mKpOcnQAIxWM530J15gD1X8XKszhdKo6ydEBaGyhbw08h/EKc7ieqk5ydADvKBjP4MBzGKEwh3uo6iQ3B4Btu0YXpZ6B53GewhyepKqT3BwAiqVOVzCeToHnMViYEkzoAII5gH0Dz+MUhTmMoaqTHGMAGm29eweew0UKc3iMqk5ydABvKBjPbwPPYbTCHO6gqpMcHcATCsZzb+A5vKcwh6uo6qQ22legVGjqGXuO+Y0KxoMmnKEabmwiOm8ZTqKqE7ChO9MiMWSiVNZJaJkzDlwxIeV2d7F17mJCI4IO6Rxo/KcojX9fqn6+tHKG8Jz474I7051ZD4rEGewl6T6pRePXd0WnjkELmkFeYGv+70YekXCtrz8XW/56y4DrgDLcGh2SULCz6AdBfZR+B5SBX4UmkQfoCHOM0pdDs10VvqDbBVoTrcIaSKZpVNCY1xKdK0zILTSL8tPIne3fj8jwa9uKwhFsVeC6bGDkRcU5nFLAmFdxRqs15l40j3LTwZ3vU+ldh4KXw9xXzif7G/lEeew4Tu3nedwDxQZYNcY73x2DSAlZXWyW2KKEjL+6TBE/0Wk02vhv0bk+q03miW3v5YNjRbdByF00k3KCbfSriRp+zWMBjFXrxqCjkbcKGDcCi0cpBtcQ8UffRu1Ozp1pKuWjt/sKlaml9f+ITXqpxIDOFJ3qOSuTB4EU25YV/p5tjYzzML43hcVASxfou8jDVyIWQS+7XRuwLpuKjdCHGvdcse3QWzXA8G8Sfy3D+9FkygOu9/5UUsOv2XDzoHquCbbfKJo5S+IJbj4t9qYAjmxD97s1dkecn7vYAbImX/IYo4CgEtKqNJvyBPseyMD4q0fa+9axJs3c9nuZxB3fWOB2CN8WuHPDmnSn2ZTny5+T8VdPHuqznDVBhZ6pGa5JfeUhYeZfac78ozJWZGypu9TYCQ3zvHVOXXAc2pimUw4uoUL/uH1GotM2Rl7jetS59e9LsykHfUsc7W/Io6IFXAfW/s+FrcU2o6RS+5clJZnHGImvFgNpAD8VnTp2lBULdlc3O2f7UeJzwdFoPZpOObiMxuldUMWoR7U1b5PwrQKy/X5GsykHO4i9/gp9d42qPqgngGSV541MMPKh2JdlqRs/CqTUlrqL9tmTEpsL0qc3oNmUA+RsvxxoKzzR3TgcYKS5LD9/fHX3tTxCbNfdLxIyFjivAbLigh7I3BuXyHxQqbgpzaY8HFmwAs0xcqXY0t4NTRpB0AkZZ09K3Hfz6K7btp5zauLWJdb5IEvyLCmuMhEpgNULDEThOu13YlNptY8viETHlJq72O1smjRgPl1Fp7Godn7/zjSX8jGgIAUaK7YRiC+wk+jrYgihjeUDI3tUOJ91jFwt/l7rrczx5Xz3oSAlY1WnrL4De0PEvkorAqSivhDIWJa5+MQ6ivNp687cRecMoLbBzcLU3lLTy7MS4RXaoQHmhXyGOws2mBnitwAm4iXDxaYn+76mxHXwJjSP8jPGs/F3CTg37Dj+WJDxIxDZqqB5ocgmyoE9KnpXozg2oX5fD+c8SQZs7nFbuTTQl782J/CQ+I2KD5Jwpa/WFFt3D2f0P4styz5/BcFQXLviBuZtZ/CnG9lFmMabJWd7NIwhEc0TX8x3PO5y1o/sd0WwroWLHWxvZCexxUoRgN1AWKmHOF7xZBTjCgz41ZcOotOiqzY5kqpEUmNj8ZNsskD8XvVVwgXiLyuOkKTwlfl3acRzRsMOHwlPX0nDkn0ICYaP6PicCM/DNTnBk+PbjipFUsJH996rEpg3rrg+9zD3gVQpkgrrin4/P1wvtUtk/pd7cAAjqVYkFXbwYACvSzqloHcU/UdDr1KtSCoc7sEB/C6h+eOK8jPl+c8W3q+TRPCRANQlsTW4z8MRiKWxSBIM96D8LRNbg3M8OMEOVC2SAneL/j1448TWwMcryE5ULZICjysr/t8TXIPdPDiAQ6haJAW0nwC/nOAabO3BAbAtFkmCscqK/0KCa/BLDw6gH1WLpMDTyoo/McE16OjBAfShapEUeFhZ8fHAJrV+8J09OIADqVokBUaJ/hPg1MpIHevBAexO1SIpcIUH5W+X2Bpc6WENWlO1SAoM9KD8Rye2Bs+Lfm3AtalaJAW6e3AAtyc0f7yG1C4P9nGCcRCSKVuK/ms4lJVOpXNMHw8OcAzViqQCylfN9mAEPROZ/2Me5j6MakVSwkcb6hS+ggjULfYw90OpUiQlLvFgBHgVuGvk8/6D+GmC0ooqRVLCRyIM5G8Sb+/49qJfCq2qbTYDgCQpUCJ7jicncFSE80XrrrGe5ns51YmkyH2eDGKWkc0im+upnuYK2YOqRFLk1x6NYrzbZcTAXka+8zTPTySuYii44dlIbE/AA8TWKEDxk4Pdse9XYkuX/YTqT5qKrebjywlghxG6UCYaZM7wOEd0Vx4q4brrbio2CxPBTbzKnCc2GFtX0BK/O7IhrzXSW1jPMFuu8WgckNESrm1WW/eF/qEAQaPVot5DoK37uUbeEL3+jgiOoq7DYCPNaRb50NZ9xXwaB0qQrRtg2z+jIOOvkvlGBoifWxDcMuxr5IkCfi+kSd8ptn8CyYCHCzCOSe5c6hucbU/zeOavjzxipIXinPZxX+dlBc/je+e8t6eJlJud63Fu1BAYJRqIrOlpHrjnHxfQ8KvLdLGPrioBLdwfKOi3qSvOMcLIBjSV8vJQgQqFc/lARUfQxsgt4ifJp9Iv6PUu2Lqy2/3jjcyNbD5waj1oKuWNBRS9bZ7hgpBIH17Z24L1xFbhLeJMXKm8LfVvH46aAvdEPBc4tesk3K0H8cgVARXrS7cLGeIMe2+xnXZQvhvNTHGn3d/I1UZeMrIwcqOvKRjvGbLi+/ctxKYVpzCf54RXh6VjLSNTEjOs1GSMO9vXBIG2zxOby2SxV5KkROCqaSkN1asgCad3jSDsrETnMk1sgRlSIq6kkXoXXOmNFFtJeGbic/lQbPoxKQmruXM2DbWYoFoZ5jFRWBS1VMCjf0oD/VGeSXiLXqTg9qIRTac8IBX068yV+lmxxU43MfJXGnmdMohmUy66Sdi02pCCxzbrV1sLPPs9S9K7gixS0CWqLc2mXKBuwKLMFPldIy2Xsx7bu3+nwS9/18R6AyUDBSW+zUSB31yB8VeB9N4bIg7i4ZYBJd/QuBUPsaYVfJw7giZTPvbJIBiGx0TNVmJN0BE4lgQe5Bfc4nZsSDZatZbbHdzZH2nkXiPfeBzLVEmvYSypB+3cF6WMxn+rNKy7EXYLjwYcN4ztRFn5R0d43XeuR6d+Es2lnKC4xwMlMnwcbX4jlZX2buT+xjcFjruqHFnTCn9P5PSPFv16Ax9I+JJwxBNVCj+/BOf9bRXXBY+XJha03d9PcdxwfnhspX3jczBNpdyg1dYzCRo+rvIuET8NTfE3h4m/Z8qIOWzj6ffsphzsfYQmksdu4DB3Fk0hB/9J96X2DcpwT1MePyL5vkt0oc/hUkVHy0pCmYA+AEiU+SJS43/RyP5SbBsvJBK9rOi8Di9o3L8XXgmSBoK6AicbeT8Co8eX7Al3Xg7Vv+8Vpbk8UOAccGX4ltK4R9Mk8gQR4C7i/865NvnIfcXaBF4D5BRoZFFiK71FwWPvIjo3A9OEj4SyZx2xpb5Gi5/EGQTckLuPa7HdJJ52XVpdmEcGGDt2GxMUxo5syY1pAqQKGCcejBwntmpuQ68SYfAXGTlI4u1mc7rS2X/XQOPvr+TAulHtyfKY3EClOiuBuf1BaQsd6nENHOtihTmcTDUnOTqApxWM5/bAc3hDYQ7XUM1Jjg5AI5J+euA5jFSYw11Uc5KjA5iqYDy9As/hAoU5PEE1J7k5AFx9TVcwns6B53GywhyeoZoTOgA6AEJ4BOARgJA8HMCbwiAgg4AkWwcwRngNyGtAkq0DuEWYCMREIJKtAzhTmArMVGCSrQM4QNJ+DDRe+BiI0AE0mA2UttB8DkzoABJ0AEDjJoAFQQgdQKIOYKiwJBgh2TqAXRSNiUVBCR1AYg4AV3j/UHQCPsuCdxWWBSd0AOqcK7ol0Hw0Bjle2BiE0AF4oYWRBaJfB5GtwUjSoIvOhw1UsAslreulG0W/GGpVc9AThM1BSSIgKWSQ2A49c6SyBBOU/x4htk33GpHPe1Pl83VNmenW4hBhe3ASGU2M9Bb7OMZXz7xZ7ivbMeJ1GOrR6GpeGcK5ThHbzh0G+XVB/zev/sj/ga/AQPelLkr5sDNAMc49I1yPtUW/X2Bs8qyEe7xEIgFn8z4VnO+1voIPS/juQDU50DmpMho/Ap1tqf55s7nolMPWEpy7z3fHkFi4qaQOYBDVP2/6GZkbqXK+7IJgMYCA5aslM/57hI9+sg7yDRf9u2QfgcLukazZL0SnaGgMMtHFN0iGoPHnXxJS1iUuMBkDO0a8Y6qvIM6zEc0gT9Y38kqCSrvMxQVWiWAN9zYyL1HjnxbRsYoUzLqJn2PhBM6NZC3R0vyrxNZvsgv4kgxBVtnYEpxdcR3XP5I1xfXZ+4ms23Ni3xCQDMG2+RYpT/R6kZFOkaxtM7FPaGN2mNe5DwDJlP4Sf7S/IW/sW0Wyvo1ckHJ+hGvUg+qfN20jVEwteUriusdGEdBHI3C2uDXBIyNW9smcxkZekHLnsZ8Q4XELpcXHS5jt/uPivwQZSYQTSm78VZV2YgxuYWeyv9ulLBH/qdPo5bcTVZ5UgWSfLzwr3lz3xUE32sPdlw/BuQOd87lWbMaZbwO4IfLfAkcD5DCg3LhW8c5Fbnc3WGw7MEL+iSHi7y4ez0dRiba+FW02dQbwmacxoS5eCvfbOB5sZuRod0afIDahqK6Xht+7nc6LYpt2Hiq80iMrADneMz0Y2rtuW9vQbLw1nSNY4GFsNyb6W6EKUEsj27kdVE9n4IjedzbSwX3hG1OtSX05ycNX/3rRKxm1tZG3lceImw5GvUn24Ov8hqJhLRU/xSJ9PEhiS2uSPR1F7x4af2eAx7Hijf04RQfwisTxWIiQYFyiaFBXFTBevE7UKkOGYBlfupGseV3JmF6T4vLH9xC9q0KWuCLZ0lzJkPAl3b3gsWs9VnqQakBy5UAlI3o0wNiRK7BQdB7AsMQ1yZILlBzAfoHGf5foBC43oSqQHLlbwYA+lXANIrsrObD9qQokRzRq/Y0KOP61RKcX339QFUiOfKpgPAMCz0GjZuHFVAWSG6jzr1GuunPgedwh5X8dSIg6TZW2z+0Dz+NqhTmMpDqQ3MD5eZGC8WwVeB7DFOZwG9WB5Aby6jWe2XYIPI/rFOZwK9WB5Aau7mYrGE/XwPO4T2EO11IdSI5MVTCe0wLP4R2FOQyhKpAc0agA/EDA8W9oZLHCHI6lKpAcGaVgPLNdPCEEh4tOJuDeVAWSI2cqGVCfQOPXqBCECkYsmEmypLOSA3hZiu+401F0SmZPEVYFIpmCOnsLlZxArwLHDYN9XGnco6kGJGeeVTKkj8WW6yqCvqJXx/AoqgBhHEBHHhL/xTWQeThb9LrltKQKkJzZXPTaT0Gu8RgP+LmR9xXH+gx/fkJ0S21Xdd3RLhLS2sgk5XH2409PiL3G0269NVb0Sm2h/dVXyuP7Uurfq5CQUoPaAB96cAJzjJwhDU8UamPkXtEL+FWXC/mzE/L/nCB+OvFCpottQLJNPeIDcBbdnOEv8jQeOCb2BSSkGqt5OGPXVoF3mtj3A5e53QH6850jtirP38S2v/7Bs5zHn5uQf6W7p+12TDKFZ39CamcVt/Uuq/F/744XhJDl0Nyd2cvoAEbw5yWkbrqIXvPNWASFQ9biT0tI/TinRMaP1OG2/EkJqT+4rru1BMb/nYTrXUhI0iCd9/6EjR/lwnrzZySk4SA/4J5Ev/x9+PMRorMTuD4h40emXxf+bITogRyBge7LGrPxI5uxPX8uQvywi+i+yddMM75dbJkzQohHcJ+OppyLIzF+tDn/tbC4JyGFsq3Yqjqh3g98Y2Qov/qEhI0NoLz4GLG59kUY/jy3A9mIy09IPPxKbE3AL8TPQ55XjQwy0oxLTUi8NHG7giuMvCYNvzmYZeRJsQ1I2/CMT0iarGtkVyPHia0MhBTjPxt5ysUQ0OTjbiPDjZxt5FCxuftNuHSkSP4X++MPoUBbrVkAAAAASUVORK5CYII=;labelPosition=right;align=left;fontFamily=Poppins;fontSource=https%3A%2F%2Ffonts.googleapis.com%2Fcss%3Ffamily%3DPoppins;" parent="1" vertex="1">
          <mxGeometry x="240" y="682.51" width="20" height="20" as="geometry" />
        </mxCell>
        <mxCell id="25lFBpKABG4JQTpR2Emw-54" value="Beneficiary&#xa;Expiration&#xa;Topic" style="shape=image;verticalLabelPosition=bottom;labelBackgroundColor=none;verticalAlign=top;aspect=fixed;imageAspect=0;image=data:image/png,iVBORw0KGgoAAAANSUhEUgAAAQAAAAEACAYAAABccqhmAAAACXBIWXMAAAsSAAALEgHS3X78AAAZUklEQVR42u2debSWxZHGS4JoxBU1QHCLCgbEgPuuI7gAgwoG4aDijg4RcHfihuMSg7iMK2rQEBR3jfsWDMR1BMVdA0YRXFBBNhGRRZx+7L4zNzcX7uV+1W93v/38zqm/OOfS3V9Vvd3V1VUiRJu1jexj5FQjI4w8Y2SSkS+NzDPyjZE5Rj4x8rqRB41cZeQYI+2NrMolJCQdVjHySyPnGHnRyEIjP1QgM4zca6SfkfW4vITESVMj/Y2MN/J9hUa/PMFu4Q4jezhHQwiJYIuPr/0Xnoy+Nllm5CUj3Yw04k9ASPE0dl/8zws0/NocwTgj2/LnIKQ4tjbyQkDDrymLjVxuZA3+NIT4A+fu37iz+A8RyptGtuHPRIg++LreFqnhV5f5Rvrw5yJEjw0j2/LXJUuNnC28KSCkYloaeSsh468eILyMToCQyr78KRp/dbmUToCQhp35X0rc+Kt2Aifz5ySk/iC55o4SGH+VLDHSlT8rIfVjcImMv0q+MrIZf1pCVkwHI9+W0AFAkDXYmD8xIbWDp7cTSmr8VTKQPzMhtTOw5MYPmSv2apMQUo1mRmZ6Nj687b/PyJlGeop91ruzkU5i3/sPNfK8kUWexzGCPzch/8zFnowNtQGeMtLdyGr1HEsLI6cZ+cjTmOBgtuJPTohlXSOzPRjaa0b2rGBcqztH8DV3AYT442QPX/3LV+KLXxetjbyqPMYFRn7Gn57kDpJ+3hbdt/nHehjnmkYeVXYCp/PnJ7mzvfKX/xiPY13dxRM0jyh8J0Cy5vei+/CmiHjFJEWHxWAgyRZ8/d5UMiZUA25S0Lh3dkcNjXHzoRDJFly3LRGdAhw7FTz24UoO4BGqAcmVg5WM6MEAY28lOm8WUM6c7wNIllyg5AD2CTT+20WnXsAmVAWSI/cqGNDHAb+gXZUcWBeqAsmRVxSM548Bx4/cAI0S5QOoCiRHPlUwnhMDz0Hj+fLFVAWSG0jTnadgPJ0Cz2O0whyGUx1IbqCbr0YUvX3geVytMIeRVAeSG2uJzrv70Jl0wxTmcBvVgeTGGko7gI6B53GdpB3IJCQIqP+nUQOgW+B53K8wh2upDiRHpioYzxkBx4+3DO8pzGEIVYHkiEbDzwcDjr+56DwKOoaqQHLkT6JTZbdpoPEfJTqZgHtSFUiOnKFkQEcEGv9Y0WkbxtJgJEv2UXIAqNf3k4LHvoPYgh6Vjv1DYVUgkilri14bsL4FjhsG+xelcY+iGpCcGadkSNML3Eprnf0h/agCJGdOUzSmJ8TmF/gEqcfzlMb7ndibBEKyZTPRKQtWJTd7jAdsamSK4lif5s9PiMgY0a23j8c1qymPsZ2y8RcdtyAkWg4R/dZbLxrZQmFsCPgdZmSO8vg+N/LTxH6nRi7OghuQHmIbsKCj8ylGTjJytNgejHifsb7wdoPUE5zbJ3twAvONnC/2tqEhbGPkMbF1+7THdn4CvwvKrO/mxvqk2EBrfa8+caybKjZTE3GeDlL8VS1JiGM8GFmVoO34Ve7LVVf9wHWM9HKGv9TTeGaJbYce61d+TxdL+VJxzsvcEepy51gJ+ZddwNsenUD1Mtz4ml3nvmy/FVuSC09yUd7r2wLG8J8Rrj+OI8cX9BtgF/GckZ7cFZDq7Cc62XUxy+TIzv7YER1n5KNA6/GGixswXkB+5LYSG//3zsnFwi5GJkawLsvcrmxLqj9B9HhaSR3ADZGsMbocXya6+RdaQduBLg5BMmZv0akXGJO8LrYMWmg2E51S5j4FNwfr0QzyZrD4uX4LITMi2d4iuv9lImv2Ho8EeYOg0DUlMP4FRvaKYD2RuPNtYmuHG5vtaQr5giuiUQkbPx77HBTBOvZK+EiFnIkdaQr5gmuqWxP98sdg/F2cI0r9CNWOppAviApfmlBMYKYLZIYG6bdzSxJHQeUkPp3OHBTP+CZyRUViS+sI1grXqf+Qct2k/FX813sgkYOCHK9LnEk+N4ltGR5DAPV+KWcuxYU0AYK3/v8l8US1sT3tGtH6HCXlzaZEH4ZdaAIEtDFyn4R7P4Dz9XkSri9BbTR3MYgyv6fAMasJ1Z9UsYNzBIuluCDfJUY2jHAtbi5oDRCL+buRZ8VWSH7eyAdS3I3DIKo9qckv3BnRR/BriVP2YyM559dGO89OENl56GO4k9T+ohGxBxRfQb8HvPv/1ONYkNG4DlWe1AYSiLYT+97/+QqUbLoLpp1oZOME5n2nJ2Ob4GIcK/t2H7GaI93OwMe4zqaqk7poXYGCbZ3Y7kc72w/b/JOk8qIdeAQ1VPRfH34m6dVVJAk5gJSyzy5VNi4UCOmgPMZuol9c9TCqOMndAayqfN6e7PHIg7z+WaKbHERI1g6gk3JwbQvP4/030bstQNCzFdWc5OwAtJ5Nowpyl4LGfKqi0+pPNSe5OgBcvU1SMqQRBY4bgcUXlMZ9P9Wc5OoAWopO/4KvjbQoeOxoOqKRxTldWF6cZOoADlT6il4baPcyVmHseCa+OVWd5OgAzlUyoA6Bxn+YkgM7mKpOcnQAIxWM530J15gD1X8XKszhdKo6ydEBaGyhbw08h/EKc7ieqk5ydADvKBjP4MBzGKEwh3uo6iQ3B4Btu0YXpZ6B53GewhyepKqT3BwAiqVOVzCeToHnMViYEkzoAII5gH0Dz+MUhTmMoaqTHGMAGm29eweew0UKc3iMqk5ydABvKBjPbwPPYbTCHO6gqpMcHcATCsZzb+A5vKcwh6uo6qQ22legVGjqGXuO+Y0KxoMmnKEabmwiOm8ZTqKqE7ChO9MiMWSiVNZJaJkzDlwxIeV2d7F17mJCI4IO6Rxo/KcojX9fqn6+tHKG8Jz474I7051ZD4rEGewl6T6pRePXd0WnjkELmkFeYGv+70YekXCtrz8XW/56y4DrgDLcGh2SULCz6AdBfZR+B5SBX4UmkQfoCHOM0pdDs10VvqDbBVoTrcIaSKZpVNCY1xKdK0zILTSL8tPIne3fj8jwa9uKwhFsVeC6bGDkRcU5nFLAmFdxRqs15l40j3LTwZ3vU+ldh4KXw9xXzif7G/lEeew4Tu3nedwDxQZYNcY73x2DSAlZXWyW2KKEjL+6TBE/0Wk02vhv0bk+q03miW3v5YNjRbdByF00k3KCbfSriRp+zWMBjFXrxqCjkbcKGDcCi0cpBtcQ8UffRu1Ozp1pKuWjt/sKlaml9f+ITXqpxIDOFJ3qOSuTB4EU25YV/p5tjYzzML43hcVASxfou8jDVyIWQS+7XRuwLpuKjdCHGvdcse3QWzXA8G8Sfy3D+9FkygOu9/5UUsOv2XDzoHquCbbfKJo5S+IJbj4t9qYAjmxD97s1dkecn7vYAbImX/IYo4CgEtKqNJvyBPseyMD4q0fa+9axJs3c9nuZxB3fWOB2CN8WuHPDmnSn2ZTny5+T8VdPHuqznDVBhZ6pGa5JfeUhYeZfac78ozJWZGypu9TYCQ3zvHVOXXAc2pimUw4uoUL/uH1GotM2Rl7jetS59e9LsykHfUsc7W/Io6IFXAfW/s+FrcU2o6RS+5clJZnHGImvFgNpAD8VnTp2lBULdlc3O2f7UeJzwdFoPZpOObiMxuldUMWoR7U1b5PwrQKy/X5GsykHO4i9/gp9d42qPqgngGSV541MMPKh2JdlqRs/CqTUlrqL9tmTEpsL0qc3oNmUA+RsvxxoKzzR3TgcYKS5LD9/fHX3tTxCbNfdLxIyFjivAbLigh7I3BuXyHxQqbgpzaY8HFmwAs0xcqXY0t4NTRpB0AkZZ09K3Hfz6K7btp5zauLWJdb5IEvyLCmuMhEpgNULDEThOu13YlNptY8viETHlJq72O1smjRgPl1Fp7Godn7/zjSX8jGgIAUaK7YRiC+wk+jrYgihjeUDI3tUOJ91jFwt/l7rrczx5Xz3oSAlY1WnrL4De0PEvkorAqSivhDIWJa5+MQ6ivNp687cRecMoLbBzcLU3lLTy7MS4RXaoQHmhXyGOws2mBnitwAm4iXDxaYn+76mxHXwJjSP8jPGs/F3CTg37Dj+WJDxIxDZqqB5ocgmyoE9KnpXozg2oX5fD+c8SQZs7nFbuTTQl782J/CQ+I2KD5Jwpa/WFFt3D2f0P4styz5/BcFQXLviBuZtZ/CnG9lFmMabJWd7NIwhEc0TX8x3PO5y1o/sd0WwroWLHWxvZCexxUoRgN1AWKmHOF7xZBTjCgz41ZcOotOiqzY5kqpEUmNj8ZNsskD8XvVVwgXiLyuOkKTwlfl3acRzRsMOHwlPX0nDkn0ICYaP6PicCM/DNTnBk+PbjipFUsJH996rEpg3rrg+9zD3gVQpkgrrin4/P1wvtUtk/pd7cAAjqVYkFXbwYACvSzqloHcU/UdDr1KtSCoc7sEB/C6h+eOK8jPl+c8W3q+TRPCRANQlsTW4z8MRiKWxSBIM96D8LRNbg3M8OMEOVC2SAneL/j1448TWwMcryE5ULZICjysr/t8TXIPdPDiAQ6haJAW0nwC/nOAabO3BAbAtFkmCscqK/0KCa/BLDw6gH1WLpMDTyoo/McE16OjBAfShapEUeFhZ8fHAJrV+8J09OIADqVokBUaJ/hPg1MpIHevBAexO1SIpcIUH5W+X2Bpc6WENWlO1SAoM9KD8Rye2Bs+Lfm3AtalaJAW6e3AAtyc0f7yG1C4P9nGCcRCSKVuK/ms4lJVOpXNMHw8OcAzViqQCylfN9mAEPROZ/2Me5j6MakVSwkcb6hS+ggjULfYw90OpUiQlLvFgBHgVuGvk8/6D+GmC0ooqRVLCRyIM5G8Sb+/49qJfCq2qbTYDgCQpUCJ7jicncFSE80XrrrGe5ns51YmkyH2eDGKWkc0im+upnuYK2YOqRFLk1x6NYrzbZcTAXka+8zTPTySuYii44dlIbE/AA8TWKEDxk4Pdse9XYkuX/YTqT5qKrebjywlghxG6UCYaZM7wOEd0Vx4q4brrbio2CxPBTbzKnCc2GFtX0BK/O7IhrzXSW1jPMFuu8WgckNESrm1WW/eF/qEAQaPVot5DoK37uUbeEL3+jgiOoq7DYCPNaRb50NZ9xXwaB0qQrRtg2z+jIOOvkvlGBoifWxDcMuxr5IkCfi+kSd8ptn8CyYCHCzCOSe5c6hucbU/zeOavjzxipIXinPZxX+dlBc/je+e8t6eJlJud63Fu1BAYJRqIrOlpHrjnHxfQ8KvLdLGPrioBLdwfKOi3qSvOMcLIBjSV8vJQgQqFc/lARUfQxsgt4ifJp9Iv6PUu2Lqy2/3jjcyNbD5waj1oKuWNBRS9bZ7hgpBIH17Z24L1xFbhLeJMXKm8LfVvH46aAvdEPBc4tesk3K0H8cgVARXrS7cLGeIMe2+xnXZQvhvNTHGn3d/I1UZeMrIwcqOvKRjvGbLi+/ctxKYVpzCf54RXh6VjLSNTEjOs1GSMO9vXBIG2zxOby2SxV5KkROCqaSkN1asgCad3jSDsrETnMk1sgRlSIq6kkXoXXOmNFFtJeGbic/lQbPoxKQmruXM2DbWYoFoZ5jFRWBS1VMCjf0oD/VGeSXiLXqTg9qIRTac8IBX068yV+lmxxU43MfJXGnmdMohmUy66Sdi02pCCxzbrV1sLPPs9S9K7gixS0CWqLc2mXKBuwKLMFPldIy2Xsx7bu3+nwS9/18R6AyUDBSW+zUSB31yB8VeB9N4bIg7i4ZYBJd/QuBUPsaYVfJw7giZTPvbJIBiGx0TNVmJN0BE4lgQe5Bfc4nZsSDZatZbbHdzZH2nkXiPfeBzLVEmvYSypB+3cF6WMxn+rNKy7EXYLjwYcN4ztRFn5R0d43XeuR6d+Es2lnKC4xwMlMnwcbX4jlZX2buT+xjcFjruqHFnTCn9P5PSPFv16Ax9I+JJwxBNVCj+/BOf9bRXXBY+XJha03d9PcdxwfnhspX3jczBNpdyg1dYzCRo+rvIuET8NTfE3h4m/Z8qIOWzj6ffsphzsfYQmksdu4DB3Fk0hB/9J96X2DcpwT1MePyL5vkt0oc/hUkVHy0pCmYA+AEiU+SJS43/RyP5SbBsvJBK9rOi8Di9o3L8XXgmSBoK6AicbeT8Co8eX7Al3Xg7Vv+8Vpbk8UOAccGX4ltK4R9Mk8gQR4C7i/865NvnIfcXaBF4D5BRoZFFiK71FwWPvIjo3A9OEj4SyZx2xpb5Gi5/EGQTckLuPa7HdJJ52XVpdmEcGGDt2GxMUxo5syY1pAqQKGCcejBwntmpuQ68SYfAXGTlI4u1mc7rS2X/XQOPvr+TAulHtyfKY3EClOiuBuf1BaQsd6nENHOtihTmcTDUnOTqApxWM5/bAc3hDYQ7XUM1Jjg5AI5J+euA5jFSYw11Uc5KjA5iqYDy9As/hAoU5PEE1J7k5AFx9TVcwns6B53GywhyeoZoTOgA6AEJ4BOARgJA8HMCbwiAgg4AkWwcwRngNyGtAkq0DuEWYCMREIJKtAzhTmArMVGCSrQM4QNJ+DDRe+BiI0AE0mA2UttB8DkzoABJ0AEDjJoAFQQgdQKIOYKiwJBgh2TqAXRSNiUVBCR1AYg4AV3j/UHQCPsuCdxWWBSd0AOqcK7ol0Hw0Bjle2BiE0AF4oYWRBaJfB5GtwUjSoIvOhw1UsAslreulG0W/GGpVc9AThM1BSSIgKWSQ2A49c6SyBBOU/x4htk33GpHPe1Pl83VNmenW4hBhe3ASGU2M9Bb7OMZXz7xZ7ivbMeJ1GOrR6GpeGcK5ThHbzh0G+XVB/zev/sj/ga/AQPelLkr5sDNAMc49I1yPtUW/X2Bs8qyEe7xEIgFn8z4VnO+1voIPS/juQDU50DmpMho/Ap1tqf55s7nolMPWEpy7z3fHkFi4qaQOYBDVP2/6GZkbqXK+7IJgMYCA5aslM/57hI9+sg7yDRf9u2QfgcLukazZL0SnaGgMMtHFN0iGoPHnXxJS1iUuMBkDO0a8Y6qvIM6zEc0gT9Y38kqCSrvMxQVWiWAN9zYyL1HjnxbRsYoUzLqJn2PhBM6NZC3R0vyrxNZvsgv4kgxBVtnYEpxdcR3XP5I1xfXZ+4ms23Ni3xCQDMG2+RYpT/R6kZFOkaxtM7FPaGN2mNe5DwDJlP4Sf7S/IW/sW0Wyvo1ckHJ+hGvUg+qfN20jVEwteUriusdGEdBHI3C2uDXBIyNW9smcxkZekHLnsZ8Q4XELpcXHS5jt/uPivwQZSYQTSm78VZV2YgxuYWeyv9ulLBH/qdPo5bcTVZ5UgWSfLzwr3lz3xUE32sPdlw/BuQOd87lWbMaZbwO4IfLfAkcD5DCg3LhW8c5Fbnc3WGw7MEL+iSHi7y4ez0dRiba+FW02dQbwmacxoS5eCvfbOB5sZuRod0afIDahqK6Xht+7nc6LYpt2Hiq80iMrADneMz0Y2rtuW9vQbLw1nSNY4GFsNyb6W6EKUEsj27kdVE9n4IjedzbSwX3hG1OtSX05ycNX/3rRKxm1tZG3lceImw5GvUn24Ov8hqJhLRU/xSJ9PEhiS2uSPR1F7x4af2eAx7Hijf04RQfwisTxWIiQYFyiaFBXFTBevE7UKkOGYBlfupGseV3JmF6T4vLH9xC9q0KWuCLZ0lzJkPAl3b3gsWs9VnqQakBy5UAlI3o0wNiRK7BQdB7AsMQ1yZILlBzAfoHGf5foBC43oSqQHLlbwYA+lXANIrsrObD9qQokRzRq/Y0KOP61RKcX339QFUiOfKpgPAMCz0GjZuHFVAWSG6jzr1GuunPgedwh5X8dSIg6TZW2z+0Dz+NqhTmMpDqQ3MD5eZGC8WwVeB7DFOZwG9WB5Aby6jWe2XYIPI/rFOZwK9WB5Aau7mYrGE/XwPO4T2EO11IdSI5MVTCe0wLP4R2FOQyhKpAc0agA/EDA8W9oZLHCHI6lKpAcGaVgPLNdPCEEh4tOJuDeVAWSI2cqGVCfQOPXqBCECkYsmEmypLOSA3hZiu+401F0SmZPEVYFIpmCOnsLlZxArwLHDYN9XGnco6kGJGeeVTKkj8WW6yqCvqJXx/AoqgBhHEBHHhL/xTWQeThb9LrltKQKkJzZXPTaT0Gu8RgP+LmR9xXH+gx/fkJ0S21Xdd3RLhLS2sgk5XH2409PiL3G0269NVb0Sm2h/dVXyuP7Uurfq5CQUoPaAB96cAJzjJwhDU8UamPkXtEL+FWXC/mzE/L/nCB+OvFCpottQLJNPeIDcBbdnOEv8jQeOCb2BSSkGqt5OGPXVoF3mtj3A5e53QH6850jtirP38S2v/7Bs5zHn5uQf6W7p+12TDKFZ39CamcVt/Uuq/F/744XhJDl0Nyd2cvoAEbw5yWkbrqIXvPNWASFQ9biT0tI/TinRMaP1OG2/EkJqT+4rru1BMb/nYTrXUhI0iCd9/6EjR/lwnrzZySk4SA/4J5Ev/x9+PMRorMTuD4h40emXxf+bITogRyBge7LGrPxI5uxPX8uQvywi+i+yddMM75dbJkzQohHcJ+OppyLIzF+tDn/tbC4JyGFsq3Yqjqh3g98Y2Qov/qEhI0NoLz4GLG59kUY/jy3A9mIy09IPPxKbE3AL8TPQ55XjQwy0oxLTUi8NHG7giuMvCYNvzmYZeRJsQ1I2/CMT0iarGtkVyPHia0MhBTjPxt5ysUQ0OTjbiPDjZxt5FCxuftNuHSkSP4X++MPoUBbrVkAAAAASUVORK5CYII=;labelPosition=center;align=center;fontFamily=Poppins;fontSource=https%3A%2F%2Ffonts.googleapis.com%2Fcss%3Ffamily%3DPoppins;fontSize=11;fontStyle=1;fontColor=#D10000;" parent="1" vertex="1">
          <mxGeometry x="240" y="726.25" width="47.5" height="47.5" as="geometry" />
        </mxCell>
        <mxCell id="25lFBpKABG4JQTpR2Emw-55" style="edgeStyle=orthogonalEdgeStyle;rounded=0;orthogonalLoop=1;jettySize=auto;html=1;" parent="1" source="25lFBpKABG4JQTpR2Emw-57" target="25lFBpKABG4JQTpR2Emw-54" edge="1">
          <mxGeometry relative="1" as="geometry" />
        </mxCell>
        <mxCell id="25lFBpKABG4JQTpR2Emw-56" style="edgeStyle=orthogonalEdgeStyle;rounded=0;orthogonalLoop=1;jettySize=auto;html=1;" parent="1" source="25lFBpKABG4JQTpR2Emw-57" target="25lFBpKABG4JQTpR2Emw-59" edge="1">
          <mxGeometry relative="1" as="geometry" />
        </mxCell>
        <mxCell id="25lFBpKABG4JQTpR2Emw-57" value="Kafka&lt;div&gt;Sink&lt;/div&gt;&lt;div&gt;Connector&lt;/div&gt;" style="shape=image;html=1;verticalAlign=top;verticalLabelPosition=bottom;labelBackgroundColor=none;imageAspect=0;aspect=fixed;image=https://cdn1.iconfinder.com/data/icons/science-technology-outline-24-px/24/Electrical_plug_plug_plug_connector_plug_in_power_plug-128.png;fontSize=11;fontFamily=Poppins;fontSource=https%3A%2F%2Ffonts.googleapis.com%2Fcss%3Ffamily%3DPoppins;" parent="1" vertex="1">
          <mxGeometry x="317.5" y="722.5" width="55" height="55" as="geometry" />
        </mxCell>
        <mxCell id="25lFBpKABG4JQTpR2Emw-58" value="ABS" style="shape=image;verticalLabelPosition=middle;labelBackgroundColor=none;verticalAlign=middle;aspect=fixed;imageAspect=0;image=data:image/png,iVBORw0KGgoAAAANSUhEUgAAAJ8AAACfCAYAAADnGwvgAAAACXBIWXMAAC4jAAAuIwF4pT92AAALeklEQVR42u2d33Xa6hLFN6y82x2EDuC88WZuBeZUYFJBdBogCg0EV2C5A1zBld94u1BBoANTge6DRokO4Z++mU9/916LFXtlWQjpx56Zb0ZSL0kSUOfVGy8GAAZF/y5Zz2MevSvHtuvw9caLEYB7ABP5N/t9aPQWBwAb+TkG8CG/b5L1/IPwdcvFJgLYCMBDxbu0z0AEEHfNLVsNX2+8uAcwFeAmAD43YLffxSFbD2Pr4BN3mwKYGYbOqnQAsAKwStbzFeEjcASR8AG98SID7rFjufoeQAQgStbzHeErN4+bAQgaksP51huAZRPzw8bAJ9AF8rojcycLlbBJENYePkLXXghrDV9vvAgJXXshrCV8UkgsmdOZ6FUg3BG+y9ANpIp7IDOmOgiAS8J3GrwAQFjDELtF2o8FfvdlTynrC2ca1fSzzJL1fEP46uN2WwA7/O6zfljlSrmpmFHu36rB/J6s52Gn4euNFzPJ7co+Eb/6p6houkSmaUaoru/8Li646xR8snyyBPBU0lvuBbTatqZyLcJpiVHgIACuOgGfHOQV/Pdgs17osi45TsEv5xTpMlMZvepKwnCp8PXGi4kA4TPMviPteUZtKFPlyxogbSn6PG5v4oIfrYNP8rsXj2/x2kSXc3DD0GN+uAUwKQvAUuDrjRdLAF89Qhc2ebrD8YvsC8KDALhpPHy98SLyVFh0DroSISwFQK/weQKvcdMbJYTjAMC3pgHoDT4P4NWyRVSzwiSC7TKNVwC9wOcBvNIrsQZDaN2m9AagOXzG4NHt6uGCXgA0hU++dT8My/5ZW5dOSoIwNMwFDwAGltHHDD7jdbxXAIGvMCsnxZdiALu6VOHGC/um64Am8EmTPDb6gN5bPb3xooyV9S3SRe+oBgCOJAxbtOrekvV8arFffaNS3wq8L3UY9THSEMCL5MCVSlKXiXwhtHqUpkH18BlZ+gHAX23pxx7pyXOYvxXADwHw1WBzX+VSh+rCrlFCW1o7p+Sw6zVZr8GKxAHASJPb9hUfYNJE8CrSHdKhgFooWc9nBg54J1Gv3LAreV5E8AppVKedMQJwqEkpXJ0vgr6Z3bU1vFEN9ykwKEK+STXtHz5JNLU35vnSxlt+NU25IkQLYOQdvty1Fxq9trSqbTKAM0mDSg2/RZ0vVIbbd8k1qtb33OtNeeDbAODGoCAKpKd8u5ndutQiG/7ZluUGT8sP1754kzpDaLB0Vqj7UcT5tKFyWueRKHHkfccdMEQ6rOuqR1mCs4NPNqgZz3luyOQxiyB9/rc0hU9yPVdtk/U8aMiB37EAme8EQE3xMTOBTzakcb2gQcees4MpgCtl+A1N4FO63jMv9Olk+P18i/v1b8j1XJdWDkpwqerDr2ZNN1TBp4Qn4AU/rah+XVcAPl8bu/p0wfU0zybbW3cxpLsyUhzIRoR/5ef88NAvD+F+eURwaQXhk6dCITQ4CQPZhwlsxr97DTGcEYD/Ko5blvLESG8JpzKBZD2PZPHZJf166I0Xg3Mzf/0L3z7X1X6160my+hPp/V3a+jgrn7pDOvzx0hsvNq5TJ76NqH+h0qnE9Uq4m1XXNASwEkNxdb+VIvebnntva/hUrmc0NUOdSP4NjqurqZyd4u6fKTRcQ532A87AB774kmpqRUxlb/nefUPXO0A/fDAhI/7ywCJN/zNyPb+Pp0Jv3/AbsjJY1xuREa+qCr6TXPVPhFzXjoZFrsbHXdVYsmTy5gU+hevteUOfzsh17OyP0GsFH+fguuN+EdwHDiYn4RMqXavciKeF7lc09PYNklGGXMKncz4FfAy53VPsWlDmr3CzgC/muehc3vcB90nnySn4ho47Quej+xXR6F/wKVa+33kOCJ8KPrh3FlhodDf0usL3YAUf871uyynyZfOFGXwDOh9V4vkf5OFzuVbj0OWH7lEq+FLnU0y40vWonQo+FhtUBUXHfQafq/PxmlwKcBsyUDsfK13KNQLe5QsOinKVUwTsjRcD5nxUVRXvwDnn431YKK0YdqlKwq4Gvj2POaUMu5M+3LobOx5zimGXInwURfgowkdRhI8ifBR1Cj6u2VGVwbdz+DveyozS6sM17PLuoVSmiePfbZjzUY0Luyj6VGmKMoMP7pdbUgy7SNbzWBN2CR+ldr6Y8FEKuUxF7TP46HyUkxTXfO8AoK+49pLwUSMVfPKLy7WXDzz2hM8CPqdRaIOnGVLdhC9Wwwe22QhfVc4HPiut68WGy62Uf93djM5HucrVeH6x1gcAxXM0hmyzET6XfC/vfIDBre0pwlfY+Y6JJHzUlXxvAPdHpcWW8E15Ouh6N2qbv8fPL/gUnY673nhBALsl1/P9L8aOe7tvJe8M1byQew/g0fHPV5fgWxE+ytO5PhxH1/4lWywYemc8L51QYOF6f8AnK89bx40TPla57vCJIseNP3DBufUKFSH3Jvg0jzANeH5aXWi45nsnmfoDPgm9rlXvTDHdStU/13O9Xju6CT6l+93R/Vor15x+f24N+SR8yXoewW26GQACul/rQu4MwGdL17vkfACwpPtRYiShYhNLF/gixRvS/dqV67m63uul57WchU8Kj1eF+4U8b61wPU0Uu8hAX/PHV/SVFxg1XktFhft+7WHgF+FTup8mb6Sqd70JgCdfrneL82nd76E3XrD4aK7ruer9lhG9q/AZuF/ItlvjXC+Eew/3ZsPqW27sQvER8ZQ2BrwRgG+KTbzeOph8E3zifs/K8MvqtxnV7Uq5mZvPc7/gRg+KnfrG6rf2iuC+pgcA369VuE7wyWKhtniIufhcW9cL4D4eD6T33CtUpBS6P5/0fN8VO3hHAGsJ3gTAD+VmgqJPn//k8CYzAD8VOzmUb8jsxP/9p+LzsPG4Dx812IfdmQJDm+e9nRoWvQp9kiSuFq39prwm6/mMvlN5gbGD7rkqBwCDoq5XOOzmwu9SGX4B4IkL0JWDF0P/QJ+ZC3jO8OXC70G54z941Vul4A2Vm3p2Cbdq+KSktgDnhQA2ErwtlJNLqsdfCfXPRgBGRMM7eAMj8A6acKsqOE58qBg2NwhnEeIPvJFRjgcAf2vCrYnz5TSFzXN7n3rjxYbrgObgzQzB+24Bnhl8Yr9TgwIEEhI2bMWZgRcCeDEC7zVZz0OzfbMIu0fW/j/DY/ePLOtQboXFCnbPS9km67mpIZg+b1fu7fzFcJM/euPFimG4MHhTpIvHZuDBwx1oTZ3vKMd4MdxkVl2tiNZVt4ugGxA4CZ62si0NPk8AAultPIIiYzsdKyo0F/yUCp5X+DwCeJCDvPR1UBoG3QTpYq/1s/C8gucdPo8AZhAGMubVRegGAt2Th817B68U+HJVcGwcEjLtAYRdgdAzdFlqMysjqpQCXw7AFXRj2p0NxxJetdPG11Rqh6k0+HLVWAx9b/HqQQQQKR7vUKfqdQbd/VJu1Zeyo0ep8OUO6hLA1xLeai9uGymeL1cFcFN5PZbwlgfJ70o/PpXA53Fp4BqIscAY1yk0S0oykddjiW/9DmBa1bGoDL5c8rwqIQyfq+hipNdMxGWuHUr+lgfuroLP/92yT9s4+HInI4TuKnlLJ9gdvT6KhiQJnVkfdATgXiAblJC73fKlm9UhDakFfLnQE1Xkgi6Q5lUHqBrhdrWELwdhgHQd6w6U5ZclqFvRVTv4cmFrCX8LqV1RrRfgawnfUShewr5v2XY1YsG91vAdVYchIWwHdI2C7whC3y0mQkf4LkI4ECecdrww2QpwURN3vpHwHRUmU3HDYUeAOyBdmF82pWXYSvhOuGEgMH5uIXRvAFZtGh1rDXwnquQJ0omQpjpi5nCxQNe+MbE2wnciNE9yr2GNYdvkYNug5Wo9fGdgzJxxhLQ1NqwItF+vLsDWefiuhOrMJYHfAwHZz0Wq6i1+34l0Iz/v5LXhhU+p/g+0QSpQ20YgmwAAAABJRU5ErkJggg==;fontSize=12;fontFamily=Poppins;fontSource=https%3A%2F%2Ffonts.googleapis.com%2Fcss%3Ffamily%3DPoppins;labelPosition=right;align=left;" parent="1" vertex="1">
          <mxGeometry x="424" y="682.51" width="20" height="20" as="geometry" />
        </mxCell>
        <mxCell id="25lFBpKABG4JQTpR2Emw-59" value="TBATCH_PROT&lt;br&gt;_TRANS" style="shape=image;html=1;verticalAlign=top;verticalLabelPosition=bottom;labelBackgroundColor=none;imageAspect=0;aspect=fixed;image=https://cdn2.iconfinder.com/data/icons/font-awesome/1792/table-128.png;fontSize=11;fontFamily=Poppins;fontSource=https%3A%2F%2Ffonts.googleapis.com%2Fcss%3Ffamily%3DPoppins;spacingTop=-5;" parent="1" vertex="1">
          <mxGeometry x="424" y="725" width="50" height="50" as="geometry" />
        </mxCell>
        <mxCell id="25lFBpKABG4JQTpR2Emw-60" style="edgeStyle=orthogonalEdgeStyle;rounded=0;orthogonalLoop=1;jettySize=auto;html=1;" parent="1" source="25lFBpKABG4JQTpR2Emw-61" target="25lFBpKABG4JQTpR2Emw-54" edge="1">
          <mxGeometry relative="1" as="geometry" />
        </mxCell>
        <mxCell id="25lFBpKABG4JQTpR2Emw-61" value="Expiration&lt;br&gt;Batch" style="sketch=0;html=1;aspect=fixed;strokeColor=none;shadow=0;fillColor=#3B8DF1;verticalAlign=top;labelPosition=center;verticalLabelPosition=bottom;shape=mxgraph.gcp2.process;fontSize=11;fontFamily=Poppins;fontSource=https%3A%2F%2Ffonts.googleapis.com%2Fcss%3Ffamily%3DPoppins;fontStyle=1;fontColor=#D10000;" parent="1" vertex="1">
          <mxGeometry x="144" y="725" width="42" height="50" as="geometry" />
        </mxCell>
        <mxCell id="25lFBpKABG4JQTpR2Emw-62" style="edgeStyle=orthogonalEdgeStyle;rounded=0;orthogonalLoop=1;jettySize=auto;html=1;" parent="1" source="25lFBpKABG4JQTpR2Emw-67" target="25lFBpKABG4JQTpR2Emw-59" edge="1">
          <mxGeometry relative="1" as="geometry" />
        </mxCell>
        <mxCell id="25lFBpKABG4JQTpR2Emw-63" style="edgeStyle=orthogonalEdgeStyle;rounded=0;orthogonalLoop=1;jettySize=auto;html=1;" parent="1" source="25lFBpKABG4JQTpR2Emw-67" target="25lFBpKABG4JQTpR2Emw-68" edge="1">
          <mxGeometry relative="1" as="geometry" />
        </mxCell>
        <mxCell id="25lFBpKABG4JQTpR2Emw-64" style="edgeStyle=orthogonalEdgeStyle;rounded=0;orthogonalLoop=1;jettySize=auto;html=1;" parent="1" source="25lFBpKABG4JQTpR2Emw-67" target="25lFBpKABG4JQTpR2Emw-70" edge="1">
          <mxGeometry relative="1" as="geometry" />
        </mxCell>
        <mxCell id="25lFBpKABG4JQTpR2Emw-65" style="edgeStyle=orthogonalEdgeStyle;rounded=0;orthogonalLoop=1;jettySize=auto;html=1;" parent="1" source="25lFBpKABG4JQTpR2Emw-67" target="25lFBpKABG4JQTpR2Emw-71" edge="1">
          <mxGeometry relative="1" as="geometry" />
        </mxCell>
        <mxCell id="25lFBpKABG4JQTpR2Emw-66" style="edgeStyle=orthogonalEdgeStyle;rounded=0;orthogonalLoop=1;jettySize=auto;html=1;entryX=0;entryY=0.5;entryDx=0;entryDy=0;" parent="1" source="25lFBpKABG4JQTpR2Emw-67" target="25lFBpKABG4JQTpR2Emw-84" edge="1">
          <mxGeometry relative="1" as="geometry" />
        </mxCell>
        <mxCell id="25lFBpKABG4JQTpR2Emw-67" value="Renewal&lt;br&gt;Notification&lt;br&gt;Batch" style="sketch=0;html=1;aspect=fixed;strokeColor=none;shadow=0;fillColor=#3B8DF1;verticalAlign=top;labelPosition=center;verticalLabelPosition=bottom;shape=mxgraph.gcp2.process;fontSize=11;fontFamily=Poppins;fontSource=https%3A%2F%2Ffonts.googleapis.com%2Fcss%3Ffamily%3DPoppins;fontStyle=1;fontColor=#D10000;" parent="1" vertex="1">
          <mxGeometry x="520" y="725" width="42" height="50" as="geometry" />
        </mxCell>
        <mxCell id="25lFBpKABG4JQTpR2Emw-68" value="Thunderhead" style="image;aspect=fixed;html=1;points=[];align=center;fontSize=11;image=img/lib/azure2/compute/Image_Templates.svg;fontFamily=Poppins;fontSource=https%3A%2F%2Ffonts.googleapis.com%2Fcss%3Ffamily%3DPoppins;" parent="1" vertex="1">
          <mxGeometry x="512.6600000000001" y="595" width="56.67" height="50" as="geometry" />
        </mxCell>
        <mxCell id="25lFBpKABG4JQTpR2Emw-69" value="" style="edgeStyle=orthogonalEdgeStyle;rounded=0;orthogonalLoop=1;jettySize=auto;html=1;" parent="1" source="25lFBpKABG4JQTpR2Emw-70" target="25lFBpKABG4JQTpR2Emw-84" edge="1">
          <mxGeometry relative="1" as="geometry" />
        </mxCell>
        <mxCell id="25lFBpKABG4JQTpR2Emw-70" value="&lt;div style=&quot;line-height: 0%;&quot;&gt;OFFER&lt;/div&gt;" style="shape=image;html=1;verticalAlign=top;verticalLabelPosition=bottom;labelBackgroundColor=none;imageAspect=0;aspect=fixed;image=https://cdn2.iconfinder.com/data/icons/font-awesome/1792/table-128.png;fontSize=11;fontFamily=Poppins;fontSource=https%3A%2F%2Ffonts.googleapis.com%2Fcss%3Ffamily%3DPoppins;spacingBottom=0;spacingTop=-3;fontStyle=1;fontColor=#D10000;" parent="1" vertex="1">
          <mxGeometry x="610" y="684.84" width="50" height="50" as="geometry" />
        </mxCell>
        <mxCell id="25lFBpKABG4JQTpR2Emw-71" value="" style="sketch=0;pointerEvents=1;shadow=0;dashed=0;html=1;strokeColor=none;fillColor=#505050;labelPosition=center;verticalLabelPosition=bottom;verticalAlign=top;outlineConnect=0;align=center;shape=mxgraph.office.users.mail_user;" parent="1" vertex="1">
          <mxGeometry x="511.99999999999994" y="895.25" width="58" height="59" as="geometry" />
        </mxCell>
        <mxCell id="25lFBpKABG4JQTpR2Emw-72" style="edgeStyle=orthogonalEdgeStyle;rounded=0;orthogonalLoop=1;jettySize=auto;html=1;" parent="1" source="25lFBpKABG4JQTpR2Emw-73" target="25lFBpKABG4JQTpR2Emw-77" edge="1">
          <mxGeometry relative="1" as="geometry" />
        </mxCell>
        <mxCell id="25lFBpKABG4JQTpR2Emw-73" value="Payment" style="html=1;whiteSpace=wrap;strokeColor=none;fillColor=#0079D6;labelPosition=center;verticalLabelPosition=middle;verticalAlign=top;align=center;fontSize=12;outlineConnect=0;spacingTop=-6;fontColor=#FFFFFF;sketch=0;shape=mxgraph.sitemap.payment;" parent="1" vertex="1">
          <mxGeometry x="610" y="896.75" width="70" height="56" as="geometry" />
        </mxCell>
        <mxCell id="25lFBpKABG4JQTpR2Emw-74" style="edgeStyle=orthogonalEdgeStyle;rounded=0;orthogonalLoop=1;jettySize=auto;html=1;entryX=0;entryY=0.5;entryDx=0;entryDy=0;entryPerimeter=0;" parent="1" source="25lFBpKABG4JQTpR2Emw-71" target="25lFBpKABG4JQTpR2Emw-73" edge="1">
          <mxGeometry relative="1" as="geometry" />
        </mxCell>
        <mxCell id="25lFBpKABG4JQTpR2Emw-75" value="ACTS" style="sketch=0;outlineConnect=0;fontColor=#232F3E;gradientColor=none;strokeColor=none;fillColor=none;dashed=0;verticalLabelPosition=middle;verticalAlign=middle;align=left;html=1;fontSize=12;fontStyle=0;aspect=fixed;shape=mxgraph.aws4.resourceIcon;resIcon=mxgraph.aws4.bank;labelPosition=right;fontFamily=Poppins;fontSource=https%3A%2F%2Ffonts.googleapis.com%2Fcss%3Ffamily%3DPoppins;" parent="1" vertex="1">
          <mxGeometry x="730" y="855" width="30" height="30" as="geometry" />
        </mxCell>
        <mxCell id="25lFBpKABG4JQTpR2Emw-76" style="edgeStyle=orthogonalEdgeStyle;rounded=0;orthogonalLoop=1;jettySize=auto;html=1;" parent="1" source="25lFBpKABG4JQTpR2Emw-77" target="25lFBpKABG4JQTpR2Emw-82" edge="1">
          <mxGeometry relative="1" as="geometry" />
        </mxCell>
        <mxCell id="25lFBpKABG4JQTpR2Emw-77" value="Transactions&lt;div&gt;processing&lt;/div&gt;" style="sketch=0;html=1;aspect=fixed;strokeColor=none;shadow=0;fillColor=#3B8DF1;verticalAlign=top;labelPosition=center;verticalLabelPosition=bottom;shape=mxgraph.gcp2.process;fontSize=11;fontFamily=Poppins;fontSource=https%3A%2F%2Ffonts.googleapis.com%2Fcss%3Ffamily%3DPoppins;" parent="1" vertex="1">
          <mxGeometry x="749" y="899.75" width="42" height="50" as="geometry" />
        </mxCell>
        <mxCell id="25lFBpKABG4JQTpR2Emw-78" style="edgeStyle=orthogonalEdgeStyle;rounded=0;orthogonalLoop=1;jettySize=auto;html=1;" parent="1" source="25lFBpKABG4JQTpR2Emw-80" target="25lFBpKABG4JQTpR2Emw-70" edge="1">
          <mxGeometry relative="1" as="geometry">
            <Array as="points">
              <mxPoint x="861" y="705" />
            </Array>
          </mxGeometry>
        </mxCell>
        <mxCell id="25lFBpKABG4JQTpR2Emw-79" style="edgeStyle=orthogonalEdgeStyle;rounded=0;orthogonalLoop=1;jettySize=auto;html=1;" parent="1" source="25lFBpKABG4JQTpR2Emw-80" target="25lFBpKABG4JQTpR2Emw-83" edge="1">
          <mxGeometry relative="1" as="geometry" />
        </mxCell>
        <mxCell id="25lFBpKABG4JQTpR2Emw-80" value="Offer&lt;br&gt;Confirmation&lt;br&gt;Batch" style="sketch=0;html=1;aspect=fixed;strokeColor=none;shadow=0;fillColor=#3B8DF1;verticalAlign=top;labelPosition=center;verticalLabelPosition=bottom;shape=mxgraph.gcp2.process;fontSize=11;fontFamily=Poppins;fontSource=https%3A%2F%2Ffonts.googleapis.com%2Fcss%3Ffamily%3DPoppins;fontColor=#D10000;fontStyle=1" parent="1" vertex="1">
          <mxGeometry x="840" y="732.5" width="42" height="50" as="geometry" />
        </mxCell>
        <mxCell id="25lFBpKABG4JQTpR2Emw-81" value="" style="edgeStyle=orthogonalEdgeStyle;rounded=0;orthogonalLoop=1;jettySize=auto;html=1;" parent="1" source="25lFBpKABG4JQTpR2Emw-82" target="25lFBpKABG4JQTpR2Emw-80" edge="1">
          <mxGeometry relative="1" as="geometry" />
        </mxCell>
        <mxCell id="25lFBpKABG4JQTpR2Emw-82" value="Payments&lt;br&gt;Reconcialtion&lt;br&gt;Batch" style="sketch=0;html=1;aspect=fixed;strokeColor=none;shadow=0;fillColor=#3B8DF1;verticalAlign=top;labelPosition=center;verticalLabelPosition=bottom;shape=mxgraph.gcp2.process;fontSize=11;fontFamily=Poppins;fontSource=https%3A%2F%2Ffonts.googleapis.com%2Fcss%3Ffamily%3DPoppins;fontStyle=1;fontColor=#DB9102;" parent="1" vertex="1">
          <mxGeometry x="749" y="732.5" width="42" height="50" as="geometry" />
        </mxCell>
        <mxCell id="25lFBpKABG4JQTpR2Emw-83" value="TMO1_&lt;br&gt;EVENTMESSAGE&lt;br&gt;[OFFER_PAID]" style="shape=image;html=1;verticalAlign=top;verticalLabelPosition=bottom;labelBackgroundColor=none;imageAspect=0;aspect=fixed;image=https://cdn2.iconfinder.com/data/icons/font-awesome/1792/table-128.png;fontSize=11;fontFamily=Poppins;fontSource=https%3A%2F%2Ffonts.googleapis.com%2Fcss%3Ffamily%3DPoppins;spacingTop=-6;" parent="1" vertex="1">
          <mxGeometry x="930" y="732.5" width="50" height="50" as="geometry" />
        </mxCell>
        <mxCell id="25lFBpKABG4JQTpR2Emw-84" value="PERSON" style="shape=image;html=1;verticalAlign=top;verticalLabelPosition=bottom;labelBackgroundColor=none;imageAspect=0;aspect=fixed;image=https://cdn2.iconfinder.com/data/icons/font-awesome/1792/table-128.png;fontSize=11;fontFamily=Poppins;fontSource=https%3A%2F%2Ffonts.googleapis.com%2Fcss%3Ffamily%3DPoppins;spacingTop=-5;" parent="1" vertex="1">
          <mxGeometry x="610" y="755" width="50" height="50" as="geometry" />
        </mxCell>
        <mxCell id="25lFBpKABG4JQTpR2Emw-85" style="edgeStyle=orthogonalEdgeStyle;rounded=0;orthogonalLoop=1;jettySize=auto;html=1;" parent="1" source="25lFBpKABG4JQTpR2Emw-87" target="25lFBpKABG4JQTpR2Emw-83" edge="1">
          <mxGeometry relative="1" as="geometry" />
        </mxCell>
        <mxCell id="25lFBpKABG4JQTpR2Emw-86" style="edgeStyle=orthogonalEdgeStyle;rounded=0;orthogonalLoop=1;jettySize=auto;html=1;" parent="1" source="25lFBpKABG4JQTpR2Emw-87" target="25lFBpKABG4JQTpR2Emw-89" edge="1">
          <mxGeometry relative="1" as="geometry" />
        </mxCell>
        <mxCell id="25lFBpKABG4JQTpR2Emw-87" value="&lt;font data-font-src=&quot;https://fonts.googleapis.com/css?family=Poppins&quot; face=&quot;Poppins&quot;&gt;CISL&lt;br&gt;Adapter&lt;/font&gt;" style="sketch=0;pointerEvents=1;shadow=0;dashed=0;html=1;strokeColor=none;fillColor=#DF8C42;labelPosition=center;verticalLabelPosition=bottom;verticalAlign=top;align=center;outlineConnect=0;shape=mxgraph.veeam2.application;" parent="1" vertex="1">
          <mxGeometry x="1020" y="731.5" width="50" height="52" as="geometry" />
        </mxCell>
        <mxCell id="25lFBpKABG4JQTpR2Emw-88" value="Kafka" style="shape=image;verticalLabelPosition=middle;labelBackgroundColor=none;verticalAlign=middle;aspect=fixed;imageAspect=0;image=data:image/png,iVBORw0KGgoAAAANSUhEUgAAAQAAAAEACAYAAABccqhmAAAACXBIWXMAAAsSAAALEgHS3X78AAAZUklEQVR42u2debSWxZHGS4JoxBU1QHCLCgbEgPuuI7gAgwoG4aDijg4RcHfihuMSg7iMK2rQEBR3jfsWDMR1BMVdA0YRXFBBNhGRRZx+7L4zNzcX7uV+1W93v/38zqm/OOfS3V9Vvd3V1VUiRJu1jexj5FQjI4w8Y2SSkS+NzDPyjZE5Rj4x8rqRB41cZeQYI+2NrMolJCQdVjHySyPnGHnRyEIjP1QgM4zca6SfkfW4vITESVMj/Y2MN/J9hUa/PMFu4Q4jezhHQwiJYIuPr/0Xnoy+Nllm5CUj3Yw04k9ASPE0dl/8zws0/NocwTgj2/LnIKQ4tjbyQkDDrymLjVxuZA3+NIT4A+fu37iz+A8RyptGtuHPRIg++LreFqnhV5f5Rvrw5yJEjw0j2/LXJUuNnC28KSCkYloaeSsh468eILyMToCQyr78KRp/dbmUToCQhp35X0rc+Kt2Aifz5ySk/iC55o4SGH+VLDHSlT8rIfVjcImMv0q+MrIZf1pCVkwHI9+W0AFAkDXYmD8xIbWDp7cTSmr8VTKQPzMhtTOw5MYPmSv2apMQUo1mRmZ6Nj687b/PyJlGeop91ruzkU5i3/sPNfK8kUWexzGCPzch/8zFnowNtQGeMtLdyGr1HEsLI6cZ+cjTmOBgtuJPTohlXSOzPRjaa0b2rGBcqztH8DV3AYT442QPX/3LV+KLXxetjbyqPMYFRn7Gn57kDpJ+3hbdt/nHehjnmkYeVXYCp/PnJ7mzvfKX/xiPY13dxRM0jyh8J0Cy5vei+/CmiHjFJEWHxWAgyRZ8/d5UMiZUA25S0Lh3dkcNjXHzoRDJFly3LRGdAhw7FTz24UoO4BGqAcmVg5WM6MEAY28lOm8WUM6c7wNIllyg5AD2CTT+20WnXsAmVAWSI/cqGNDHAb+gXZUcWBeqAsmRVxSM548Bx4/cAI0S5QOoCiRHPlUwnhMDz0Hj+fLFVAWSG0jTnadgPJ0Cz2O0whyGUx1IbqCbr0YUvX3geVytMIeRVAeSG2uJzrv70Jl0wxTmcBvVgeTGGko7gI6B53GdpB3IJCQIqP+nUQOgW+B53K8wh2upDiRHpioYzxkBx4+3DO8pzGEIVYHkiEbDzwcDjr+56DwKOoaqQHLkT6JTZbdpoPEfJTqZgHtSFUiOnKFkQEcEGv9Y0WkbxtJgJEv2UXIAqNf3k4LHvoPYgh6Vjv1DYVUgkilri14bsL4FjhsG+xelcY+iGpCcGadkSNML3Eprnf0h/agCJGdOUzSmJ8TmF/gEqcfzlMb7ndibBEKyZTPRKQtWJTd7jAdsamSK4lif5s9PiMgY0a23j8c1qymPsZ2y8RcdtyAkWg4R/dZbLxrZQmFsCPgdZmSO8vg+N/LTxH6nRi7OghuQHmIbsKCj8ylGTjJytNgejHifsb7wdoPUE5zbJ3twAvONnC/2tqEhbGPkMbF1+7THdn4CvwvKrO/mxvqk2EBrfa8+caybKjZTE3GeDlL8VS1JiGM8GFmVoO34Ve7LVVf9wHWM9HKGv9TTeGaJbYce61d+TxdL+VJxzsvcEepy51gJ+ZddwNsenUD1Mtz4ml3nvmy/FVuSC09yUd7r2wLG8J8Rrj+OI8cX9BtgF/GckZ7cFZDq7Cc62XUxy+TIzv7YER1n5KNA6/GGixswXkB+5LYSG//3zsnFwi5GJkawLsvcrmxLqj9B9HhaSR3ADZGsMbocXya6+RdaQduBLg5BMmZv0akXGJO8LrYMWmg2E51S5j4FNwfr0QzyZrD4uX4LITMi2d4iuv9lImv2Ho8EeYOg0DUlMP4FRvaKYD2RuPNtYmuHG5vtaQr5giuiUQkbPx77HBTBOvZK+EiFnIkdaQr5gmuqWxP98sdg/F2cI0r9CNWOppAviApfmlBMYKYLZIYG6bdzSxJHQeUkPp3OHBTP+CZyRUViS+sI1grXqf+Qct2k/FX813sgkYOCHK9LnEk+N4ltGR5DAPV+KWcuxYU0AYK3/v8l8US1sT3tGtH6HCXlzaZEH4ZdaAIEtDFyn4R7P4Dz9XkSri9BbTR3MYgyv6fAMasJ1Z9UsYNzBIuluCDfJUY2jHAtbi5oDRCL+buRZ8VWSH7eyAdS3I3DIKo9qckv3BnRR/BriVP2YyM559dGO89OENl56GO4k9T+ohGxBxRfQb8HvPv/1ONYkNG4DlWe1AYSiLYT+97/+QqUbLoLpp1oZOME5n2nJ2Ob4GIcK/t2H7GaI93OwMe4zqaqk7poXYGCbZ3Y7kc72w/b/JOk8qIdeAQ1VPRfH34m6dVVJAk5gJSyzy5VNi4UCOmgPMZuol9c9TCqOMndAayqfN6e7PHIg7z+WaKbHERI1g6gk3JwbQvP4/030bstQNCzFdWc5OwAtJ5Nowpyl4LGfKqi0+pPNSe5OgBcvU1SMqQRBY4bgcUXlMZ9P9Wc5OoAWopO/4KvjbQoeOxoOqKRxTldWF6cZOoADlT6il4baPcyVmHseCa+OVWd5OgAzlUyoA6Bxn+YkgM7mKpOcnQAIxWM530J15gD1X8XKszhdKo6ydEBaGyhbw08h/EKc7ieqk5ydADvKBjP4MBzGKEwh3uo6iQ3B4Btu0YXpZ6B53GewhyepKqT3BwAiqVOVzCeToHnMViYEkzoAII5gH0Dz+MUhTmMoaqTHGMAGm29eweew0UKc3iMqk5ydABvKBjPbwPPYbTCHO6gqpMcHcATCsZzb+A5vKcwh6uo6qQ22legVGjqGXuO+Y0KxoMmnKEabmwiOm8ZTqKqE7ChO9MiMWSiVNZJaJkzDlwxIeV2d7F17mJCI4IO6Rxo/KcojX9fqn6+tHKG8Jz474I7051ZD4rEGewl6T6pRePXd0WnjkELmkFeYGv+70YekXCtrz8XW/56y4DrgDLcGh2SULCz6AdBfZR+B5SBX4UmkQfoCHOM0pdDs10VvqDbBVoTrcIaSKZpVNCY1xKdK0zILTSL8tPIne3fj8jwa9uKwhFsVeC6bGDkRcU5nFLAmFdxRqs15l40j3LTwZ3vU+ldh4KXw9xXzif7G/lEeew4Tu3nedwDxQZYNcY73x2DSAlZXWyW2KKEjL+6TBE/0Wk02vhv0bk+q03miW3v5YNjRbdByF00k3KCbfSriRp+zWMBjFXrxqCjkbcKGDcCi0cpBtcQ8UffRu1Ozp1pKuWjt/sKlaml9f+ITXqpxIDOFJ3qOSuTB4EU25YV/p5tjYzzML43hcVASxfou8jDVyIWQS+7XRuwLpuKjdCHGvdcse3QWzXA8G8Sfy3D+9FkygOu9/5UUsOv2XDzoHquCbbfKJo5S+IJbj4t9qYAjmxD97s1dkecn7vYAbImX/IYo4CgEtKqNJvyBPseyMD4q0fa+9axJs3c9nuZxB3fWOB2CN8WuHPDmnSn2ZTny5+T8VdPHuqznDVBhZ6pGa5JfeUhYeZfac78ozJWZGypu9TYCQ3zvHVOXXAc2pimUw4uoUL/uH1GotM2Rl7jetS59e9LsykHfUsc7W/Io6IFXAfW/s+FrcU2o6RS+5clJZnHGImvFgNpAD8VnTp2lBULdlc3O2f7UeJzwdFoPZpOObiMxuldUMWoR7U1b5PwrQKy/X5GsykHO4i9/gp9d42qPqgngGSV541MMPKh2JdlqRs/CqTUlrqL9tmTEpsL0qc3oNmUA+RsvxxoKzzR3TgcYKS5LD9/fHX3tTxCbNfdLxIyFjivAbLigh7I3BuXyHxQqbgpzaY8HFmwAs0xcqXY0t4NTRpB0AkZZ09K3Hfz6K7btp5zauLWJdb5IEvyLCmuMhEpgNULDEThOu13YlNptY8viETHlJq72O1smjRgPl1Fp7Godn7/zjSX8jGgIAUaK7YRiC+wk+jrYgihjeUDI3tUOJ91jFwt/l7rrczx5Xz3oSAlY1WnrL4De0PEvkorAqSivhDIWJa5+MQ6ivNp687cRecMoLbBzcLU3lLTy7MS4RXaoQHmhXyGOws2mBnitwAm4iXDxaYn+76mxHXwJjSP8jPGs/F3CTg37Dj+WJDxIxDZqqB5ocgmyoE9KnpXozg2oX5fD+c8SQZs7nFbuTTQl782J/CQ+I2KD5Jwpa/WFFt3D2f0P4styz5/BcFQXLviBuZtZ/CnG9lFmMabJWd7NIwhEc0TX8x3PO5y1o/sd0WwroWLHWxvZCexxUoRgN1AWKmHOF7xZBTjCgz41ZcOotOiqzY5kqpEUmNj8ZNsskD8XvVVwgXiLyuOkKTwlfl3acRzRsMOHwlPX0nDkn0ICYaP6PicCM/DNTnBk+PbjipFUsJH996rEpg3rrg+9zD3gVQpkgrrin4/P1wvtUtk/pd7cAAjqVYkFXbwYACvSzqloHcU/UdDr1KtSCoc7sEB/C6h+eOK8jPl+c8W3q+TRPCRANQlsTW4z8MRiKWxSBIM96D8LRNbg3M8OMEOVC2SAneL/j1448TWwMcryE5ULZICjysr/t8TXIPdPDiAQ6haJAW0nwC/nOAabO3BAbAtFkmCscqK/0KCa/BLDw6gH1WLpMDTyoo/McE16OjBAfShapEUeFhZ8fHAJrV+8J09OIADqVokBUaJ/hPg1MpIHevBAexO1SIpcIUH5W+X2Bpc6WENWlO1SAoM9KD8Rye2Bs+Lfm3AtalaJAW6e3AAtyc0f7yG1C4P9nGCcRCSKVuK/ms4lJVOpXNMHw8OcAzViqQCylfN9mAEPROZ/2Me5j6MakVSwkcb6hS+ggjULfYw90OpUiQlLvFgBHgVuGvk8/6D+GmC0ooqRVLCRyIM5G8Sb+/49qJfCq2qbTYDgCQpUCJ7jicncFSE80XrrrGe5ns51YmkyH2eDGKWkc0im+upnuYK2YOqRFLk1x6NYrzbZcTAXka+8zTPTySuYii44dlIbE/AA8TWKEDxk4Pdse9XYkuX/YTqT5qKrebjywlghxG6UCYaZM7wOEd0Vx4q4brrbio2CxPBTbzKnCc2GFtX0BK/O7IhrzXSW1jPMFuu8WgckNESrm1WW/eF/qEAQaPVot5DoK37uUbeEL3+jgiOoq7DYCPNaRb50NZ9xXwaB0qQrRtg2z+jIOOvkvlGBoifWxDcMuxr5IkCfi+kSd8ptn8CyYCHCzCOSe5c6hucbU/zeOavjzxipIXinPZxX+dlBc/je+e8t6eJlJud63Fu1BAYJRqIrOlpHrjnHxfQ8KvLdLGPrioBLdwfKOi3qSvOMcLIBjSV8vJQgQqFc/lARUfQxsgt4ifJp9Iv6PUu2Lqy2/3jjcyNbD5waj1oKuWNBRS9bZ7hgpBIH17Z24L1xFbhLeJMXKm8LfVvH46aAvdEPBc4tesk3K0H8cgVARXrS7cLGeIMe2+xnXZQvhvNTHGn3d/I1UZeMrIwcqOvKRjvGbLi+/ctxKYVpzCf54RXh6VjLSNTEjOs1GSMO9vXBIG2zxOby2SxV5KkROCqaSkN1asgCad3jSDsrETnMk1sgRlSIq6kkXoXXOmNFFtJeGbic/lQbPoxKQmruXM2DbWYoFoZ5jFRWBS1VMCjf0oD/VGeSXiLXqTg9qIRTac8IBX068yV+lmxxU43MfJXGnmdMohmUy66Sdi02pCCxzbrV1sLPPs9S9K7gixS0CWqLc2mXKBuwKLMFPldIy2Xsx7bu3+nwS9/18R6AyUDBSW+zUSB31yB8VeB9N4bIg7i4ZYBJd/QuBUPsaYVfJw7giZTPvbJIBiGx0TNVmJN0BE4lgQe5Bfc4nZsSDZatZbbHdzZH2nkXiPfeBzLVEmvYSypB+3cF6WMxn+rNKy7EXYLjwYcN4ztRFn5R0d43XeuR6d+Es2lnKC4xwMlMnwcbX4jlZX2buT+xjcFjruqHFnTCn9P5PSPFv16Ax9I+JJwxBNVCj+/BOf9bRXXBY+XJha03d9PcdxwfnhspX3jczBNpdyg1dYzCRo+rvIuET8NTfE3h4m/Z8qIOWzj6ffsphzsfYQmksdu4DB3Fk0hB/9J96X2DcpwT1MePyL5vkt0oc/hUkVHy0pCmYA+AEiU+SJS43/RyP5SbBsvJBK9rOi8Di9o3L8XXgmSBoK6AicbeT8Co8eX7Al3Xg7Vv+8Vpbk8UOAccGX4ltK4R9Mk8gQR4C7i/865NvnIfcXaBF4D5BRoZFFiK71FwWPvIjo3A9OEj4SyZx2xpb5Gi5/EGQTckLuPa7HdJJ52XVpdmEcGGDt2GxMUxo5syY1pAqQKGCcejBwntmpuQ68SYfAXGTlI4u1mc7rS2X/XQOPvr+TAulHtyfKY3EClOiuBuf1BaQsd6nENHOtihTmcTDUnOTqApxWM5/bAc3hDYQ7XUM1Jjg5AI5J+euA5jFSYw11Uc5KjA5iqYDy9As/hAoU5PEE1J7k5AFx9TVcwns6B53GywhyeoZoTOgA6AEJ4BOARgJA8HMCbwiAgg4AkWwcwRngNyGtAkq0DuEWYCMREIJKtAzhTmArMVGCSrQM4QNJ+DDRe+BiI0AE0mA2UttB8DkzoABJ0AEDjJoAFQQgdQKIOYKiwJBgh2TqAXRSNiUVBCR1AYg4AV3j/UHQCPsuCdxWWBSd0AOqcK7ol0Hw0Bjle2BiE0AF4oYWRBaJfB5GtwUjSoIvOhw1UsAslreulG0W/GGpVc9AThM1BSSIgKWSQ2A49c6SyBBOU/x4htk33GpHPe1Pl83VNmenW4hBhe3ASGU2M9Bb7OMZXz7xZ7ivbMeJ1GOrR6GpeGcK5ThHbzh0G+XVB/zev/sj/ga/AQPelLkr5sDNAMc49I1yPtUW/X2Bs8qyEe7xEIgFn8z4VnO+1voIPS/juQDU50DmpMho/Ap1tqf55s7nolMPWEpy7z3fHkFi4qaQOYBDVP2/6GZkbqXK+7IJgMYCA5aslM/57hI9+sg7yDRf9u2QfgcLukazZL0SnaGgMMtHFN0iGoPHnXxJS1iUuMBkDO0a8Y6qvIM6zEc0gT9Y38kqCSrvMxQVWiWAN9zYyL1HjnxbRsYoUzLqJn2PhBM6NZC3R0vyrxNZvsgv4kgxBVtnYEpxdcR3XP5I1xfXZ+4ms23Ni3xCQDMG2+RYpT/R6kZFOkaxtM7FPaGN2mNe5DwDJlP4Sf7S/IW/sW0Wyvo1ckHJ+hGvUg+qfN20jVEwteUriusdGEdBHI3C2uDXBIyNW9smcxkZekHLnsZ8Q4XELpcXHS5jt/uPivwQZSYQTSm78VZV2YgxuYWeyv9ulLBH/qdPo5bcTVZ5UgWSfLzwr3lz3xUE32sPdlw/BuQOd87lWbMaZbwO4IfLfAkcD5DCg3LhW8c5Fbnc3WGw7MEL+iSHi7y4ez0dRiba+FW02dQbwmacxoS5eCvfbOB5sZuRod0afIDahqK6Xht+7nc6LYpt2Hiq80iMrADneMz0Y2rtuW9vQbLw1nSNY4GFsNyb6W6EKUEsj27kdVE9n4IjedzbSwX3hG1OtSX05ycNX/3rRKxm1tZG3lceImw5GvUn24Ov8hqJhLRU/xSJ9PEhiS2uSPR1F7x4af2eAx7Hijf04RQfwisTxWIiQYFyiaFBXFTBevE7UKkOGYBlfupGseV3JmF6T4vLH9xC9q0KWuCLZ0lzJkPAl3b3gsWs9VnqQakBy5UAlI3o0wNiRK7BQdB7AsMQ1yZILlBzAfoHGf5foBC43oSqQHLlbwYA+lXANIrsrObD9qQokRzRq/Y0KOP61RKcX339QFUiOfKpgPAMCz0GjZuHFVAWSG6jzr1GuunPgedwh5X8dSIg6TZW2z+0Dz+NqhTmMpDqQ3MD5eZGC8WwVeB7DFOZwG9WB5Aby6jWe2XYIPI/rFOZwK9WB5Aau7mYrGE/XwPO4T2EO11IdSI5MVTCe0wLP4R2FOQyhKpAc0agA/EDA8W9oZLHCHI6lKpAcGaVgPLNdPCEEh4tOJuDeVAWSI2cqGVCfQOPXqBCECkYsmEmypLOSA3hZiu+401F0SmZPEVYFIpmCOnsLlZxArwLHDYN9XGnco6kGJGeeVTKkj8WW6yqCvqJXx/AoqgBhHEBHHhL/xTWQeThb9LrltKQKkJzZXPTaT0Gu8RgP+LmR9xXH+gx/fkJ0S21Xdd3RLhLS2sgk5XH2409PiL3G0269NVb0Sm2h/dVXyuP7Uurfq5CQUoPaAB96cAJzjJwhDU8UamPkXtEL+FWXC/mzE/L/nCB+OvFCpottQLJNPeIDcBbdnOEv8jQeOCb2BSSkGqt5OGPXVoF3mtj3A5e53QH6850jtirP38S2v/7Bs5zHn5uQf6W7p+12TDKFZ39CamcVt/Uuq/F/744XhJDl0Nyd2cvoAEbw5yWkbrqIXvPNWASFQ9biT0tI/TinRMaP1OG2/EkJqT+4rru1BMb/nYTrXUhI0iCd9/6EjR/lwnrzZySk4SA/4J5Ev/x9+PMRorMTuD4h40emXxf+bITogRyBge7LGrPxI5uxPX8uQvywi+i+yddMM75dbJkzQohHcJ+OppyLIzF+tDn/tbC4JyGFsq3Yqjqh3g98Y2Qov/qEhI0NoLz4GLG59kUY/jy3A9mIy09IPPxKbE3AL8TPQ55XjQwy0oxLTUi8NHG7giuMvCYNvzmYZeRJsQ1I2/CMT0iarGtkVyPHia0MhBTjPxt5ysUQ0OTjbiPDjZxt5FCxuftNuHSkSP4X++MPoUBbrVkAAAAASUVORK5CYII=;labelPosition=right;align=left;fontFamily=Poppins;fontSource=https%3A%2F%2Ffonts.googleapis.com%2Fcss%3Ffamily%3DPoppins;" parent="1" vertex="1">
          <mxGeometry x="1116.25" y="684.84" width="20" height="20" as="geometry" />
        </mxCell>
        <mxCell id="25lFBpKABG4JQTpR2Emw-89" value="Contract&#xa;Creation&#xa;Topic" style="shape=image;verticalLabelPosition=bottom;labelBackgroundColor=none;verticalAlign=top;aspect=fixed;imageAspect=0;image=data:image/png,iVBORw0KGgoAAAANSUhEUgAAAQAAAAEACAYAAABccqhmAAAACXBIWXMAAAsSAAALEgHS3X78AAAZUklEQVR42u2debSWxZHGS4JoxBU1QHCLCgbEgPuuI7gAgwoG4aDijg4RcHfihuMSg7iMK2rQEBR3jfsWDMR1BMVdA0YRXFBBNhGRRZx+7L4zNzcX7uV+1W93v/38zqm/OOfS3V9Vvd3V1VUiRJu1jexj5FQjI4w8Y2SSkS+NzDPyjZE5Rj4x8rqRB41cZeQYI+2NrMolJCQdVjHySyPnGHnRyEIjP1QgM4zca6SfkfW4vITESVMj/Y2MN/J9hUa/PMFu4Q4jezhHQwiJYIuPr/0Xnoy+Nllm5CUj3Yw04k9ASPE0dl/8zws0/NocwTgj2/LnIKQ4tjbyQkDDrymLjVxuZA3+NIT4A+fu37iz+A8RyptGtuHPRIg++LreFqnhV5f5Rvrw5yJEjw0j2/LXJUuNnC28KSCkYloaeSsh468eILyMToCQyr78KRp/dbmUToCQhp35X0rc+Kt2Aifz5ySk/iC55o4SGH+VLDHSlT8rIfVjcImMv0q+MrIZf1pCVkwHI9+W0AFAkDXYmD8xIbWDp7cTSmr8VTKQPzMhtTOw5MYPmSv2apMQUo1mRmZ6Nj687b/PyJlGeop91ruzkU5i3/sPNfK8kUWexzGCPzch/8zFnowNtQGeMtLdyGr1HEsLI6cZ+cjTmOBgtuJPTohlXSOzPRjaa0b2rGBcqztH8DV3AYT442QPX/3LV+KLXxetjbyqPMYFRn7Gn57kDpJ+3hbdt/nHehjnmkYeVXYCp/PnJ7mzvfKX/xiPY13dxRM0jyh8J0Cy5vei+/CmiHjFJEWHxWAgyRZ8/d5UMiZUA25S0Lh3dkcNjXHzoRDJFly3LRGdAhw7FTz24UoO4BGqAcmVg5WM6MEAY28lOm8WUM6c7wNIllyg5AD2CTT+20WnXsAmVAWSI/cqGNDHAb+gXZUcWBeqAsmRVxSM548Bx4/cAI0S5QOoCiRHPlUwnhMDz0Hj+fLFVAWSG0jTnadgPJ0Cz2O0whyGUx1IbqCbr0YUvX3geVytMIeRVAeSG2uJzrv70Jl0wxTmcBvVgeTGGko7gI6B53GdpB3IJCQIqP+nUQOgW+B53K8wh2upDiRHpioYzxkBx4+3DO8pzGEIVYHkiEbDzwcDjr+56DwKOoaqQHLkT6JTZbdpoPEfJTqZgHtSFUiOnKFkQEcEGv9Y0WkbxtJgJEv2UXIAqNf3k4LHvoPYgh6Vjv1DYVUgkilri14bsL4FjhsG+xelcY+iGpCcGadkSNML3Eprnf0h/agCJGdOUzSmJ8TmF/gEqcfzlMb7ndibBEKyZTPRKQtWJTd7jAdsamSK4lif5s9PiMgY0a23j8c1qymPsZ2y8RcdtyAkWg4R/dZbLxrZQmFsCPgdZmSO8vg+N/LTxH6nRi7OghuQHmIbsKCj8ylGTjJytNgejHifsb7wdoPUE5zbJ3twAvONnC/2tqEhbGPkMbF1+7THdn4CvwvKrO/mxvqk2EBrfa8+caybKjZTE3GeDlL8VS1JiGM8GFmVoO34Ve7LVVf9wHWM9HKGv9TTeGaJbYce61d+TxdL+VJxzsvcEepy51gJ+ZddwNsenUD1Mtz4ml3nvmy/FVuSC09yUd7r2wLG8J8Rrj+OI8cX9BtgF/GckZ7cFZDq7Cc62XUxy+TIzv7YER1n5KNA6/GGixswXkB+5LYSG//3zsnFwi5GJkawLsvcrmxLqj9B9HhaSR3ADZGsMbocXya6+RdaQduBLg5BMmZv0akXGJO8LrYMWmg2E51S5j4FNwfr0QzyZrD4uX4LITMi2d4iuv9lImv2Ho8EeYOg0DUlMP4FRvaKYD2RuPNtYmuHG5vtaQr5giuiUQkbPx77HBTBOvZK+EiFnIkdaQr5gmuqWxP98sdg/F2cI0r9CNWOppAviApfmlBMYKYLZIYG6bdzSxJHQeUkPp3OHBTP+CZyRUViS+sI1grXqf+Qct2k/FX813sgkYOCHK9LnEk+N4ltGR5DAPV+KWcuxYU0AYK3/v8l8US1sT3tGtH6HCXlzaZEH4ZdaAIEtDFyn4R7P4Dz9XkSri9BbTR3MYgyv6fAMasJ1Z9UsYNzBIuluCDfJUY2jHAtbi5oDRCL+buRZ8VWSH7eyAdS3I3DIKo9qckv3BnRR/BriVP2YyM559dGO89OENl56GO4k9T+ohGxBxRfQb8HvPv/1ONYkNG4DlWe1AYSiLYT+97/+QqUbLoLpp1oZOME5n2nJ2Ob4GIcK/t2H7GaI93OwMe4zqaqk7poXYGCbZ3Y7kc72w/b/JOk8qIdeAQ1VPRfH34m6dVVJAk5gJSyzy5VNi4UCOmgPMZuol9c9TCqOMndAayqfN6e7PHIg7z+WaKbHERI1g6gk3JwbQvP4/030bstQNCzFdWc5OwAtJ5Nowpyl4LGfKqi0+pPNSe5OgBcvU1SMqQRBY4bgcUXlMZ9P9Wc5OoAWopO/4KvjbQoeOxoOqKRxTldWF6cZOoADlT6il4baPcyVmHseCa+OVWd5OgAzlUyoA6Bxn+YkgM7mKpOcnQAIxWM530J15gD1X8XKszhdKo6ydEBaGyhbw08h/EKc7ieqk5ydADvKBjP4MBzGKEwh3uo6iQ3B4Btu0YXpZ6B53GewhyepKqT3BwAiqVOVzCeToHnMViYEkzoAII5gH0Dz+MUhTmMoaqTHGMAGm29eweew0UKc3iMqk5ydABvKBjPbwPPYbTCHO6gqpMcHcATCsZzb+A5vKcwh6uo6qQ22legVGjqGXuO+Y0KxoMmnKEabmwiOm8ZTqKqE7ChO9MiMWSiVNZJaJkzDlwxIeV2d7F17mJCI4IO6Rxo/KcojX9fqn6+tHKG8Jz474I7051ZD4rEGewl6T6pRePXd0WnjkELmkFeYGv+70YekXCtrz8XW/56y4DrgDLcGh2SULCz6AdBfZR+B5SBX4UmkQfoCHOM0pdDs10VvqDbBVoTrcIaSKZpVNCY1xKdK0zILTSL8tPIne3fj8jwa9uKwhFsVeC6bGDkRcU5nFLAmFdxRqs15l40j3LTwZ3vU+ldh4KXw9xXzif7G/lEeew4Tu3nedwDxQZYNcY73x2DSAlZXWyW2KKEjL+6TBE/0Wk02vhv0bk+q03miW3v5YNjRbdByF00k3KCbfSriRp+zWMBjFXrxqCjkbcKGDcCi0cpBtcQ8UffRu1Ozp1pKuWjt/sKlaml9f+ITXqpxIDOFJ3qOSuTB4EU25YV/p5tjYzzML43hcVASxfou8jDVyIWQS+7XRuwLpuKjdCHGvdcse3QWzXA8G8Sfy3D+9FkygOu9/5UUsOv2XDzoHquCbbfKJo5S+IJbj4t9qYAjmxD97s1dkecn7vYAbImX/IYo4CgEtKqNJvyBPseyMD4q0fa+9axJs3c9nuZxB3fWOB2CN8WuHPDmnSn2ZTny5+T8VdPHuqznDVBhZ6pGa5JfeUhYeZfac78ozJWZGypu9TYCQ3zvHVOXXAc2pimUw4uoUL/uH1GotM2Rl7jetS59e9LsykHfUsc7W/Io6IFXAfW/s+FrcU2o6RS+5clJZnHGImvFgNpAD8VnTp2lBULdlc3O2f7UeJzwdFoPZpOObiMxuldUMWoR7U1b5PwrQKy/X5GsykHO4i9/gp9d42qPqgngGSV541MMPKh2JdlqRs/CqTUlrqL9tmTEpsL0qc3oNmUA+RsvxxoKzzR3TgcYKS5LD9/fHX3tTxCbNfdLxIyFjivAbLigh7I3BuXyHxQqbgpzaY8HFmwAs0xcqXY0t4NTRpB0AkZZ09K3Hfz6K7btp5zauLWJdb5IEvyLCmuMhEpgNULDEThOu13YlNptY8viETHlJq72O1smjRgPl1Fp7Godn7/zjSX8jGgIAUaK7YRiC+wk+jrYgihjeUDI3tUOJ91jFwt/l7rrczx5Xz3oSAlY1WnrL4De0PEvkorAqSivhDIWJa5+MQ6ivNp687cRecMoLbBzcLU3lLTy7MS4RXaoQHmhXyGOws2mBnitwAm4iXDxaYn+76mxHXwJjSP8jPGs/F3CTg37Dj+WJDxIxDZqqB5ocgmyoE9KnpXozg2oX5fD+c8SQZs7nFbuTTQl782J/CQ+I2KD5Jwpa/WFFt3D2f0P4styz5/BcFQXLviBuZtZ/CnG9lFmMabJWd7NIwhEc0TX8x3PO5y1o/sd0WwroWLHWxvZCexxUoRgN1AWKmHOF7xZBTjCgz41ZcOotOiqzY5kqpEUmNj8ZNsskD8XvVVwgXiLyuOkKTwlfl3acRzRsMOHwlPX0nDkn0ICYaP6PicCM/DNTnBk+PbjipFUsJH996rEpg3rrg+9zD3gVQpkgrrin4/P1wvtUtk/pd7cAAjqVYkFXbwYACvSzqloHcU/UdDr1KtSCoc7sEB/C6h+eOK8jPl+c8W3q+TRPCRANQlsTW4z8MRiKWxSBIM96D8LRNbg3M8OMEOVC2SAneL/j1448TWwMcryE5ULZICjysr/t8TXIPdPDiAQ6haJAW0nwC/nOAabO3BAbAtFkmCscqK/0KCa/BLDw6gH1WLpMDTyoo/McE16OjBAfShapEUeFhZ8fHAJrV+8J09OIADqVokBUaJ/hPg1MpIHevBAexO1SIpcIUH5W+X2Bpc6WENWlO1SAoM9KD8Rye2Bs+Lfm3AtalaJAW6e3AAtyc0f7yG1C4P9nGCcRCSKVuK/ms4lJVOpXNMHw8OcAzViqQCylfN9mAEPROZ/2Me5j6MakVSwkcb6hS+ggjULfYw90OpUiQlLvFgBHgVuGvk8/6D+GmC0ooqRVLCRyIM5G8Sb+/49qJfCq2qbTYDgCQpUCJ7jicncFSE80XrrrGe5ns51YmkyH2eDGKWkc0im+upnuYK2YOqRFLk1x6NYrzbZcTAXka+8zTPTySuYii44dlIbE/AA8TWKEDxk4Pdse9XYkuX/YTqT5qKrebjywlghxG6UCYaZM7wOEd0Vx4q4brrbio2CxPBTbzKnCc2GFtX0BK/O7IhrzXSW1jPMFuu8WgckNESrm1WW/eF/qEAQaPVot5DoK37uUbeEL3+jgiOoq7DYCPNaRb50NZ9xXwaB0qQrRtg2z+jIOOvkvlGBoifWxDcMuxr5IkCfi+kSd8ptn8CyYCHCzCOSe5c6hucbU/zeOavjzxipIXinPZxX+dlBc/je+e8t6eJlJud63Fu1BAYJRqIrOlpHrjnHxfQ8KvLdLGPrioBLdwfKOi3qSvOMcLIBjSV8vJQgQqFc/lARUfQxsgt4ifJp9Iv6PUu2Lqy2/3jjcyNbD5waj1oKuWNBRS9bZ7hgpBIH17Z24L1xFbhLeJMXKm8LfVvH46aAvdEPBc4tesk3K0H8cgVARXrS7cLGeIMe2+xnXZQvhvNTHGn3d/I1UZeMrIwcqOvKRjvGbLi+/ctxKYVpzCf54RXh6VjLSNTEjOs1GSMO9vXBIG2zxOby2SxV5KkROCqaSkN1asgCad3jSDsrETnMk1sgRlSIq6kkXoXXOmNFFtJeGbic/lQbPoxKQmruXM2DbWYoFoZ5jFRWBS1VMCjf0oD/VGeSXiLXqTg9qIRTac8IBX068yV+lmxxU43MfJXGnmdMohmUy66Sdi02pCCxzbrV1sLPPs9S9K7gixS0CWqLc2mXKBuwKLMFPldIy2Xsx7bu3+nwS9/18R6AyUDBSW+zUSB31yB8VeB9N4bIg7i4ZYBJd/QuBUPsaYVfJw7giZTPvbJIBiGx0TNVmJN0BE4lgQe5Bfc4nZsSDZatZbbHdzZH2nkXiPfeBzLVEmvYSypB+3cF6WMxn+rNKy7EXYLjwYcN4ztRFn5R0d43XeuR6d+Es2lnKC4xwMlMnwcbX4jlZX2buT+xjcFjruqHFnTCn9P5PSPFv16Ax9I+JJwxBNVCj+/BOf9bRXXBY+XJha03d9PcdxwfnhspX3jczBNpdyg1dYzCRo+rvIuET8NTfE3h4m/Z8qIOWzj6ffsphzsfYQmksdu4DB3Fk0hB/9J96X2DcpwT1MePyL5vkt0oc/hUkVHy0pCmYA+AEiU+SJS43/RyP5SbBsvJBK9rOi8Di9o3L8XXgmSBoK6AicbeT8Co8eX7Al3Xg7Vv+8Vpbk8UOAccGX4ltK4R9Mk8gQR4C7i/865NvnIfcXaBF4D5BRoZFFiK71FwWPvIjo3A9OEj4SyZx2xpb5Gi5/EGQTckLuPa7HdJJ52XVpdmEcGGDt2GxMUxo5syY1pAqQKGCcejBwntmpuQ68SYfAXGTlI4u1mc7rS2X/XQOPvr+TAulHtyfKY3EClOiuBuf1BaQsd6nENHOtihTmcTDUnOTqApxWM5/bAc3hDYQ7XUM1Jjg5AI5J+euA5jFSYw11Uc5KjA5iqYDy9As/hAoU5PEE1J7k5AFx9TVcwns6B53GywhyeoZoTOgA6AEJ4BOARgJA8HMCbwiAgg4AkWwcwRngNyGtAkq0DuEWYCMREIJKtAzhTmArMVGCSrQM4QNJ+DDRe+BiI0AE0mA2UttB8DkzoABJ0AEDjJoAFQQgdQKIOYKiwJBgh2TqAXRSNiUVBCR1AYg4AV3j/UHQCPsuCdxWWBSd0AOqcK7ol0Hw0Bjle2BiE0AF4oYWRBaJfB5GtwUjSoIvOhw1UsAslreulG0W/GGpVc9AThM1BSSIgKWSQ2A49c6SyBBOU/x4htk33GpHPe1Pl83VNmenW4hBhe3ASGU2M9Bb7OMZXz7xZ7ivbMeJ1GOrR6GpeGcK5ThHbzh0G+XVB/zev/sj/ga/AQPelLkr5sDNAMc49I1yPtUW/X2Bs8qyEe7xEIgFn8z4VnO+1voIPS/juQDU50DmpMho/Ap1tqf55s7nolMPWEpy7z3fHkFi4qaQOYBDVP2/6GZkbqXK+7IJgMYCA5aslM/57hI9+sg7yDRf9u2QfgcLukazZL0SnaGgMMtHFN0iGoPHnXxJS1iUuMBkDO0a8Y6qvIM6zEc0gT9Y38kqCSrvMxQVWiWAN9zYyL1HjnxbRsYoUzLqJn2PhBM6NZC3R0vyrxNZvsgv4kgxBVtnYEpxdcR3XP5I1xfXZ+4ms23Ni3xCQDMG2+RYpT/R6kZFOkaxtM7FPaGN2mNe5DwDJlP4Sf7S/IW/sW0Wyvo1ckHJ+hGvUg+qfN20jVEwteUriusdGEdBHI3C2uDXBIyNW9smcxkZekHLnsZ8Q4XELpcXHS5jt/uPivwQZSYQTSm78VZV2YgxuYWeyv9ulLBH/qdPo5bcTVZ5UgWSfLzwr3lz3xUE32sPdlw/BuQOd87lWbMaZbwO4IfLfAkcD5DCg3LhW8c5Fbnc3WGw7MEL+iSHi7y4ez0dRiba+FW02dQbwmacxoS5eCvfbOB5sZuRod0afIDahqK6Xht+7nc6LYpt2Hiq80iMrADneMz0Y2rtuW9vQbLw1nSNY4GFsNyb6W6EKUEsj27kdVE9n4IjedzbSwX3hG1OtSX05ycNX/3rRKxm1tZG3lceImw5GvUn24Ov8hqJhLRU/xSJ9PEhiS2uSPR1F7x4af2eAx7Hijf04RQfwisTxWIiQYFyiaFBXFTBevE7UKkOGYBlfupGseV3JmF6T4vLH9xC9q0KWuCLZ0lzJkPAl3b3gsWs9VnqQakBy5UAlI3o0wNiRK7BQdB7AsMQ1yZILlBzAfoHGf5foBC43oSqQHLlbwYA+lXANIrsrObD9qQokRzRq/Y0KOP61RKcX339QFUiOfKpgPAMCz0GjZuHFVAWSG6jzr1GuunPgedwh5X8dSIg6TZW2z+0Dz+NqhTmMpDqQ3MD5eZGC8WwVeB7DFOZwG9WB5Aby6jWe2XYIPI/rFOZwK9WB5Aau7mYrGE/XwPO4T2EO11IdSI5MVTCe0wLP4R2FOQyhKpAc0agA/EDA8W9oZLHCHI6lKpAcGaVgPLNdPCEEh4tOJuDeVAWSI2cqGVCfQOPXqBCECkYsmEmypLOSA3hZiu+401F0SmZPEVYFIpmCOnsLlZxArwLHDYN9XGnco6kGJGeeVTKkj8WW6yqCvqJXx/AoqgBhHEBHHhL/xTWQeThb9LrltKQKkJzZXPTaT0Gu8RgP+LmR9xXH+gx/fkJ0S21Xdd3RLhLS2sgk5XH2409PiL3G0269NVb0Sm2h/dVXyuP7Uurfq5CQUoPaAB96cAJzjJwhDU8UamPkXtEL+FWXC/mzE/L/nCB+OvFCpottQLJNPeIDcBbdnOEv8jQeOCb2BSSkGqt5OGPXVoF3mtj3A5e53QH6850jtirP38S2v/7Bs5zHn5uQf6W7p+12TDKFZ39CamcVt/Uuq/F/744XhJDl0Nyd2cvoAEbw5yWkbrqIXvPNWASFQ9biT0tI/TinRMaP1OG2/EkJqT+4rru1BMb/nYTrXUhI0iCd9/6EjR/lwnrzZySk4SA/4J5Ev/x9+PMRorMTuD4h40emXxf+bITogRyBge7LGrPxI5uxPX8uQvywi+i+yddMM75dbJkzQohHcJ+OppyLIzF+tDn/tbC4JyGFsq3Yqjqh3g98Y2Qov/qEhI0NoLz4GLG59kUY/jy3A9mIy09IPPxKbE3AL8TPQ55XjQwy0oxLTUi8NHG7giuMvCYNvzmYZeRJsQ1I2/CMT0iarGtkVyPHia0MhBTjPxt5ysUQ0OTjbiPDjZxt5FCxuftNuHSkSP4X++MPoUBbrVkAAAAASUVORK5CYII=;labelPosition=center;align=center;fontFamily=Poppins;fontSource=https%3A%2F%2Ffonts.googleapis.com%2Fcss%3Ffamily%3DPoppins;fontSize=11;fontStyle=1;fontColor=#D10000;" parent="1" vertex="1">
          <mxGeometry x="1136.25" y="733.75" width="47.5" height="47.5" as="geometry" />
        </mxCell>
        <mxCell id="25lFBpKABG4JQTpR2Emw-90" value="&lt;font data-font-src=&quot;https://fonts.googleapis.com/css?family=Poppins&quot; face=&quot;Poppins&quot;&gt;Proteo&lt;/font&gt;" style="rounded=1;whiteSpace=wrap;html=1;fillColor=#bac8d3;strokeColor=none;labelPosition=left;verticalLabelPosition=top;align=right;verticalAlign=bottom;spacingTop=0;spacingBottom=-24;spacingLeft=0;spacingRight=-52;" parent="1" vertex="1">
          <mxGeometry x="1110" y="855" width="100" height="275" as="geometry" />
        </mxCell>
        <mxCell id="25lFBpKABG4JQTpR2Emw-91" style="edgeStyle=orthogonalEdgeStyle;rounded=0;orthogonalLoop=1;jettySize=auto;html=1;" parent="1" source="i_65pvg57PXlXJrEgh0k-1" target="25lFBpKABG4JQTpR2Emw-89" edge="1">
          <mxGeometry relative="1" as="geometry" />
        </mxCell>
        <mxCell id="25lFBpKABG4JQTpR2Emw-92" value="&lt;font face=&quot;Poppins&quot;&gt;Contract&lt;br&gt;Creation&lt;br&gt;EPC&lt;/font&gt;" style="sketch=0;pointerEvents=1;shadow=0;dashed=0;html=1;strokeColor=none;fillColor=#DF8C42;labelPosition=center;verticalLabelPosition=bottom;verticalAlign=top;align=center;outlineConnect=0;shape=mxgraph.veeam2.application;" parent="1" vertex="1">
          <mxGeometry x="1135" y="1020" width="50" height="52" as="geometry" />
        </mxCell>
        <mxCell id="i_65pvg57PXlXJrEgh0k-2" value="" style="edgeStyle=orthogonalEdgeStyle;rounded=0;orthogonalLoop=1;jettySize=auto;html=1;" edge="1" parent="1" source="25lFBpKABG4JQTpR2Emw-92" target="i_65pvg57PXlXJrEgh0k-1">
          <mxGeometry relative="1" as="geometry">
            <mxPoint x="1160" y="1020" as="sourcePoint" />
            <mxPoint x="1160" y="781" as="targetPoint" />
          </mxGeometry>
        </mxCell>
        <mxCell id="i_65pvg57PXlXJrEgh0k-1" value="&lt;font face=&quot;Poppins&quot;&gt;Offer&lt;br&gt;Adapter&lt;/font&gt;" style="sketch=0;pointerEvents=1;shadow=0;dashed=0;html=1;strokeColor=none;fillColor=#DF8C42;labelPosition=center;verticalLabelPosition=bottom;verticalAlign=top;align=center;outlineConnect=0;shape=mxgraph.veeam2.application;" vertex="1" parent="1">
          <mxGeometry x="1135" y="897.25" width="50" height="52" as="geometry" />
        </mxCell>
      </root>
    </mxGraphModel>
  </diagram>
  <diagram id="v3HscrLdA7ueFiQ5CGyH" name="Page-3">
    <mxGraphModel dx="1426" dy="863" grid="1" gridSize="10" guides="1" tooltips="1" connect="1" arrows="1" fold="1" page="1" pageScale="1" pageWidth="827" pageHeight="1169" math="0" shadow="0">
      <root>
        <mxCell id="0" />
        <mxCell id="1" parent="0" />
        <mxCell id="NXJt-m0JsOO_-4kB2BMB-1" value="" style="rounded=1;whiteSpace=wrap;html=1;fillColor=#E6FFCC;strokeColor=none;" vertex="1" parent="1">
          <mxGeometry x="1349" y="571.25" width="100" height="160" as="geometry" />
        </mxCell>
        <mxCell id="NXJt-m0JsOO_-4kB2BMB-2" value="" style="rounded=1;whiteSpace=wrap;html=1;strokeColor=none;fillColor=#FFCC99;" vertex="1" parent="1">
          <mxGeometry x="860" y="739.5" width="100" height="160.5" as="geometry" />
        </mxCell>
        <mxCell id="NXJt-m0JsOO_-4kB2BMB-3" value="" style="rounded=1;whiteSpace=wrap;html=1;fillColor=#CCFFFF;strokeColor=none;fontStyle=1;fontColor=#D10000;" vertex="1" parent="1">
          <mxGeometry x="790" y="568.75" width="539" height="160" as="geometry" />
        </mxCell>
        <mxCell id="NXJt-m0JsOO_-4kB2BMB-4" value="" style="rounded=1;whiteSpace=wrap;html=1;fillColor=#E6FFCC;strokeColor=none;" vertex="1" parent="1">
          <mxGeometry x="412" y="570" width="160" height="160" as="geometry" />
        </mxCell>
        <mxCell id="NXJt-m0JsOO_-4kB2BMB-5" value="" style="rounded=1;whiteSpace=wrap;html=1;fillColor=#FFF2CC;strokeColor=none;" vertex="1" parent="1">
          <mxGeometry x="302" y="570" width="90" height="160" as="geometry" />
        </mxCell>
        <mxCell id="NXJt-m0JsOO_-4kB2BMB-6" value="BIOS" style="shape=image;verticalLabelPosition=middle;labelBackgroundColor=none;verticalAlign=middle;aspect=fixed;imageAspect=0;image=data:image/png,iVBORw0KGgoAAAANSUhEUgAAAQAAAAEACAYAAABccqhmAAAACXBIWXMAAAsSAAALEgHS3X78AAAgAElEQVR42u1dB5RV1dWeqGl/evmT2E2iMcYeK/4mFlSqikaaSFFQcAAVEBGkiCIgovRepfcyDH1geu+992HKm/7m9bb/cy5vzIDz7j33vjK37L3Wt5Llmhneu/d+3z1n732+HRSEgeGjAIAfEPyc4I8ENxLcQnAzwfUEvyH4EV4lDAzlEvz3BE8RvEOwmGAvQRRBEUEzgROEw0hQTZBKcIJgLcF0glcI7kaRwMCQB9l/TdCX4DOCUwT1EJiwEKQQbCB4i+BOArwhGBh+Jvy1BP8iWESQROAA+UQdwW6C0QR/wruFgeEb0v+QYCDBVvcSXglBtxmxBFNpjgHvIgaGeOL/k2ANQSMoO6gYRBC8SfAzvLMYGJ5J/1P3njoV1BltBKtozgDvNgbGf4lPM/fzCHSgjXARhBL8G+8+hpaJ/7/uhF5HwKjnMILLUg9OUzk4DYXg7Mgl/1sATmMxuMw14LK3Eno6AykG0QS98WnA0BLxaSPOXPeS2Mc7bhM42zPAXrsfrCWLwJI9HkwpA8EY+zAYwm8Dw4XrGXAjGKPuBlPis2DOeAOshTPBVrURHM0R4LI2+EsILhI8jE8HhpqJfw3BGIJan62lzdUc2S350whhnwHDxZsYSS4dxuj7wZw5BmwVq8HZlkI+hN2XW4OdBDfg04KhNvLfTxDnPUVs3JvYWjQHTHFP+J3sTIIQ+TdOEOy1e8jHa/KFENAt0YcE1+GTg6F04v/Evc+3e/NidLTEgiVvKlma3yUL0nsEWYGY0wZfFgO73lshSKflUHyKMJRKflrLz5NMe7LftpUvJ/v3R+VNek+I+AsRrfcvbxOkh43gU9oQhU8UhpL2+h+7H17xebyOPLDkvgeG8FuVSfxuYEruB/b6Y0TVJHcvJxD8FZ8uDLmTn9b0z0oifns6l3U3XLhBNcT/nhDE9SLbg71SE4ftBIPxKcOQK/kfIagUTXxjMViy3lQt6bsVgvgnwN4Q4k78i45vMEGIITfyDyMwiUvot3I19kCU7uQKc8qL3MpHQpynBib45GH0NPEp5oh7lbm42j1tttEq8a+sHNzICaHLIbohMp/gL/gUYvQU+a91m2KIaNypAnPaECR9d/0EsQ+Do+m8WBGgrYkP4dOIEWjy/4jggJgnlXvrR9yBZBeApWA6d2ZBZHLwKXwqMQJJ/hPMb32ytLXkTEByi0oSPgnOjhwxIkDzLy/g04khK/LTk3b0YUZSS0D4n8Fed1CMCJgJnsenVB1E+y1VdIJpBBsJzhFkuQ/StLkVn64TWwgqCJIJjrtLRNQR9zGCH/thz8+87Hc0nsElvw9gLfxETAOREX0GlEl46n3Xh2AZQY7UAnE37rVR7iz9A94417qz/cwJP3p8lma3kcA+KhdmjCAaYBDjPPQgskoZJbRH3cQKhOFloVsMbpTwWeewlvisRfOQtP7ICyQ9Dy4rs2kSXSnehiyTb/lsqNvauifC7l7KP8z4eYcxrUjIMpUefkGy+jc56LJcYr3PdCX5K2ScfIhPx1K95s0JOT9409G8wd08n/lhpg4/Sv6cYCRpQPoFHgGXibnjmg5MuRbZ1/Pkv9/t/ybHoCuClQS/vOoz/56tt98JltzJSM5AikDcY2JWAguRgT1bNvtC6tHYAAedh9fH/bmvYT3Vx/XzIyl7ZjtgbWRd6b2IbAw8+f/mrce9y2ABW04NmM9kg2FHLOhXhUH7klPQvjAU2hefBP3yc9CxJQpMx9LAmlgGjoZ2X2wLaClxNlO2v3w5krFHfQb6snYN0iTzzcjKwJF/kLtFU6TlnQOsSWWgXx0Gze9sg4a+X0NDn6Wi0DhkDbTNPwamExngbPSf4zY1uFDz2X3FlAgzx7D2CdAJRdcgO/1f2vsQ2MZQ/5dMpTrQrzwPuv+sEk14XhABaZ2+H8xhuZy4+Mx9W5/JdaohAWXSLFT8Geutm44s9W+Wf6kow7esamidccC3pPe0Mhi+DowHk8Fl8c7G2mVrvuyzj8STFS4bjDC1C/8d2eqfN/8q5jbZ6hZonX04IMS/Gk0jNoD5Yp7kFAHtSkPCybAyEHE7OA1FLDcxBrcCvheAxWzMd4JhTwLoBi7rEfJ3ReusQ+DUibOutlWuRbLJOSmY2Jvsz6wst/JtZK3vyD+Rad9MyNYyZU+PE/+KbcFrq8FewjbuymnIV5VTr2rzAUXzWG4nnWDyW2Sv9+TvTd/rgm/O7BouOy8n8nfCVljHJADW0iVIMEXgBnC0xLDc0lXIYO/IfyOBYCeGJapQFkv+bjHgG+bqgDlzJJJLMfbjj5PXkmAHN21OuxOZLI38tFMuTJA0F/Ogof838iQ/QXPwt8z7f2PMg0guJW0FShaw3NZDyGY/7fstccWyJj9F+zdnGMd06ZBUinMbvoWbucDQ+YnzB0WS/yYC3vQ53VfrXloha/JTmELYPOkdTReRUAo1EmGIY8hqcQKwizdb3maCpjc2yJ78XAIwr5at/FexAgmlUDiaI1lWAfcgs9nI/5CQOUbb3COKID/dnrB2BVqy30YyKdZJqC+Ln8t2ZDebAITyJv3OZiuD/DQBOH47u+d0XC8kk5JXAbrTLP6Rf0KG85P/Pj4pdbabuMYapQhA+1en2RKA9nY89af4VUAflls9F1nOLwDb+K6efs0FxZCfwniUzarA0RqHJNJGLqAa7cM8k/83fN54jvp20A1YpigBoEYjbBbfG5BA2qkI9EO2dy8AE9T09m/o9zW4TGwuZej3p54WYaepTOh270e2dy8A4Xy2XbqXVyhKAJrGbWVPACY8jeRRjXHIfJYZg79Axl9J/t/xHfgxhWYo6+1PE4BfnmS0/jGD4eJNSB61eAZE30uzukJ3fQSy/koBGMZ3tVqm7VOcABgPp7Dxvz0ViaO2ZGDjOaHbfhhZf6UArPfc9Wfk9tNKEwBbZhWbV2HNt0galYEOcBGIDl8PllW6AGTxnvZTGPmpUSjNWzAlAPM/RNKobRsQeQd5cwne/xeQ+ZfJ/xP35Jzus/8rzytOAJre2sKeAEzqi6RR4zagSfAk+1fI/ssC8CDvtIVJO5WXAFx4gtH/0w6G8NuQMGqsBhTMFLr7acj+ywLwmmeCuED34nLlJQAPsA0ldnbkIllU6xjUS7ABFCcLXxaAaR4J0qhX3v6fwJrONlnWXrsfyaJiuMyCnaB9UAB47L5t+bWKFACX3sxmAlo4G4mi5kEidYfwcBCDAGz0SJCkMuUlAEdvYk4AmlMHIVFUnQf4GJ2CGARgh8cSWXSh4gSg7fMQRvo7wRhxBxJF7ZOF+aMcBQBgj0cBiCxQXgJwXwIb/Y2lSBK1I/w2obZg6n3xc1wBeBKA2GLlJQBTykWM/kaSqB0MswQf0roAbPCYA8ioUpwAUMNSpgRgyQIkiBYSgTrBQ2FDsQrg6S1Z0aSsBOAbG9gTgOlDkSAagK1ijdCjMEPrAvCBxw2S0aqsBOD8Y+xTgKLuRoJoohIwQ+hRWI2dgDzR+Pp6xQiAYXc8WwewuQbJoRWbsMyReDRYQADu57s6rbMPKycBmFjKZgLaeAbJgaXAzojWugD8lO80oGFXnHISgM0GNhPQsqVIDq0cDY59ROhxyMVeAIBsj2TJrlYE+elWhTkBmDkayaEZb4C/CT0ONSgAAJ77Zx1ORQwDoePK2MeAP4Tk0MwE4ZuEHocWFAAA3kyJfsU5+ScAd8SyJQBtTUgKjQGcvPbwZhQAgOuFpis6LrWC+XwO6JedhaaxW2UnAJb4ErYEYHMEkkJrAuDgbQ6zBWFwIpACIoJ23NFW4Y6NEdDy/m5uEm+PJgAbOxjHgK9CUmhOAIy8XeHI/ssC8Bl4ES6LjWsdprX41lmHQDdoZeASgEPXMn9OS/Z4JIXmtgC8/hBWLZP+x3RIAsE57nysL8PpBHtxPZiOpULbFyegcfg6vwlA6yeH2U1A459AUmhNAFy8j3aHFon/B4LPCRoggOGvPIJhewyjB6gex4Br7kjwn4UeC52WiP9Hgq/5pgAHMq7II7y3S3IewRJTxCZArQlICM2NCrtf6LEo1QLx/4dgNq3ogYzjijzCzIPMeQQ6upxtDPgmJIXWWoETnhZ6LFLVTv6B1PoIlBhd8wgLQrrNIzQOXsOeAMx7D0mhtcNAaa8JPRZn1Ur83/HZfSk1rs4j0JUCcwIw8VkkhdbmBOZOEnosdqqR/L0JaqUQrKGpA3YeToP5y8Pg6NlcqCSEk/W2weZgXE1YwHDxZiSF1vwAShcLPRlfqon41xDME1vSc7lcEJNcAZPmHIcH+q6Ae55fdgWeGrIB3vs0BLYfTIHMvFqw2R3K2020pyMhtGgJVrtX6NGYqBby/5wgRNRy2umCE2H58PK4b79Hej488uJqePPDg7BiayxEJ5VDh9EqewGwX9qJhNCiKWhbstCj0V8N5L+RIF0MISLiSwnxd4givifc12c5vDp+J3y+8gKEXsiH2gb5FRusBR8hITSHG8BlF6wQ3aF08t8hJstfVdsG42ce9Qnx+fDc65th+henYF9IJhSU6MDpdPWoAJiS+yMhtNYDEPeYYGGI4Dolk/9O1mQf3efvPJLGLd/9Tf7u8PigNUR4jsCG3YmQlFENZos9oAJgjL4XSaEl8kfdA872VKHHIlPJ5P8rK/mbW43wzsdHeoT4nvBAvxUwfPJe+Gp9JITFlEBTi9G/W4Diz5AYWmn+if8/cJnKmN6LBBcJhhP8SGnn95m+YUZeLTw7fJOsyN8d7iUYMGYbzFpyFo6cyYHSymayavFll2EdGMJvRYKovfEnZSBn+iIh6Mt0JsGv5U7+n7Ge3acJuYcGrJI9+T3hyf+sg0lzj8O2AymQkVsLNpt35UdL/lQkiZrJnzVW6OgvS7QRzCf4lRzJ/wOCQyzfYvvBVLj3heWKJX93oGI2auoBWL4lBqISy6FdL+5mO43FYLh4I5JFjQ0/RXOEjv2KjUbaIyCrJKF7iSIY63YmqIr4HrcNROAGvb0DEtOr2B2Bs95CwqjK9PNGsFWt92f6KIuglxzI/ySff39nbN6XpAnyd8UbH+wXcQQ5BUmjovHf9obQgDSSEqykp2p7ivy/JKgU+pSHTmVrjvydSM2uYV8FpL6C5FF8me8f4GhLCnQ7SQHBgz0hAFuFPllsSkW3ffxaQfBs9sGgjqYwJJGiG3weB6exRBKDWwx6GLp8AXy0exMUXKqWlEsmmBBI8j8LApbd9MTeE6+u0yz5L+cDlkFROWv5x4VHgxU7668/uKyNkshfrquHJ+a8B398ZzCHP40fAq+vXAhJJYVS/txmv/cO0H+AgPfTWa0OGPzubk2TvxMzvzzDfjio7hASSnGTfscIefx7jJSyIvjHtLHfkf9qjFi1iKwIqsT+2XCC3/hTAD4UPMy8LgLJ36W78FJDO+MiwM4NjkRiKaTMVziL3DNpfSCn0pPgtklveCR/J26cMAxm79sGerNJbJXgen+Q/zcEvG4ctKdebbV+b7FoTTjznbNVbUZyKeBEn61yjeSs3aYLp+D6CUMFyd8VD8yYAGHZaWL+mWKCm3wtAIt4MxFWO9c6i6T/vldBazujgjuMYIy6G0km2zLfrWBvOC6tbudywdwD34oiflf8iYAmCs02qxgRuN5X5P8tCDj4rt+VgIT3gLU74tlXAWVLkWiyLPPdxdm4S0rT22zw1vqlksnfFb0/nw4VjczjM7J9khMgf2SukG9fTx3rVcYZgvVgMtsYPQWbwRDxVySdnMgf+yg4DUWSyN/coYeBX872Cfk7cdfUtyC+KE9MYvBH3mb+6/j+BWrYiUTnx66j7AZJ1sLZSDy5lPmS+oLLqpNE/rKGOnh89mSfkr8TNwe/DsdT4lg/Cu3bkSwAw/n+8qUGPTzYbwWSXADPj9gMdgfb4RCXuRodg+VQ5ssYKTTJ12Mklxbylvl8AZpM3Bt7kfUjBUsVgDC+v7pwdTgSnBEh5/PY9425k5CEPenfX/CR5DJfaFoC3DpxhF/J/50IjB8C++MiWDsG/ymW/DfxWXrrOyzw6Eu492fFK2/vZDYVcXbk4eDQnirzVayUXObbGHaSkHJoQMjfiRvISoD2FjBEoagDROSHp/L9td3H0pHYIhGZUMb8MJkzRiAhA13mqz8iucw3e/+2gBK/K+iKI628mOWjrhQjANF8f+m1CbuQ1CIxasoB9kNCrXFIykBl+iP/Do6WWGkOz1YrvLnuqx4jfyfum/4O1Le1sBwl7sVC/t/TZ9DTXympaEJCS0R6ziUR9uEDkKB+L/M9DE6DpAM40NTRDv0Xzepx8nfipSVzwO4UzF1kCToLkR8Ygi4//sHkuezdZA7dKSSpX8t8L4DLWi+J/KUNtX4r83mDL4/v974qQDnO99tDgvcgmb2wDiupaGY2f7EWzydL1L8hYX1e5hsBLkeH5DIfbciRG/k7k4IM+QDa3PALPgHI9Ghi0GaC+/DQj1f4ZMlZcTbidj3YKlaDMeZBJK8vynz507gTmFLiRGp8wMp8UvHU/GlgdwhuBebyDfb0+Nvno4uRxF6CNk/pmgwS0s1WbsKsKeFpJLLUMl/5MsllvvXnT3C1dzmTvxNrzwnO5qUZw192JwCP8/3WVxsikcReYvHaCG48mhejRcDRdB7Mqa8iqZnLfLeAve6gtDKf0wmz9m1VBPE7cfv7o6FRL+hHMb07ARjL9xt0FDeSWLpV2Ka9vjWPdLangSX7bZwxwFvmuxMczVGSy3xj1i5RFPk7QQ1FBKLyexUB8h8W8/0GnZCDZBaP+/uugKNnc/1mEesyVYC14GPypvszkr4r+WP+CU5DvrRpHPo26CejMp9Y3DLxdahrFUw4D7paADzWEdr0ZiSzBDw8cBVExJcGxCuaHim2li3lJtJqvsyX+Bw3h1FKlNTXwmOfTFIs+Tsx/9BOwbwmcwdgblEDElok/u/VddwswYCH0wS26m1giuulzTJf+lCueiIlEovzZVvmE4s73h8NRgvv2DpaDvlDVwHw6H4QTt5iSGp2PDdiMzdZuEfD5QB7QwhnYa2ZMl/eB5LLfCEpcdzSWQ3k78SOqPNCX/vdrgLg0XOI7mGR2GwYNG4H1On0IKeg5wvMmSNVfdKQ2qpJDVo6U0qZTwz6L54l9NXPdRUAjy6WO4+kIbkZMPKD/Vy+REocqi6DYfFhcKSmHMwOh392B4YC8pacwp2AU89gzlvAXrtPmjA6nTBz7xbVEb8r6CASPiOq7zoDgWfo55b9yUhwAUyacxzMFmnLz42lefDkxePfYUD0adhclg+tNot/dgeWOrCWLFB8q7Ex8g5wNEdIugZGqwVGrflS1eSnWHVGcFzdwE4B8NihQmvYSHLPmPv1OXA4xM+Fd7hcsCg//Qryd0XviFD4qiADqo0GP6UJOsBWuY4rmSmvzPcgODuklVd17W3Qd+FM1ZO/86SgQHzdKQAezce3HUhBonvAiq3SzpNbnA6YkZXokfxd8e/wEJiVnQTZbX5KLLrsYK87oJhZhabEZ8BlrpH0VYvrLsGjsyZpgvzcpKF3h0EH/5ShuE4B8Ji52huSiWS/Cvf1Wc65I0mJdpsV3k2NZiL/1aC/F9VYR5ZrLn8oATiaLoA57TX5lvnSBhO9apf07RKK8+HvU97UDPk7cYF/whBNWv2QCoDHOcWhF/KR9F3wz/4r4UyENDOJBosJ3ki8KIn8XTE84QIcv1TBrST8kjDUZ4AlZwIYLt4knzJf7mTa8STp+xxLjlVdmY8VS0IEvQLuCXI7hnQb8WmVSHw3Hnt5DbkeVZIewjKDHl6NPec1+bvixZgzsL28ENrYx0eJbDWuBGvhJz0+uMRauhhA4qpnzdnj3BhuLZKf4o1Vi4Qu0TAqAB4Pq9OmFiT/MnhqyAbIK26Q9BBmkv17v6hTPiV/VzwXGQrfFGbBJZPRP0Jga+aO1Bqj7w1wme9msF/aJbnMN2P3Js0SvxMPzQwWulSzqQBs9Ziwsto1PwG43+htUHWpVdKDGE327DSj7y/yX50wnJOTDHntreCfvYEZ7DU7wBT3hP8z/RG3czkJSWU+iwVGrv5S8+TvnCNAZxXyxBYqAJ/w/UTfUVs1S/7BwbuhqUXamzWE7NOfIqQMBPmvxqS0GIhtqvdLuhBcTrDrToIpZaCfynwPgFOfJS3PQsTvhS8+RvJ3Aa1+8MRpKgCD+X5i8rwQTZJ/3EeHwWCUtr+me/OeIP7VoEnH0NpKsDmdflkUONoSwZw52metxqaEp7hRadLKfDXwyKyJSPqrEFOQw3fZ0qgA3MX3Ext2J2qO/B8uOAk2m/gsOx0Y8TXZj8uB/F3xcsxZ2FlRBHq7zT+7A0MRWPKngiH8NullvtRXwWVvk/TvxxXlwp0fvImE7wYhKbzj6kupAFxL4NEuNTGjWlPkX7QmXJJ9F33Lzs5Olh35u+KFyJOwsjgb6vkbRKTvDqwNYC1ZyA3eEFXmywnm/A+lxNGkGLgl+HUkuwfsjubNpeg6m4HC+RKBDw1YpQn7ro17pNl3dZA36+S0WFmTvytobmJ+bgoU6tv8IwS01bhqAzeEQ7DMV/KF5DLfytNHNV3mY8HW8DN8l7CtUwA+5/upCbOOqt6+68jpHEkPYZPVDGOSwhVD/qvxQXocJDQ3gH+UwA72+sNgSuzdTZnvJrDVfCu5zPfR7o1IcAZsunCK993VKQDP8v3U/hPqbQmm9l3hEu27qowdMDjuvGLJ3xWjiYidqasGu8tPrcbNkWBOH3KZ/BF/BUfjeUl/yWAxw4hVi5DcjNgWwTuTorVTAH7MdyaAlsLu76O+fgBq35Wee0nSg0jr7QOjT6uC/F1BOxb3VpWAwW73y6LAqc/mIL3MNwOJLQL74sL5LmldV2OQw1raBjz3+mZu6KmUSCRL5ucjT6qO/F3RJ+oUrCnJBZ3FDHKIwtpqeHhmMJJaJE6l8+a1CrsKwHC+nzynoglBL4/7VrJ915n6ang6/ISqyd8Vz0ScgAV5aVBqaO8x8scV0jLfGCS0BNC5hjwRf/WIMI8OFNT4ovfrmxRP/je8sO+iS+N/aYT4V4N+7w8z4yGlRRdQ8h9KjIabg4cjmSWiprmR7/IeudoifDvfT287qGyDkIlzjkmy76JpsdXFOZokfncYmxwJ5xtqOGcjfwaW+bwfFOLkv0crrxaAJ3kzsEarYicFzZFo32V3OeGz3FQkfjd4Le48HKwuBZPDtwlDu9MB03ZuQBJ7iafnTxO61O9fLQAUvDYiW/Ypzyh0+ZYYkPKyog/21Ix4JLsA6HHnDaV50Gz13swUy3y+w8Stq4Qud9/uhoWO5PsNC1lCPz9iszLsu15YDruOSrPvos6848hSFwnOjmcjTsDi/HSoMHZIFoCP92xG8voImy+eFrrcN3QnANcRlPOeIYwolD35H+y3kvucUqLWbOSst5DU0hOG1Pg0o1V8mTWnulyVwzp6AlmVZbw9AHTF322AwMhwGuNnHpG5fVelJPIXdbRxp+eQyL7BOylREK67JJSMuvLZ2rQcCewl6KxDgWt+NMhTuFcBBbxvyQY9RzQ52nfRoaZSIq21EfpEnUTi+gF0DgJrlNbXcrbWSGTpeHfzCqHLPDWIL8gPDBD6C8fP58nLvmvUVsn2XRcbLnF7WCSr/yzLyg3szVdTd6xHInuB4ylxQpf4/iChID90UuivfLLkrDzsu96Vbt91uKaMe0CRqP7FJ9nsx61rWpo0a+ftLf4yeSSY+CsydLrKD1gE4M/UZ5HvL9HGGkq+niT/2OmHJNt3bSzNR3IGMDmYr2dfoc3Zvx0JLQGTt60WurTrg1iD2gIK/TXaV//ssE2Ksu+iXWyLeebzIfyDKRlxzPeoUd/Ovc2Q1OKQVFIgdGl7ixGAawjCBE9rlTVCr1fWBpT8C1eHg9MpvsOHTtX5mHE+H8L3SG1tZL5Xi4/vQ1KLwPMLZghWuakNYJCYIL9wPfUPE/rLmXm1AakMXLbvSpS05PdmPh/CNxifEsV+v0xGuHMKGn6y4khitNAlXRQkJeiygbZps4jAE35cCXhj30Xn8430wXw+hPegQ1NYg866R3ILo9ec9zi7ND4/FoLbg6QGrc4wmTeQ7UDv4Zv8Y98VJ82+yx/z+RDSMSoxnLk5iGa075v+DpJcAEeTBEfWhwZ5E+7DQutZblq9rgOGBPuuOvDEq+sgLUeafVdWWzP0jz6FxJMZztazDwGh7rZIcs/ou3Ami539M0HeBlyeI3CU5abREuHspee8Jj81IpFq3xUTwPl8CHEYGh/GHbdmCZvdjpN/eGYAppYVCV3CeI+9/xJE4CfAM1X4e+uOsHzoNUhaXuClsdLtu07UVvbYfD4EG47WlDPfz/1xEUj4bjBjz2aWy/dCkC+D/MGfihGBugY9BM8+Jor8I97fJ9m+69uKQiSYAjAo9ixXlmXq3XA64V/zpiDpu+DhmROhQ3jS04Ugf4TbTvyQGGKGxRRDn5Fb/GbfRRNL38hwPh/CM3ZXFjPf39C0BCS+GzdMGArxRXmCuknwQJC/wp0TWCGGpLRzb+eRNHh66MZuyU/zBnYJ9l10Pt+cnGQklcLQP/o0N16NyZ+RCDyOAL+MZScPs1yydUGBCDo6gHJQDGHpG37P8QzoP2ab1/ZddJDF5PRYJJRCsaksn/leh+dmaJ78Y9Z+xZL1p11/vw4KVJB/7AmCKtGuu+SLxKdWcseLpQSdz/dmUgQSScGgg1ZaRHgKvrJ0nmbJ3/vzjzjvRIYYFBToIP/o71jLhL6IKqNBNfP5tI4VRewjw+iBFy2S/9FZk6C+rYXlEm0P6qlwNwyNImj2J/np0dKB0WeQPCoyFa0Xzmh/F29ozD34wRkToLKRye2KmmH+Iqing3yIPxLsBKkD4HlCC/P50DpMYPXXpIOlJw7C0OUL4K/vjVR5uS8YKhrrWS4L9e+4L0hOQT5QL4IEX5H/nMbm82kJtHGrUk6qQ5MAAA3jSURBVIKtOO0RyK4qhy3hp2H8pmVw/0fjVTXgo7aVaTFNX7TDguQY1IKI4CWCVG/Ir+X5fFrBnOxkn7woqpt13GzBj3Zv4kikRLvxYSu+4I5EM8a8ILmHWwj6u7sImbcGOJ9PW9ZhBfo2n+eMWsnKIiw7DRYe3QODls6DWyeOkC3x6UzEBUd2Cx3v7RqbmXz+ZCYGdxF8LZQspAdGPs/D+XxawrSMeL9XkKx2Ozc+e83ZEBi9dgn8Y9pYWZD/ng/HcUIlIg6KdvmRmRAc8kx+F87n0yhafDBrUGw/SlFdDeyNvQhTvl0Hj8+eHHDyv7NxGTR1tIsytSb4YZCSw1228DipB8mgzYGjcogmfTucSk+CTw/ugH6LZvptYAl187mQI3qOJa2wXad08v+Iz2rsdF0VEkKDmJwWC3IMs9UKcYW5XB8+TdDd8f5or5f7my6c4vwORMZX1LA3SOlBvsSdvAbmpXlICA1iZXEOKCHo6dPc6grOsYiO43ro43eZiE9/bv35UDCK3+bQARjjg9QS5Mv04fu2dJoMEkJ7oCs/pUZ1cyMcTYrhRp0/89mHcP34od8d36VNSydSE8DudEj509QT78kgNQX5QuP4vvFbyXjIR4soYUyE1bSlQpOxBFy+bzb1WehNRojMy4K6Vq86408T/CFIbUG+1Fy+bz0w+jQSQoNnAuyMZ8L3po+ENXH/gs1J/SA0bzqk1OyA2vZMcDitoJIwEAQrrsYvQgBW8dX/setPexibHMnEDLvTDGvjn+YE4GqsT3gWDmcHQ1zFOihviQWLXa9E8tPhvLcFqTnIF9zj6ds3WsxICA1iMeOBoHp9Trfk7w5r4/4NezNGQUTpUijUnQW9pV7OxKdl8RfBVy6+MhcAjyPI6TAPJIT2cLi6jIkl2XVHmQWgO3yb8h84V/Qp+TtH3HkEZ08Tnw5KGK/4xh6RAuBxvZfd1oyE0CAy29iSZeElX3olAFejB/MIuQRjaU9MkNaCmrt4uiopLY1ICM0dBAoBo4OtKeZA5jifCkCA8wi0AWA/wXOqTfAxCoDHDV98UwOSQmMYFh/GxB6ny84R1J8C4Oc8wpEgDE4AMj1dodimeiSF1rwActi8ABoNxQElvx/yCNT77GcoADwrgDgUAM1hR0URE3vyG07KQgD48ghtZsHhpwNQAAA8Sn5Ssw5JoTHEN7Etq6PKlstSALriVMEsoa+xHAUAINrT1cnEKoDmQGc8MG2gs4NlLwAbEnpzzUo8kYoCAHDG09Up7mhHUmgIL8WcYbSHc8LGxBdkLwAUFS1xvM2MBD/RugDs89jpZTYhMTSEqYw2YK2mSkWQnyKuYq3Q13lE6wLg8QrRsdFIDO1gXQnbaLiixjDFCMCxnPeEvs4orQvAPL6r0zfqFJJDIwhrqGESAPpWVYoAbEkeKPR1PtO6ALzDK4+J4UgOjYB1IMjx3CmKEQAKi533e23VugD05bs6M7ISkRyamA4cytlrscSWpIGKEoBmI+/hplCtCwCvJ+AqHAaiCUxIjWZz17HUK4r8FLXtGXxfKVbrAkBdgT0apJ2orUSCaABfF2YyCUBZc5TiBKCyNQF7AQREwONcgLz2ViSIBhByqYJJABKrtihOACpaeC3OM1EALk836d4D2engJsYiSdSNPH0rm0dW/gzFCUBVaxLfV0pGAQCYg87A2h4JbmG0yd6e8oriBKBOzzvjIAoFAKAf3xX6pigLiaJijEy8yHZ+1taiOPJTCJwKPIYCAPA74BkVfrHhEhJFxfgsN5VJAGgyTWnkpyYiAtZiG4MwOBHI9XSF2mxW+DfmAVSLvVUlTAKQWrNTcQKwI3Ww0NeahewXOBNA4+2USCSLSpHSomMSgDOFcxUnAKcKZgp9rSHI/ssC8B++q7StvBDJolLQFR5L7EobpjgBSK3ZJfS17kL2XxaAX/ONCS81oDeAGvGfuHNsI3EdBm4/rTQBqO/I5W1sJLgW2f9fEYjgu1ojEi4gaVQGetaDaSxue7riyL81+UVwuXhNQs8h668UgCm4DdAWNpcVMAlARu0BxQlAROlXQl9rJrL+SgG4la8cWGs2coMjkDjqQaSulkkAwooXKO8QkD5L6Gs9gKz/vgjwNk5PyYhD4qgIVNSZxoBnjFIU+ennFYhSTU8E4hGAd/muGn1jIHHUgX5Rp4DFAcDutMA6D2PA5Yp83Smhr7UQ2d69APyGwKOXssPlgtfiziOBVIDJabFsY8A7chVF/p1pQ7nRZbzGxgB3INs9i8BOvqu3v6oUCaQCrCzOZhKAnPpjihIAaloqlNJAlvMLwBO8h0IcdhgQfRpJpHCcrqtiGwNeukQx5D+aM4kvj90Z/ZDl/ALAOzKMBp0hhyRSNujgF5Y4mPW2Isi/IeE5aDUJiloqJv/YROB1vqtIZ8i/GHMGiaRQPBNxAuwu4Um6l8eA91aEAGTVHWbRMxwIyigA11ELON43QzXmApQKavLCEnTkthLIf7ZwHsvXOU9XtxjsIsA7M4C+QYZje7AisSg/nW0MuO6U7Ml/IHOc0BBQ7jgDwT+Q1eIEgDoGl/NdVTpOGgmlPByqLmMSgOjyFbIm/+6018Foa2b5KvOR0dJEQLCl6pPsJCSVwpDZ1sQ2BjxnomzJvyttOHRYG1i+Rgp9mSGbpQnAtfQsCO8+0WrmusqQWMrAvwhoEld4DLgLNiX2ke2yn/HNT0sdf0MmeycCzwldZRwgohwMiw9jevu3W2plm/CzOU0sX4E2BLyCDPaNCBwSutof4xxBRYB2crIGTQJulMkqgJYjGUt9eNzXDwJwCwHvmNVWmxVejjmLJJMxpmXEgwvEBV0JnMib1uMdfq2mSjEfew2W/HwvAu8LZltaGtFBWKZ4JfYcJ9JSg84F3J0+IrAHe1KHQFHjeZb23itGfhNcg4z1vQBcI+QXwJlHVhYj4WTY+Zfd1gzehtPlgALdGdiXMcbP5/lHQl5DqNCpPk9vfiS/H0XgDgKDUOZldnYyEk+Bwz/FRG17JlwsWQxbkgb4hPT074SXfCk0zpvvsZuFy/7AiMB4obthdjhwloBMsKo4h4VAOr4x8UKrgkuEtElVWyEkbypsTX6JifDbU16F0PzpkFL9LdTps8DlckjVIj1m+wMrAExVgWarBQajeUiPgjZpOV2C+2cLwUMEz1IDYF+sDiz2Du4cQXVbCpQ1R0NpcwSUt8Ry7sItpnKwOUy+WoikYJ2/Z0TgVwTFQnenytgBL+GpwR7Be+mxYHU6WUg0qct9/a2QIYxMwkbbe7HDr2dF4D6h0iCNko526I8GIgHFhNRozriFIXZ0t28m/+15agYkU/JfILgbGSgPERjMUqMp0LeiCASQ/AY7E/npVJCf8txbeiT8bbqQkwnx0whexESf/ERgNsvdo+PFcDvgf6NPI9ubn5L6esb7S0+FjhY6E+KncLnf+APRyUfeScFNTE+dsQOGxGNi0B+YlZ1E9vxMmfRWgnsk3udeBOvdVQN/Bq1bfklwJzJMGSJAl4vHWe5si9UC76REIWl9iGVFWSzZfs7TleDfPrrfzxAsJkhwG254E/RzhbtXkw/h216ZIvATarnMcrdpn8CcHGwW8hZPh4fAkZpyVpJRkvb3073/KcGjBG8RLKINoW4LrmR3MpEOIcxyiwWd2rGNYJ7be/Jegh8ig9QhAj9zKznT5m53ZTE8hWcHJIHmU9Jbm1jJT8tmg/AJxQiECPwP60qA82luaYRBsXiKUAzeT4+FJquFuS8HyY8RaBH4McEx1ie0zWblklhIboElf8QJ2FVZxLrfB/e5jRfwicToqcTgRjGZoNDaSuiL9mIerbxLGId5dOnvfxSfRIyeLhHOEnOgu9FixgRhFzwfeRL2VBZzg1lFRCHB7fgEYshFCF5jaRvuGknNOhih4bkD1Lzz09wUaLCIPjhzjk55xqcOQ24icK/7zcQc9K1Hy1xaSxIGp8ZATnuLlK452jxzLT5tGHIVAXqK8IDYJ5ueattXVaL6eYTvpkZDQnODlEYaavfzMj5hGErJC4wVuyXg6llOBxyuLuOsrdVCeuqhOCMrQUxN/3sTvKlpKz5ZGEoTgtsJoqS50LggpqkePspMUKwJ6cDo07C6OAeqTQapxKcD8T5EDzwMJYsANRqd7J7gIilo1WBnRRGMTgqXPel7R4RyLj2RulqwsZl1eIpIdMLBUJMQ3Eiw19sjZPS0IXUlDiZ7abm0GNM3/We5qXCh4RLrUV2h2v4YPCyDoVYheIp2B/viPKnBboPoxjpumT0hNQqejTgREMLTigV9y9OkZaG+TfQgDp523q9pEhWfEgwtbAvoKbESXx4wt7ucXCfdufpq2FCaxzUbjUuO5A7ViM0j0KU8TUTSnvwlBRmwl5CdZu/poFQfh8N9su7P+GRgaE0IrnMvd4v8bTtD+w2oT0El2ULk61sho7WJO6SU3KKDNPL/s9taOPGoMxt9sYxn0is38e/CJwFD60Jwrdt7MBbUH9TjfiW+8TEwuhcDajqxRWg6kQIj210N+SXeZQwMYSH4pbuZ6CJtC1Ao6XXuWXaPodMtBoZ0MfgTQTDBWXe2XM5R5Sb9czTHgXcPA8O3YvBzggEEywnSpc6782HQ/t4QginUiRff9BgYgRWEXxD0JphOsIcg04+rhDq3FdoygpEEf8eGHQwM+YkC7TO4leBpglEEHxN8Q7DdbWNG3Wyj3Q62Ce7qQwTBSYL9BOsIPieYSL32CB7E5B2GlPh/uOrJxQv7X3wAAAAASUVORK5CYII=;align=left;fontFamily=Poppins;labelPosition=right;fontStyle=0;fontSource=https%3A%2F%2Ffonts.googleapis.com%2Fcss%3Ffamily%3DPoppins;" vertex="1" parent="1">
          <mxGeometry x="322.61333333333334" y="579.84" width="15.333333333333336" height="15.333333333333336" as="geometry" />
        </mxCell>
        <mxCell id="NXJt-m0JsOO_-4kB2BMB-7" value="Kafka" style="shape=image;verticalLabelPosition=middle;labelBackgroundColor=none;verticalAlign=middle;aspect=fixed;imageAspect=0;image=data:image/png,iVBORw0KGgoAAAANSUhEUgAAAQAAAAEACAYAAABccqhmAAAACXBIWXMAAAsSAAALEgHS3X78AAAZUklEQVR42u2debSWxZHGS4JoxBU1QHCLCgbEgPuuI7gAgwoG4aDijg4RcHfihuMSg7iMK2rQEBR3jfsWDMR1BMVdA0YRXFBBNhGRRZx+7L4zNzcX7uV+1W93v/38zqm/OOfS3V9Vvd3V1VUiRJu1jexj5FQjI4w8Y2SSkS+NzDPyjZE5Rj4x8rqRB41cZeQYI+2NrMolJCQdVjHySyPnGHnRyEIjP1QgM4zca6SfkfW4vITESVMj/Y2MN/J9hUa/PMFu4Q4jezhHQwiJYIuPr/0Xnoy+Nllm5CUj3Yw04k9ASPE0dl/8zws0/NocwTgj2/LnIKQ4tjbyQkDDrymLjVxuZA3+NIT4A+fu37iz+A8RyptGtuHPRIg++LreFqnhV5f5Rvrw5yJEjw0j2/LXJUuNnC28KSCkYloaeSsh468eILyMToCQyr78KRp/dbmUToCQhp35X0rc+Kt2Aifz5ySk/iC55o4SGH+VLDHSlT8rIfVjcImMv0q+MrIZf1pCVkwHI9+W0AFAkDXYmD8xIbWDp7cTSmr8VTKQPzMhtTOw5MYPmSv2apMQUo1mRmZ6Nj687b/PyJlGeop91ruzkU5i3/sPNfK8kUWexzGCPzch/8zFnowNtQGeMtLdyGr1HEsLI6cZ+cjTmOBgtuJPTohlXSOzPRjaa0b2rGBcqztH8DV3AYT442QPX/3LV+KLXxetjbyqPMYFRn7Gn57kDpJ+3hbdt/nHehjnmkYeVXYCp/PnJ7mzvfKX/xiPY13dxRM0jyh8J0Cy5vei+/CmiHjFJEWHxWAgyRZ8/d5UMiZUA25S0Lh3dkcNjXHzoRDJFly3LRGdAhw7FTz24UoO4BGqAcmVg5WM6MEAY28lOm8WUM6c7wNIllyg5AD2CTT+20WnXsAmVAWSI/cqGNDHAb+gXZUcWBeqAsmRVxSM548Bx4/cAI0S5QOoCiRHPlUwnhMDz0Hj+fLFVAWSG0jTnadgPJ0Cz2O0whyGUx1IbqCbr0YUvX3geVytMIeRVAeSG2uJzrv70Jl0wxTmcBvVgeTGGko7gI6B53GdpB3IJCQIqP+nUQOgW+B53K8wh2upDiRHpioYzxkBx4+3DO8pzGEIVYHkiEbDzwcDjr+56DwKOoaqQHLkT6JTZbdpoPEfJTqZgHtSFUiOnKFkQEcEGv9Y0WkbxtJgJEv2UXIAqNf3k4LHvoPYgh6Vjv1DYVUgkilri14bsL4FjhsG+xelcY+iGpCcGadkSNML3Eprnf0h/agCJGdOUzSmJ8TmF/gEqcfzlMb7ndibBEKyZTPRKQtWJTd7jAdsamSK4lif5s9PiMgY0a23j8c1qymPsZ2y8RcdtyAkWg4R/dZbLxrZQmFsCPgdZmSO8vg+N/LTxH6nRi7OghuQHmIbsKCj8ylGTjJytNgejHifsb7wdoPUE5zbJ3twAvONnC/2tqEhbGPkMbF1+7THdn4CvwvKrO/mxvqk2EBrfa8+caybKjZTE3GeDlL8VS1JiGM8GFmVoO34Ve7LVVf9wHWM9HKGv9TTeGaJbYce61d+TxdL+VJxzsvcEepy51gJ+ZddwNsenUD1Mtz4ml3nvmy/FVuSC09yUd7r2wLG8J8Rrj+OI8cX9BtgF/GckZ7cFZDq7Cc62XUxy+TIzv7YER1n5KNA6/GGixswXkB+5LYSG//3zsnFwi5GJkawLsvcrmxLqj9B9HhaSR3ADZGsMbocXya6+RdaQduBLg5BMmZv0akXGJO8LrYMWmg2E51S5j4FNwfr0QzyZrD4uX4LITMi2d4iuv9lImv2Ho8EeYOg0DUlMP4FRvaKYD2RuPNtYmuHG5vtaQr5giuiUQkbPx77HBTBOvZK+EiFnIkdaQr5gmuqWxP98sdg/F2cI0r9CNWOppAviApfmlBMYKYLZIYG6bdzSxJHQeUkPp3OHBTP+CZyRUViS+sI1grXqf+Qct2k/FX813sgkYOCHK9LnEk+N4ltGR5DAPV+KWcuxYU0AYK3/v8l8US1sT3tGtH6HCXlzaZEH4ZdaAIEtDFyn4R7P4Dz9XkSri9BbTR3MYgyv6fAMasJ1Z9UsYNzBIuluCDfJUY2jHAtbi5oDRCL+buRZ8VWSH7eyAdS3I3DIKo9qckv3BnRR/BriVP2YyM559dGO89OENl56GO4k9T+ohGxBxRfQb8HvPv/1ONYkNG4DlWe1AYSiLYT+97/+QqUbLoLpp1oZOME5n2nJ2Ob4GIcK/t2H7GaI93OwMe4zqaqk7poXYGCbZ3Y7kc72w/b/JOk8qIdeAQ1VPRfH34m6dVVJAk5gJSyzy5VNi4UCOmgPMZuol9c9TCqOMndAayqfN6e7PHIg7z+WaKbHERI1g6gk3JwbQvP4/030bstQNCzFdWc5OwAtJ5Nowpyl4LGfKqi0+pPNSe5OgBcvU1SMqQRBY4bgcUXlMZ9P9Wc5OoAWopO/4KvjbQoeOxoOqKRxTldWF6cZOoADlT6il4baPcyVmHseCa+OVWd5OgAzlUyoA6Bxn+YkgM7mKpOcnQAIxWM530J15gD1X8XKszhdKo6ydEBaGyhbw08h/EKc7ieqk5ydADvKBjP4MBzGKEwh3uo6iQ3B4Btu0YXpZ6B53GewhyepKqT3BwAiqVOVzCeToHnMViYEkzoAII5gH0Dz+MUhTmMoaqTHGMAGm29eweew0UKc3iMqk5ydABvKBjPbwPPYbTCHO6gqpMcHcATCsZzb+A5vKcwh6uo6qQ22legVGjqGXuO+Y0KxoMmnKEabmwiOm8ZTqKqE7ChO9MiMWSiVNZJaJkzDlwxIeV2d7F17mJCI4IO6Rxo/KcojX9fqn6+tHKG8Jz474I7051ZD4rEGewl6T6pRePXd0WnjkELmkFeYGv+70YekXCtrz8XW/56y4DrgDLcGh2SULCz6AdBfZR+B5SBX4UmkQfoCHOM0pdDs10VvqDbBVoTrcIaSKZpVNCY1xKdK0zILTSL8tPIne3fj8jwa9uKwhFsVeC6bGDkRcU5nFLAmFdxRqs15l40j3LTwZ3vU+ldh4KXw9xXzif7G/lEeew4Tu3nedwDxQZYNcY73x2DSAlZXWyW2KKEjL+6TBE/0Wk02vhv0bk+q03miW3v5YNjRbdByF00k3KCbfSriRp+zWMBjFXrxqCjkbcKGDcCi0cpBtcQ8UffRu1Ozp1pKuWjt/sKlaml9f+ITXqpxIDOFJ3qOSuTB4EU25YV/p5tjYzzML43hcVASxfou8jDVyIWQS+7XRuwLpuKjdCHGvdcse3QWzXA8G8Sfy3D+9FkygOu9/5UUsOv2XDzoHquCbbfKJo5S+IJbj4t9qYAjmxD97s1dkecn7vYAbImX/IYo4CgEtKqNJvyBPseyMD4q0fa+9axJs3c9nuZxB3fWOB2CN8WuHPDmnSn2ZTny5+T8VdPHuqznDVBhZ6pGa5JfeUhYeZfac78ozJWZGypu9TYCQ3zvHVOXXAc2pimUw4uoUL/uH1GotM2Rl7jetS59e9LsykHfUsc7W/Io6IFXAfW/s+FrcU2o6RS+5clJZnHGImvFgNpAD8VnTp2lBULdlc3O2f7UeJzwdFoPZpOObiMxuldUMWoR7U1b5PwrQKy/X5GsykHO4i9/gp9d42qPqgngGSV541MMPKh2JdlqRs/CqTUlrqL9tmTEpsL0qc3oNmUA+RsvxxoKzzR3TgcYKS5LD9/fHX3tTxCbNfdLxIyFjivAbLigh7I3BuXyHxQqbgpzaY8HFmwAs0xcqXY0t4NTRpB0AkZZ09K3Hfz6K7btp5zauLWJdb5IEvyLCmuMhEpgNULDEThOu13YlNptY8viETHlJq72O1smjRgPl1Fp7Godn7/zjSX8jGgIAUaK7YRiC+wk+jrYgihjeUDI3tUOJ91jFwt/l7rrczx5Xz3oSAlY1WnrL4De0PEvkorAqSivhDIWJa5+MQ6ivNp687cRecMoLbBzcLU3lLTy7MS4RXaoQHmhXyGOws2mBnitwAm4iXDxaYn+76mxHXwJjSP8jPGs/F3CTg37Dj+WJDxIxDZqqB5ocgmyoE9KnpXozg2oX5fD+c8SQZs7nFbuTTQl782J/CQ+I2KD5Jwpa/WFFt3D2f0P4styz5/BcFQXLviBuZtZ/CnG9lFmMabJWd7NIwhEc0TX8x3PO5y1o/sd0WwroWLHWxvZCexxUoRgN1AWKmHOF7xZBTjCgz41ZcOotOiqzY5kqpEUmNj8ZNsskD8XvVVwgXiLyuOkKTwlfl3acRzRsMOHwlPX0nDkn0ICYaP6PicCM/DNTnBk+PbjipFUsJH996rEpg3rrg+9zD3gVQpkgrrin4/P1wvtUtk/pd7cAAjqVYkFXbwYACvSzqloHcU/UdDr1KtSCoc7sEB/C6h+eOK8jPl+c8W3q+TRPCRANQlsTW4z8MRiKWxSBIM96D8LRNbg3M8OMEOVC2SAneL/j1448TWwMcryE5ULZICjysr/t8TXIPdPDiAQ6haJAW0nwC/nOAabO3BAbAtFkmCscqK/0KCa/BLDw6gH1WLpMDTyoo/McE16OjBAfShapEUeFhZ8fHAJrV+8J09OIADqVokBUaJ/hPg1MpIHevBAexO1SIpcIUH5W+X2Bpc6WENWlO1SAoM9KD8Rye2Bs+Lfm3AtalaJAW6e3AAtyc0f7yG1C4P9nGCcRCSKVuK/ms4lJVOpXNMHw8OcAzViqQCylfN9mAEPROZ/2Me5j6MakVSwkcb6hS+ggjULfYw90OpUiQlLvFgBHgVuGvk8/6D+GmC0ooqRVLCRyIM5G8Sb+/49qJfCq2qbTYDgCQpUCJ7jicncFSE80XrrrGe5ns51YmkyH2eDGKWkc0im+upnuYK2YOqRFLk1x6NYrzbZcTAXka+8zTPTySuYii44dlIbE/AA8TWKEDxk4Pdse9XYkuX/YTqT5qKrebjywlghxG6UCYaZM7wOEd0Vx4q4brrbio2CxPBTbzKnCc2GFtX0BK/O7IhrzXSW1jPMFuu8WgckNESrm1WW/eF/qEAQaPVot5DoK37uUbeEL3+jgiOoq7DYCPNaRb50NZ9xXwaB0qQrRtg2z+jIOOvkvlGBoifWxDcMuxr5IkCfi+kSd8ptn8CyYCHCzCOSe5c6hucbU/zeOavjzxipIXinPZxX+dlBc/je+e8t6eJlJud63Fu1BAYJRqIrOlpHrjnHxfQ8KvLdLGPrioBLdwfKOi3qSvOMcLIBjSV8vJQgQqFc/lARUfQxsgt4ifJp9Iv6PUu2Lqy2/3jjcyNbD5waj1oKuWNBRS9bZ7hgpBIH17Z24L1xFbhLeJMXKm8LfVvH46aAvdEPBc4tesk3K0H8cgVARXrS7cLGeIMe2+xnXZQvhvNTHGn3d/I1UZeMrIwcqOvKRjvGbLi+/ctxKYVpzCf54RXh6VjLSNTEjOs1GSMO9vXBIG2zxOby2SxV5KkROCqaSkN1asgCad3jSDsrETnMk1sgRlSIq6kkXoXXOmNFFtJeGbic/lQbPoxKQmruXM2DbWYoFoZ5jFRWBS1VMCjf0oD/VGeSXiLXqTg9qIRTac8IBX068yV+lmxxU43MfJXGnmdMohmUy66Sdi02pCCxzbrV1sLPPs9S9K7gixS0CWqLc2mXKBuwKLMFPldIy2Xsx7bu3+nwS9/18R6AyUDBSW+zUSB31yB8VeB9N4bIg7i4ZYBJd/QuBUPsaYVfJw7giZTPvbJIBiGx0TNVmJN0BE4lgQe5Bfc4nZsSDZatZbbHdzZH2nkXiPfeBzLVEmvYSypB+3cF6WMxn+rNKy7EXYLjwYcN4ztRFn5R0d43XeuR6d+Es2lnKC4xwMlMnwcbX4jlZX2buT+xjcFjruqHFnTCn9P5PSPFv16Ax9I+JJwxBNVCj+/BOf9bRXXBY+XJha03d9PcdxwfnhspX3jczBNpdyg1dYzCRo+rvIuET8NTfE3h4m/Z8qIOWzj6ffsphzsfYQmksdu4DB3Fk0hB/9J96X2DcpwT1MePyL5vkt0oc/hUkVHy0pCmYA+AEiU+SJS43/RyP5SbBsvJBK9rOi8Di9o3L8XXgmSBoK6AicbeT8Co8eX7Al3Xg7Vv+8Vpbk8UOAccGX4ltK4R9Mk8gQR4C7i/865NvnIfcXaBF4D5BRoZFFiK71FwWPvIjo3A9OEj4SyZx2xpb5Gi5/EGQTckLuPa7HdJJ52XVpdmEcGGDt2GxMUxo5syY1pAqQKGCcejBwntmpuQ68SYfAXGTlI4u1mc7rS2X/XQOPvr+TAulHtyfKY3EClOiuBuf1BaQsd6nENHOtihTmcTDUnOTqApxWM5/bAc3hDYQ7XUM1Jjg5AI5J+euA5jFSYw11Uc5KjA5iqYDy9As/hAoU5PEE1J7k5AFx9TVcwns6B53GywhyeoZoTOgA6AEJ4BOARgJA8HMCbwiAgg4AkWwcwRngNyGtAkq0DuEWYCMREIJKtAzhTmArMVGCSrQM4QNJ+DDRe+BiI0AE0mA2UttB8DkzoABJ0AEDjJoAFQQgdQKIOYKiwJBgh2TqAXRSNiUVBCR1AYg4AV3j/UHQCPsuCdxWWBSd0AOqcK7ol0Hw0Bjle2BiE0AF4oYWRBaJfB5GtwUjSoIvOhw1UsAslreulG0W/GGpVc9AThM1BSSIgKWSQ2A49c6SyBBOU/x4htk33GpHPe1Pl83VNmenW4hBhe3ASGU2M9Bb7OMZXz7xZ7ivbMeJ1GOrR6GpeGcK5ThHbzh0G+XVB/zev/sj/ga/AQPelLkr5sDNAMc49I1yPtUW/X2Bs8qyEe7xEIgFn8z4VnO+1voIPS/juQDU50DmpMho/Ap1tqf55s7nolMPWEpy7z3fHkFi4qaQOYBDVP2/6GZkbqXK+7IJgMYCA5aslM/57hI9+sg7yDRf9u2QfgcLukazZL0SnaGgMMtHFN0iGoPHnXxJS1iUuMBkDO0a8Y6qvIM6zEc0gT9Y38kqCSrvMxQVWiWAN9zYyL1HjnxbRsYoUzLqJn2PhBM6NZC3R0vyrxNZvsgv4kgxBVtnYEpxdcR3XP5I1xfXZ+4ms23Ni3xCQDMG2+RYpT/R6kZFOkaxtM7FPaGN2mNe5DwDJlP4Sf7S/IW/sW0Wyvo1ckHJ+hGvUg+qfN20jVEwteUriusdGEdBHI3C2uDXBIyNW9smcxkZekHLnsZ8Q4XELpcXHS5jt/uPivwQZSYQTSm78VZV2YgxuYWeyv9ulLBH/qdPo5bcTVZ5UgWSfLzwr3lz3xUE32sPdlw/BuQOd87lWbMaZbwO4IfLfAkcD5DCg3LhW8c5Fbnc3WGw7MEL+iSHi7y4ez0dRiba+FW02dQbwmacxoS5eCvfbOB5sZuRod0afIDahqK6Xht+7nc6LYpt2Hiq80iMrADneMz0Y2rtuW9vQbLw1nSNY4GFsNyb6W6EKUEsj27kdVE9n4IjedzbSwX3hG1OtSX05ycNX/3rRKxm1tZG3lceImw5GvUn24Ov8hqJhLRU/xSJ9PEhiS2uSPR1F7x4af2eAx7Hijf04RQfwisTxWIiQYFyiaFBXFTBevE7UKkOGYBlfupGseV3JmF6T4vLH9xC9q0KWuCLZ0lzJkPAl3b3gsWs9VnqQakBy5UAlI3o0wNiRK7BQdB7AsMQ1yZILlBzAfoHGf5foBC43oSqQHLlbwYA+lXANIrsrObD9qQokRzRq/Y0KOP61RKcX339QFUiOfKpgPAMCz0GjZuHFVAWSG6jzr1GuunPgedwh5X8dSIg6TZW2z+0Dz+NqhTmMpDqQ3MD5eZGC8WwVeB7DFOZwG9WB5Aby6jWe2XYIPI/rFOZwK9WB5Aau7mYrGE/XwPO4T2EO11IdSI5MVTCe0wLP4R2FOQyhKpAc0agA/EDA8W9oZLHCHI6lKpAcGaVgPLNdPCEEh4tOJuDeVAWSI2cqGVCfQOPXqBCECkYsmEmypLOSA3hZiu+401F0SmZPEVYFIpmCOnsLlZxArwLHDYN9XGnco6kGJGeeVTKkj8WW6yqCvqJXx/AoqgBhHEBHHhL/xTWQeThb9LrltKQKkJzZXPTaT0Gu8RgP+LmR9xXH+gx/fkJ0S21Xdd3RLhLS2sgk5XH2409PiL3G0269NVb0Sm2h/dVXyuP7Uurfq5CQUoPaAB96cAJzjJwhDU8UamPkXtEL+FWXC/mzE/L/nCB+OvFCpottQLJNPeIDcBbdnOEv8jQeOCb2BSSkGqt5OGPXVoF3mtj3A5e53QH6850jtirP38S2v/7Bs5zHn5uQf6W7p+12TDKFZ39CamcVt/Uuq/F/744XhJDl0Nyd2cvoAEbw5yWkbrqIXvPNWASFQ9biT0tI/TinRMaP1OG2/EkJqT+4rru1BMb/nYTrXUhI0iCd9/6EjR/lwnrzZySk4SA/4J5Ev/x9+PMRorMTuD4h40emXxf+bITogRyBge7LGrPxI5uxPX8uQvywi+i+yddMM75dbJkzQohHcJ+OppyLIzF+tDn/tbC4JyGFsq3Yqjqh3g98Y2Qov/qEhI0NoLz4GLG59kUY/jy3A9mIy09IPPxKbE3AL8TPQ55XjQwy0oxLTUi8NHG7giuMvCYNvzmYZeRJsQ1I2/CMT0iarGtkVyPHia0MhBTjPxt5ysUQ0OTjbiPDjZxt5FCxuftNuHSkSP4X++MPoUBbrVkAAAAASUVORK5CYII=;labelPosition=right;align=left;fontFamily=Poppins;fontSource=https%3A%2F%2Ffonts.googleapis.com%2Fcss%3Ffamily%3DPoppins;" vertex="1" parent="1">
          <mxGeometry x="422" y="577.51" width="20" height="20" as="geometry" />
        </mxCell>
        <mxCell id="NXJt-m0JsOO_-4kB2BMB-8" value="Beneficiary&#xa;Expiration&#xa;Topic" style="shape=image;verticalLabelPosition=bottom;labelBackgroundColor=none;verticalAlign=top;aspect=fixed;imageAspect=0;image=data:image/png,iVBORw0KGgoAAAANSUhEUgAAAQAAAAEACAYAAABccqhmAAAACXBIWXMAAAsSAAALEgHS3X78AAAZUklEQVR42u2debSWxZHGS4JoxBU1QHCLCgbEgPuuI7gAgwoG4aDijg4RcHfihuMSg7iMK2rQEBR3jfsWDMR1BMVdA0YRXFBBNhGRRZx+7L4zNzcX7uV+1W93v/38zqm/OOfS3V9Vvd3V1VUiRJu1jexj5FQjI4w8Y2SSkS+NzDPyjZE5Rj4x8rqRB41cZeQYI+2NrMolJCQdVjHySyPnGHnRyEIjP1QgM4zca6SfkfW4vITESVMj/Y2MN/J9hUa/PMFu4Q4jezhHQwiJYIuPr/0Xnoy+Nllm5CUj3Yw04k9ASPE0dl/8zws0/NocwTgj2/LnIKQ4tjbyQkDDrymLjVxuZA3+NIT4A+fu37iz+A8RyptGtuHPRIg++LreFqnhV5f5Rvrw5yJEjw0j2/LXJUuNnC28KSCkYloaeSsh468eILyMToCQyr78KRp/dbmUToCQhp35X0rc+Kt2Aifz5ySk/iC55o4SGH+VLDHSlT8rIfVjcImMv0q+MrIZf1pCVkwHI9+W0AFAkDXYmD8xIbWDp7cTSmr8VTKQPzMhtTOw5MYPmSv2apMQUo1mRmZ6Nj687b/PyJlGeop91ruzkU5i3/sPNfK8kUWexzGCPzch/8zFnowNtQGeMtLdyGr1HEsLI6cZ+cjTmOBgtuJPTohlXSOzPRjaa0b2rGBcqztH8DV3AYT442QPX/3LV+KLXxetjbyqPMYFRn7Gn57kDpJ+3hbdt/nHehjnmkYeVXYCp/PnJ7mzvfKX/xiPY13dxRM0jyh8J0Cy5vei+/CmiHjFJEWHxWAgyRZ8/d5UMiZUA25S0Lh3dkcNjXHzoRDJFly3LRGdAhw7FTz24UoO4BGqAcmVg5WM6MEAY28lOm8WUM6c7wNIllyg5AD2CTT+20WnXsAmVAWSI/cqGNDHAb+gXZUcWBeqAsmRVxSM548Bx4/cAI0S5QOoCiRHPlUwnhMDz0Hj+fLFVAWSG0jTnadgPJ0Cz2O0whyGUx1IbqCbr0YUvX3geVytMIeRVAeSG2uJzrv70Jl0wxTmcBvVgeTGGko7gI6B53GdpB3IJCQIqP+nUQOgW+B53K8wh2upDiRHpioYzxkBx4+3DO8pzGEIVYHkiEbDzwcDjr+56DwKOoaqQHLkT6JTZbdpoPEfJTqZgHtSFUiOnKFkQEcEGv9Y0WkbxtJgJEv2UXIAqNf3k4LHvoPYgh6Vjv1DYVUgkilri14bsL4FjhsG+xelcY+iGpCcGadkSNML3Eprnf0h/agCJGdOUzSmJ8TmF/gEqcfzlMb7ndibBEKyZTPRKQtWJTd7jAdsamSK4lif5s9PiMgY0a23j8c1qymPsZ2y8RcdtyAkWg4R/dZbLxrZQmFsCPgdZmSO8vg+N/LTxH6nRi7OghuQHmIbsKCj8ylGTjJytNgejHifsb7wdoPUE5zbJ3twAvONnC/2tqEhbGPkMbF1+7THdn4CvwvKrO/mxvqk2EBrfa8+caybKjZTE3GeDlL8VS1JiGM8GFmVoO34Ve7LVVf9wHWM9HKGv9TTeGaJbYce61d+TxdL+VJxzsvcEepy51gJ+ZddwNsenUD1Mtz4ml3nvmy/FVuSC09yUd7r2wLG8J8Rrj+OI8cX9BtgF/GckZ7cFZDq7Cc62XUxy+TIzv7YER1n5KNA6/GGixswXkB+5LYSG//3zsnFwi5GJkawLsvcrmxLqj9B9HhaSR3ADZGsMbocXya6+RdaQduBLg5BMmZv0akXGJO8LrYMWmg2E51S5j4FNwfr0QzyZrD4uX4LITMi2d4iuv9lImv2Ho8EeYOg0DUlMP4FRvaKYD2RuPNtYmuHG5vtaQr5giuiUQkbPx77HBTBOvZK+EiFnIkdaQr5gmuqWxP98sdg/F2cI0r9CNWOppAviApfmlBMYKYLZIYG6bdzSxJHQeUkPp3OHBTP+CZyRUViS+sI1grXqf+Qct2k/FX813sgkYOCHK9LnEk+N4ltGR5DAPV+KWcuxYU0AYK3/v8l8US1sT3tGtH6HCXlzaZEH4ZdaAIEtDFyn4R7P4Dz9XkSri9BbTR3MYgyv6fAMasJ1Z9UsYNzBIuluCDfJUY2jHAtbi5oDRCL+buRZ8VWSH7eyAdS3I3DIKo9qckv3BnRR/BriVP2YyM559dGO89OENl56GO4k9T+ohGxBxRfQb8HvPv/1ONYkNG4DlWe1AYSiLYT+97/+QqUbLoLpp1oZOME5n2nJ2Ob4GIcK/t2H7GaI93OwMe4zqaqk7poXYGCbZ3Y7kc72w/b/JOk8qIdeAQ1VPRfH34m6dVVJAk5gJSyzy5VNi4UCOmgPMZuol9c9TCqOMndAayqfN6e7PHIg7z+WaKbHERI1g6gk3JwbQvP4/030bstQNCzFdWc5OwAtJ5Nowpyl4LGfKqi0+pPNSe5OgBcvU1SMqQRBY4bgcUXlMZ9P9Wc5OoAWopO/4KvjbQoeOxoOqKRxTldWF6cZOoADlT6il4baPcyVmHseCa+OVWd5OgAzlUyoA6Bxn+YkgM7mKpOcnQAIxWM530J15gD1X8XKszhdKo6ydEBaGyhbw08h/EKc7ieqk5ydADvKBjP4MBzGKEwh3uo6iQ3B4Btu0YXpZ6B53GewhyepKqT3BwAiqVOVzCeToHnMViYEkzoAII5gH0Dz+MUhTmMoaqTHGMAGm29eweew0UKc3iMqk5ydABvKBjPbwPPYbTCHO6gqpMcHcATCsZzb+A5vKcwh6uo6qQ22legVGjqGXuO+Y0KxoMmnKEabmwiOm8ZTqKqE7ChO9MiMWSiVNZJaJkzDlwxIeV2d7F17mJCI4IO6Rxo/KcojX9fqn6+tHKG8Jz474I7051ZD4rEGewl6T6pRePXd0WnjkELmkFeYGv+70YekXCtrz8XW/56y4DrgDLcGh2SULCz6AdBfZR+B5SBX4UmkQfoCHOM0pdDs10VvqDbBVoTrcIaSKZpVNCY1xKdK0zILTSL8tPIne3fj8jwa9uKwhFsVeC6bGDkRcU5nFLAmFdxRqs15l40j3LTwZ3vU+ldh4KXw9xXzif7G/lEeew4Tu3nedwDxQZYNcY73x2DSAlZXWyW2KKEjL+6TBE/0Wk02vhv0bk+q03miW3v5YNjRbdByF00k3KCbfSriRp+zWMBjFXrxqCjkbcKGDcCi0cpBtcQ8UffRu1Ozp1pKuWjt/sKlaml9f+ITXqpxIDOFJ3qOSuTB4EU25YV/p5tjYzzML43hcVASxfou8jDVyIWQS+7XRuwLpuKjdCHGvdcse3QWzXA8G8Sfy3D+9FkygOu9/5UUsOv2XDzoHquCbbfKJo5S+IJbj4t9qYAjmxD97s1dkecn7vYAbImX/IYo4CgEtKqNJvyBPseyMD4q0fa+9axJs3c9nuZxB3fWOB2CN8WuHPDmnSn2ZTny5+T8VdPHuqznDVBhZ6pGa5JfeUhYeZfac78ozJWZGypu9TYCQ3zvHVOXXAc2pimUw4uoUL/uH1GotM2Rl7jetS59e9LsykHfUsc7W/Io6IFXAfW/s+FrcU2o6RS+5clJZnHGImvFgNpAD8VnTp2lBULdlc3O2f7UeJzwdFoPZpOObiMxuldUMWoR7U1b5PwrQKy/X5GsykHO4i9/gp9d42qPqgngGSV541MMPKh2JdlqRs/CqTUlrqL9tmTEpsL0qc3oNmUA+RsvxxoKzzR3TgcYKS5LD9/fHX3tTxCbNfdLxIyFjivAbLigh7I3BuXyHxQqbgpzaY8HFmwAs0xcqXY0t4NTRpB0AkZZ09K3Hfz6K7btp5zauLWJdb5IEvyLCmuMhEpgNULDEThOu13YlNptY8viETHlJq72O1smjRgPl1Fp7Godn7/zjSX8jGgIAUaK7YRiC+wk+jrYgihjeUDI3tUOJ91jFwt/l7rrczx5Xz3oSAlY1WnrL4De0PEvkorAqSivhDIWJa5+MQ6ivNp687cRecMoLbBzcLU3lLTy7MS4RXaoQHmhXyGOws2mBnitwAm4iXDxaYn+76mxHXwJjSP8jPGs/F3CTg37Dj+WJDxIxDZqqB5ocgmyoE9KnpXozg2oX5fD+c8SQZs7nFbuTTQl782J/CQ+I2KD5Jwpa/WFFt3D2f0P4styz5/BcFQXLviBuZtZ/CnG9lFmMabJWd7NIwhEc0TX8x3PO5y1o/sd0WwroWLHWxvZCexxUoRgN1AWKmHOF7xZBTjCgz41ZcOotOiqzY5kqpEUmNj8ZNsskD8XvVVwgXiLyuOkKTwlfl3acRzRsMOHwlPX0nDkn0ICYaP6PicCM/DNTnBk+PbjipFUsJH996rEpg3rrg+9zD3gVQpkgrrin4/P1wvtUtk/pd7cAAjqVYkFXbwYACvSzqloHcU/UdDr1KtSCoc7sEB/C6h+eOK8jPl+c8W3q+TRPCRANQlsTW4z8MRiKWxSBIM96D8LRNbg3M8OMEOVC2SAneL/j1448TWwMcryE5ULZICjysr/t8TXIPdPDiAQ6haJAW0nwC/nOAabO3BAbAtFkmCscqK/0KCa/BLDw6gH1WLpMDTyoo/McE16OjBAfShapEUeFhZ8fHAJrV+8J09OIADqVokBUaJ/hPg1MpIHevBAexO1SIpcIUH5W+X2Bpc6WENWlO1SAoM9KD8Rye2Bs+Lfm3AtalaJAW6e3AAtyc0f7yG1C4P9nGCcRCSKVuK/ms4lJVOpXNMHw8OcAzViqQCylfN9mAEPROZ/2Me5j6MakVSwkcb6hS+ggjULfYw90OpUiQlLvFgBHgVuGvk8/6D+GmC0ooqRVLCRyIM5G8Sb+/49qJfCq2qbTYDgCQpUCJ7jicncFSE80XrrrGe5ns51YmkyH2eDGKWkc0im+upnuYK2YOqRFLk1x6NYrzbZcTAXka+8zTPTySuYii44dlIbE/AA8TWKEDxk4Pdse9XYkuX/YTqT5qKrebjywlghxG6UCYaZM7wOEd0Vx4q4brrbio2CxPBTbzKnCc2GFtX0BK/O7IhrzXSW1jPMFuu8WgckNESrm1WW/eF/qEAQaPVot5DoK37uUbeEL3+jgiOoq7DYCPNaRb50NZ9xXwaB0qQrRtg2z+jIOOvkvlGBoifWxDcMuxr5IkCfi+kSd8ptn8CyYCHCzCOSe5c6hucbU/zeOavjzxipIXinPZxX+dlBc/je+e8t6eJlJud63Fu1BAYJRqIrOlpHrjnHxfQ8KvLdLGPrioBLdwfKOi3qSvOMcLIBjSV8vJQgQqFc/lARUfQxsgt4ifJp9Iv6PUu2Lqy2/3jjcyNbD5waj1oKuWNBRS9bZ7hgpBIH17Z24L1xFbhLeJMXKm8LfVvH46aAvdEPBc4tesk3K0H8cgVARXrS7cLGeIMe2+xnXZQvhvNTHGn3d/I1UZeMrIwcqOvKRjvGbLi+/ctxKYVpzCf54RXh6VjLSNTEjOs1GSMO9vXBIG2zxOby2SxV5KkROCqaSkN1asgCad3jSDsrETnMk1sgRlSIq6kkXoXXOmNFFtJeGbic/lQbPoxKQmruXM2DbWYoFoZ5jFRWBS1VMCjf0oD/VGeSXiLXqTg9qIRTac8IBX068yV+lmxxU43MfJXGnmdMohmUy66Sdi02pCCxzbrV1sLPPs9S9K7gixS0CWqLc2mXKBuwKLMFPldIy2Xsx7bu3+nwS9/18R6AyUDBSW+zUSB31yB8VeB9N4bIg7i4ZYBJd/QuBUPsaYVfJw7giZTPvbJIBiGx0TNVmJN0BE4lgQe5Bfc4nZsSDZatZbbHdzZH2nkXiPfeBzLVEmvYSypB+3cF6WMxn+rNKy7EXYLjwYcN4ztRFn5R0d43XeuR6d+Es2lnKC4xwMlMnwcbX4jlZX2buT+xjcFjruqHFnTCn9P5PSPFv16Ax9I+JJwxBNVCj+/BOf9bRXXBY+XJha03d9PcdxwfnhspX3jczBNpdyg1dYzCRo+rvIuET8NTfE3h4m/Z8qIOWzj6ffsphzsfYQmksdu4DB3Fk0hB/9J96X2DcpwT1MePyL5vkt0oc/hUkVHy0pCmYA+AEiU+SJS43/RyP5SbBsvJBK9rOi8Di9o3L8XXgmSBoK6AicbeT8Co8eX7Al3Xg7Vv+8Vpbk8UOAccGX4ltK4R9Mk8gQR4C7i/865NvnIfcXaBF4D5BRoZFFiK71FwWPvIjo3A9OEj4SyZx2xpb5Gi5/EGQTckLuPa7HdJJ52XVpdmEcGGDt2GxMUxo5syY1pAqQKGCcejBwntmpuQ68SYfAXGTlI4u1mc7rS2X/XQOPvr+TAulHtyfKY3EClOiuBuf1BaQsd6nENHOtihTmcTDUnOTqApxWM5/bAc3hDYQ7XUM1Jjg5AI5J+euA5jFSYw11Uc5KjA5iqYDy9As/hAoU5PEE1J7k5AFx9TVcwns6B53GywhyeoZoTOgA6AEJ4BOARgJA8HMCbwiAgg4AkWwcwRngNyGtAkq0DuEWYCMREIJKtAzhTmArMVGCSrQM4QNJ+DDRe+BiI0AE0mA2UttB8DkzoABJ0AEDjJoAFQQgdQKIOYKiwJBgh2TqAXRSNiUVBCR1AYg4AV3j/UHQCPsuCdxWWBSd0AOqcK7ol0Hw0Bjle2BiE0AF4oYWRBaJfB5GtwUjSoIvOhw1UsAslreulG0W/GGpVc9AThM1BSSIgKWSQ2A49c6SyBBOU/x4htk33GpHPe1Pl83VNmenW4hBhe3ASGU2M9Bb7OMZXz7xZ7ivbMeJ1GOrR6GpeGcK5ThHbzh0G+XVB/zev/sj/ga/AQPelLkr5sDNAMc49I1yPtUW/X2Bs8qyEe7xEIgFn8z4VnO+1voIPS/juQDU50DmpMho/Ap1tqf55s7nolMPWEpy7z3fHkFi4qaQOYBDVP2/6GZkbqXK+7IJgMYCA5aslM/57hI9+sg7yDRf9u2QfgcLukazZL0SnaGgMMtHFN0iGoPHnXxJS1iUuMBkDO0a8Y6qvIM6zEc0gT9Y38kqCSrvMxQVWiWAN9zYyL1HjnxbRsYoUzLqJn2PhBM6NZC3R0vyrxNZvsgv4kgxBVtnYEpxdcR3XP5I1xfXZ+4ms23Ni3xCQDMG2+RYpT/R6kZFOkaxtM7FPaGN2mNe5DwDJlP4Sf7S/IW/sW0Wyvo1ckHJ+hGvUg+qfN20jVEwteUriusdGEdBHI3C2uDXBIyNW9smcxkZekHLnsZ8Q4XELpcXHS5jt/uPivwQZSYQTSm78VZV2YgxuYWeyv9ulLBH/qdPo5bcTVZ5UgWSfLzwr3lz3xUE32sPdlw/BuQOd87lWbMaZbwO4IfLfAkcD5DCg3LhW8c5Fbnc3WGw7MEL+iSHi7y4ez0dRiba+FW02dQbwmacxoS5eCvfbOB5sZuRod0afIDahqK6Xht+7nc6LYpt2Hiq80iMrADneMz0Y2rtuW9vQbLw1nSNY4GFsNyb6W6EKUEsj27kdVE9n4IjedzbSwX3hG1OtSX05ycNX/3rRKxm1tZG3lceImw5GvUn24Ov8hqJhLRU/xSJ9PEhiS2uSPR1F7x4af2eAx7Hijf04RQfwisTxWIiQYFyiaFBXFTBevE7UKkOGYBlfupGseV3JmF6T4vLH9xC9q0KWuCLZ0lzJkPAl3b3gsWs9VnqQakBy5UAlI3o0wNiRK7BQdB7AsMQ1yZILlBzAfoHGf5foBC43oSqQHLlbwYA+lXANIrsrObD9qQokRzRq/Y0KOP61RKcX339QFUiOfKpgPAMCz0GjZuHFVAWSG6jzr1GuunPgedwh5X8dSIg6TZW2z+0Dz+NqhTmMpDqQ3MD5eZGC8WwVeB7DFOZwG9WB5Aby6jWe2XYIPI/rFOZwK9WB5Aau7mYrGE/XwPO4T2EO11IdSI5MVTCe0wLP4R2FOQyhKpAc0agA/EDA8W9oZLHCHI6lKpAcGaVgPLNdPCEEh4tOJuDeVAWSI2cqGVCfQOPXqBCECkYsmEmypLOSA3hZiu+401F0SmZPEVYFIpmCOnsLlZxArwLHDYN9XGnco6kGJGeeVTKkj8WW6yqCvqJXx/AoqgBhHEBHHhL/xTWQeThb9LrltKQKkJzZXPTaT0Gu8RgP+LmR9xXH+gx/fkJ0S21Xdd3RLhLS2sgk5XH2409PiL3G0269NVb0Sm2h/dVXyuP7Uurfq5CQUoPaAB96cAJzjJwhDU8UamPkXtEL+FWXC/mzE/L/nCB+OvFCpottQLJNPeIDcBbdnOEv8jQeOCb2BSSkGqt5OGPXVoF3mtj3A5e53QH6850jtirP38S2v/7Bs5zHn5uQf6W7p+12TDKFZ39CamcVt/Uuq/F/744XhJDl0Nyd2cvoAEbw5yWkbrqIXvPNWASFQ9biT0tI/TinRMaP1OG2/EkJqT+4rru1BMb/nYTrXUhI0iCd9/6EjR/lwnrzZySk4SA/4J5Ev/x9+PMRorMTuD4h40emXxf+bITogRyBge7LGrPxI5uxPX8uQvywi+i+yddMM75dbJkzQohHcJ+OppyLIzF+tDn/tbC4JyGFsq3Yqjqh3g98Y2Qov/qEhI0NoLz4GLG59kUY/jy3A9mIy09IPPxKbE3AL8TPQ55XjQwy0oxLTUi8NHG7giuMvCYNvzmYZeRJsQ1I2/CMT0iarGtkVyPHia0MhBTjPxt5ysUQ0OTjbiPDjZxt5FCxuftNuHSkSP4X++MPoUBbrVkAAAAASUVORK5CYII=;labelPosition=center;align=center;fontFamily=Poppins;fontSource=https%3A%2F%2Ffonts.googleapis.com%2Fcss%3Ffamily%3DPoppins;fontSize=11;fontStyle=1;fontColor=#D10000;" vertex="1" parent="1">
          <mxGeometry x="422" y="621.25" width="47.5" height="47.5" as="geometry" />
        </mxCell>
        <mxCell id="NXJt-m0JsOO_-4kB2BMB-9" style="edgeStyle=orthogonalEdgeStyle;rounded=0;orthogonalLoop=1;jettySize=auto;html=1;" edge="1" parent="1" source="NXJt-m0JsOO_-4kB2BMB-11" target="NXJt-m0JsOO_-4kB2BMB-8">
          <mxGeometry relative="1" as="geometry" />
        </mxCell>
        <mxCell id="NXJt-m0JsOO_-4kB2BMB-10" style="edgeStyle=orthogonalEdgeStyle;rounded=0;orthogonalLoop=1;jettySize=auto;html=1;" edge="1" parent="1" source="NXJt-m0JsOO_-4kB2BMB-11" target="NXJt-m0JsOO_-4kB2BMB-49">
          <mxGeometry relative="1" as="geometry">
            <mxPoint x="564" y="645" as="targetPoint" />
          </mxGeometry>
        </mxCell>
        <mxCell id="NXJt-m0JsOO_-4kB2BMB-11" value="Kafka&lt;div&gt;Sink&lt;/div&gt;&lt;div&gt;Connector&lt;/div&gt;" style="shape=image;html=1;verticalAlign=top;verticalLabelPosition=bottom;labelBackgroundColor=none;imageAspect=0;aspect=fixed;image=https://cdn1.iconfinder.com/data/icons/science-technology-outline-24-px/24/Electrical_plug_plug_plug_connector_plug_in_power_plug-128.png;fontSize=11;fontFamily=Poppins;fontSource=https%3A%2F%2Ffonts.googleapis.com%2Fcss%3Ffamily%3DPoppins;" vertex="1" parent="1">
          <mxGeometry x="499.5" y="617.5" width="55" height="55" as="geometry" />
        </mxCell>
        <mxCell id="NXJt-m0JsOO_-4kB2BMB-12" value="ABS" style="shape=image;verticalLabelPosition=middle;labelBackgroundColor=none;verticalAlign=middle;aspect=fixed;imageAspect=0;image=data:image/png,iVBORw0KGgoAAAANSUhEUgAAAJ8AAACfCAYAAADnGwvgAAAACXBIWXMAAC4jAAAuIwF4pT92AAALeklEQVR42u2d33Xa6hLFN6y82x2EDuC88WZuBeZUYFJBdBogCg0EV2C5A1zBld94u1BBoANTge6DRokO4Z++mU9/916LFXtlWQjpx56Zb0ZSL0kSUOfVGy8GAAZF/y5Zz2MevSvHtuvw9caLEYB7ABP5N/t9aPQWBwAb+TkG8CG/b5L1/IPwdcvFJgLYCMBDxbu0z0AEEHfNLVsNX2+8uAcwFeAmAD43YLffxSFbD2Pr4BN3mwKYGYbOqnQAsAKwStbzFeEjcASR8AG98SID7rFjufoeQAQgStbzHeErN4+bAQgaksP51huAZRPzw8bAJ9AF8rojcycLlbBJENYePkLXXghrDV9vvAgJXXshrCV8UkgsmdOZ6FUg3BG+y9ANpIp7IDOmOgiAS8J3GrwAQFjDELtF2o8FfvdlTynrC2ca1fSzzJL1fEP46uN2WwA7/O6zfljlSrmpmFHu36rB/J6s52Gn4euNFzPJ7co+Eb/6p6houkSmaUaoru/8Li646xR8snyyBPBU0lvuBbTatqZyLcJpiVHgIACuOgGfHOQV/Pdgs17osi45TsEv5xTpMlMZvepKwnCp8PXGi4kA4TPMviPteUZtKFPlyxogbSn6PG5v4oIfrYNP8rsXj2/x2kSXc3DD0GN+uAUwKQvAUuDrjRdLAF89Qhc2ebrD8YvsC8KDALhpPHy98SLyVFh0DroSISwFQK/weQKvcdMbJYTjAMC3pgHoDT4P4NWyRVSzwiSC7TKNVwC9wOcBvNIrsQZDaN2m9AagOXzG4NHt6uGCXgA0hU++dT8My/5ZW5dOSoIwNMwFDwAGltHHDD7jdbxXAIGvMCsnxZdiALu6VOHGC/um64Am8EmTPDb6gN5bPb3xooyV9S3SRe+oBgCOJAxbtOrekvV8arFffaNS3wq8L3UY9THSEMCL5MCVSlKXiXwhtHqUpkH18BlZ+gHAX23pxx7pyXOYvxXADwHw1WBzX+VSh+rCrlFCW1o7p+Sw6zVZr8GKxAHASJPb9hUfYNJE8CrSHdKhgFooWc9nBg54J1Gv3LAreV5E8AppVKedMQJwqEkpXJ0vgr6Z3bU1vFEN9ykwKEK+STXtHz5JNLU35vnSxlt+NU25IkQLYOQdvty1Fxq9trSqbTKAM0mDSg2/RZ0vVIbbd8k1qtb33OtNeeDbAODGoCAKpKd8u5ndutQiG/7ZluUGT8sP1754kzpDaLB0Vqj7UcT5tKFyWueRKHHkfccdMEQ6rOuqR1mCs4NPNqgZz3luyOQxiyB9/rc0hU9yPVdtk/U8aMiB37EAme8EQE3xMTOBTzakcb2gQcees4MpgCtl+A1N4FO63jMv9Olk+P18i/v1b8j1XJdWDkpwqerDr2ZNN1TBp4Qn4AU/rah+XVcAPl8bu/p0wfU0zybbW3cxpLsyUhzIRoR/5ef88NAvD+F+eURwaQXhk6dCITQ4CQPZhwlsxr97DTGcEYD/Ko5blvLESG8JpzKBZD2PZPHZJf166I0Xg3Mzf/0L3z7X1X6160my+hPp/V3a+jgrn7pDOvzx0hsvNq5TJ76NqH+h0qnE9Uq4m1XXNASwEkNxdb+VIvebnntva/hUrmc0NUOdSP4NjqurqZyd4u6fKTRcQ532A87AB774kmpqRUxlb/nefUPXO0A/fDAhI/7ywCJN/zNyPb+Pp0Jv3/AbsjJY1xuREa+qCr6TXPVPhFzXjoZFrsbHXdVYsmTy5gU+hevteUOfzsh17OyP0GsFH+fguuN+EdwHDiYn4RMqXavciKeF7lc09PYNklGGXMKncz4FfAy53VPsWlDmr3CzgC/muehc3vcB90nnySn4ho47Quej+xXR6F/wKVa+33kOCJ8KPrh3FlhodDf0usL3YAUf871uyynyZfOFGXwDOh9V4vkf5OFzuVbj0OWH7lEq+FLnU0y40vWonQo+FhtUBUXHfQafq/PxmlwKcBsyUDsfK13KNQLe5QsOinKVUwTsjRcD5nxUVRXvwDnn431YKK0YdqlKwq4Gvj2POaUMu5M+3LobOx5zimGXInwURfgowkdRhI8ifBR1Cj6u2VGVwbdz+DveyozS6sM17PLuoVSmiePfbZjzUY0Luyj6VGmKMoMP7pdbUgy7SNbzWBN2CR+ldr6Y8FEKuUxF7TP46HyUkxTXfO8AoK+49pLwUSMVfPKLy7WXDzz2hM8CPqdRaIOnGVLdhC9Wwwe22QhfVc4HPiut68WGy62Uf93djM5HucrVeH6x1gcAxXM0hmyzET6XfC/vfIDBre0pwlfY+Y6JJHzUlXxvAPdHpcWW8E15Ouh6N2qbv8fPL/gUnY673nhBALsl1/P9L8aOe7tvJe8M1byQew/g0fHPV5fgWxE+ytO5PhxH1/4lWywYemc8L51QYOF6f8AnK89bx40TPla57vCJIseNP3DBufUKFSH3Jvg0jzANeH5aXWi45nsnmfoDPgm9rlXvTDHdStU/13O9Xju6CT6l+93R/Vor15x+f24N+SR8yXoewW26GQACul/rQu4MwGdL17vkfACwpPtRYiShYhNLF/gixRvS/dqV67m63uul57WchU8Kj1eF+4U8b61wPU0Uu8hAX/PHV/SVFxg1XktFhft+7WHgF+FTup8mb6Sqd70JgCdfrneL82nd76E3XrD4aK7ruer9lhG9q/AZuF/ItlvjXC+Eew/3ZsPqW27sQvER8ZQ2BrwRgG+KTbzeOph8E3zifs/K8MvqtxnV7Uq5mZvPc7/gRg+KnfrG6rf2iuC+pgcA369VuE7wyWKhtniIufhcW9cL4D4eD6T33CtUpBS6P5/0fN8VO3hHAGsJ3gTAD+VmgqJPn//k8CYzAD8VOzmUb8jsxP/9p+LzsPG4Dx812IfdmQJDm+e9nRoWvQp9kiSuFq39prwm6/mMvlN5gbGD7rkqBwCDoq5XOOzmwu9SGX4B4IkL0JWDF0P/QJ+ZC3jO8OXC70G54z941Vul4A2Vm3p2Cbdq+KSktgDnhQA2ErwtlJNLqsdfCfXPRgBGRMM7eAMj8A6acKsqOE58qBg2NwhnEeIPvJFRjgcAf2vCrYnz5TSFzXN7n3rjxYbrgObgzQzB+24Bnhl8Yr9TgwIEEhI2bMWZgRcCeDEC7zVZz0OzfbMIu0fW/j/DY/ePLOtQboXFCnbPS9km67mpIZg+b1fu7fzFcJM/euPFimG4MHhTpIvHZuDBwx1oTZ3vKMd4MdxkVl2tiNZVt4ugGxA4CZ62si0NPk8AAultPIIiYzsdKyo0F/yUCp5X+DwCeJCDvPR1UBoG3QTpYq/1s/C8gucdPo8AZhAGMubVRegGAt2Th817B68U+HJVcGwcEjLtAYRdgdAzdFlqMysjqpQCXw7AFXRj2p0NxxJetdPG11Rqh6k0+HLVWAx9b/HqQQQQKR7vUKfqdQbd/VJu1Zeyo0ep8OUO6hLA1xLeai9uGymeL1cFcFN5PZbwlgfJ70o/PpXA53Fp4BqIscAY1yk0S0oykddjiW/9DmBa1bGoDL5c8rwqIQyfq+hipNdMxGWuHUr+lgfuroLP/92yT9s4+HInI4TuKnlLJ9gdvT6KhiQJnVkfdATgXiAblJC73fKlm9UhDakFfLnQE1Xkgi6Q5lUHqBrhdrWELwdhgHQd6w6U5ZclqFvRVTv4cmFrCX8LqV1RrRfgawnfUShewr5v2XY1YsG91vAdVYchIWwHdI2C7whC3y0mQkf4LkI4ECecdrww2QpwURN3vpHwHRUmU3HDYUeAOyBdmF82pWXYSvhOuGEgMH5uIXRvAFZtGh1rDXwnquQJ0omQpjpi5nCxQNe+MbE2wnciNE9yr2GNYdvkYNug5Wo9fGdgzJxxhLQ1NqwItF+vLsDWefiuhOrMJYHfAwHZz0Wq6i1+34l0Iz/v5LXhhU+p/g+0QSpQ20YgmwAAAABJRU5ErkJggg==;fontSize=12;fontFamily=Poppins;fontSource=https%3A%2F%2Ffonts.googleapis.com%2Fcss%3Ffamily%3DPoppins;labelPosition=right;align=left;" vertex="1" parent="1">
          <mxGeometry x="988" y="583.75" width="20" height="20" as="geometry" />
        </mxCell>
        <mxCell id="NXJt-m0JsOO_-4kB2BMB-14" style="edgeStyle=orthogonalEdgeStyle;rounded=0;orthogonalLoop=1;jettySize=auto;html=1;" edge="1" parent="1" source="NXJt-m0JsOO_-4kB2BMB-15" target="NXJt-m0JsOO_-4kB2BMB-8">
          <mxGeometry relative="1" as="geometry" />
        </mxCell>
        <mxCell id="NXJt-m0JsOO_-4kB2BMB-15" value="Expiration&lt;br&gt;Batch" style="sketch=0;html=1;aspect=fixed;strokeColor=none;shadow=0;fillColor=#3B8DF1;verticalAlign=top;labelPosition=center;verticalLabelPosition=bottom;shape=mxgraph.gcp2.process;fontSize=11;fontFamily=Poppins;fontSource=https%3A%2F%2Ffonts.googleapis.com%2Fcss%3Ffamily%3DPoppins;fontStyle=1;fontColor=#D10000;" vertex="1" parent="1">
          <mxGeometry x="326" y="620" width="42" height="50" as="geometry" />
        </mxCell>
        <mxCell id="NXJt-m0JsOO_-4kB2BMB-22" value="Thunderhead" style="image;aspect=fixed;html=1;points=[];align=center;fontSize=11;image=img/lib/azure2/compute/Image_Templates.svg;fontFamily=Poppins;fontSource=https%3A%2F%2Ffonts.googleapis.com%2Fcss%3Ffamily%3DPoppins;" vertex="1" parent="1">
          <mxGeometry x="652.0000000000001" y="420" width="56.67" height="50" as="geometry" />
        </mxCell>
        <mxCell id="NXJt-m0JsOO_-4kB2BMB-25" value="" style="sketch=0;pointerEvents=1;shadow=0;dashed=0;html=1;strokeColor=none;fillColor=#505050;labelPosition=center;verticalLabelPosition=bottom;verticalAlign=top;outlineConnect=0;align=center;shape=mxgraph.office.users.mail_user;" vertex="1" parent="1">
          <mxGeometry x="652" y="790.25" width="58" height="59" as="geometry" />
        </mxCell>
        <mxCell id="NXJt-m0JsOO_-4kB2BMB-26" style="edgeStyle=orthogonalEdgeStyle;rounded=0;orthogonalLoop=1;jettySize=auto;html=1;" edge="1" parent="1" source="NXJt-m0JsOO_-4kB2BMB-27" target="NXJt-m0JsOO_-4kB2BMB-31">
          <mxGeometry relative="1" as="geometry" />
        </mxCell>
        <mxCell id="NXJt-m0JsOO_-4kB2BMB-27" value="Payment" style="html=1;whiteSpace=wrap;strokeColor=none;fillColor=#0079D6;labelPosition=center;verticalLabelPosition=middle;verticalAlign=top;align=center;fontSize=12;outlineConnect=0;spacingTop=-6;fontColor=#FFFFFF;sketch=0;shape=mxgraph.sitemap.payment;" vertex="1" parent="1">
          <mxGeometry x="750" y="791.75" width="70" height="56" as="geometry" />
        </mxCell>
        <mxCell id="NXJt-m0JsOO_-4kB2BMB-28" style="edgeStyle=orthogonalEdgeStyle;rounded=0;orthogonalLoop=1;jettySize=auto;html=1;entryX=0;entryY=0.5;entryDx=0;entryDy=0;entryPerimeter=0;" edge="1" parent="1" source="NXJt-m0JsOO_-4kB2BMB-25" target="NXJt-m0JsOO_-4kB2BMB-27">
          <mxGeometry relative="1" as="geometry" />
        </mxCell>
        <mxCell id="NXJt-m0JsOO_-4kB2BMB-29" value="ACTS" style="sketch=0;outlineConnect=0;fontColor=#232F3E;gradientColor=none;strokeColor=none;fillColor=none;dashed=0;verticalLabelPosition=middle;verticalAlign=middle;align=left;html=1;fontSize=12;fontStyle=0;aspect=fixed;shape=mxgraph.aws4.resourceIcon;resIcon=mxgraph.aws4.bank;labelPosition=right;fontFamily=Poppins;fontSource=https%3A%2F%2Ffonts.googleapis.com%2Fcss%3Ffamily%3DPoppins;" vertex="1" parent="1">
          <mxGeometry x="870" y="750" width="30" height="30" as="geometry" />
        </mxCell>
        <mxCell id="NXJt-m0JsOO_-4kB2BMB-30" style="edgeStyle=orthogonalEdgeStyle;rounded=0;orthogonalLoop=1;jettySize=auto;html=1;" edge="1" parent="1" source="NXJt-m0JsOO_-4kB2BMB-31" target="NXJt-m0JsOO_-4kB2BMB-36">
          <mxGeometry relative="1" as="geometry" />
        </mxCell>
        <mxCell id="NXJt-m0JsOO_-4kB2BMB-31" value="Transactions&lt;div&gt;processing&lt;/div&gt;" style="sketch=0;html=1;aspect=fixed;strokeColor=none;shadow=0;fillColor=#3B8DF1;verticalAlign=top;labelPosition=center;verticalLabelPosition=bottom;shape=mxgraph.gcp2.process;fontSize=11;fontFamily=Poppins;fontSource=https%3A%2F%2Ffonts.googleapis.com%2Fcss%3Ffamily%3DPoppins;" vertex="1" parent="1">
          <mxGeometry x="889" y="794.75" width="42" height="50" as="geometry" />
        </mxCell>
        <mxCell id="NXJt-m0JsOO_-4kB2BMB-33" style="edgeStyle=orthogonalEdgeStyle;rounded=0;orthogonalLoop=1;jettySize=auto;html=1;" edge="1" parent="1" source="NXJt-m0JsOO_-4kB2BMB-34" target="NXJt-m0JsOO_-4kB2BMB-37">
          <mxGeometry relative="1" as="geometry" />
        </mxCell>
        <mxCell id="NXJt-m0JsOO_-4kB2BMB-34" value="Offer&lt;br&gt;Confirmation&lt;br&gt;Batch" style="sketch=0;html=1;aspect=fixed;strokeColor=none;shadow=0;fillColor=#3B8DF1;verticalAlign=top;labelPosition=center;verticalLabelPosition=bottom;shape=mxgraph.gcp2.process;fontSize=11;fontFamily=Poppins;fontSource=https%3A%2F%2Ffonts.googleapis.com%2Fcss%3Ffamily%3DPoppins;fontColor=#D10000;fontStyle=1" vertex="1" parent="1">
          <mxGeometry x="1079" y="626.25" width="42" height="50" as="geometry" />
        </mxCell>
        <mxCell id="NXJt-m0JsOO_-4kB2BMB-35" value="" style="edgeStyle=orthogonalEdgeStyle;rounded=0;orthogonalLoop=1;jettySize=auto;html=1;" edge="1" parent="1" source="NXJt-m0JsOO_-4kB2BMB-36" target="NXJt-m0JsOO_-4kB2BMB-34">
          <mxGeometry relative="1" as="geometry" />
        </mxCell>
        <mxCell id="NXJt-m0JsOO_-4kB2BMB-36" value="Payments&lt;br&gt;Reconcialtion&lt;br&gt;Batch" style="sketch=0;html=1;aspect=fixed;strokeColor=none;shadow=0;fillColor=#3B8DF1;verticalAlign=top;labelPosition=center;verticalLabelPosition=bottom;shape=mxgraph.gcp2.process;fontSize=11;fontFamily=Poppins;fontSource=https%3A%2F%2Ffonts.googleapis.com%2Fcss%3Ffamily%3DPoppins;fontStyle=1;fontColor=#DB9102;" vertex="1" parent="1">
          <mxGeometry x="988" y="626.25" width="42" height="50" as="geometry" />
        </mxCell>
        <mxCell id="NXJt-m0JsOO_-4kB2BMB-37" value="TMO1_&lt;br&gt;EVENTMESSAGE" style="shape=image;html=1;verticalAlign=top;verticalLabelPosition=bottom;labelBackgroundColor=none;imageAspect=0;aspect=fixed;image=https://cdn2.iconfinder.com/data/icons/font-awesome/1792/table-128.png;fontSize=11;fontFamily=Poppins;fontSource=https%3A%2F%2Ffonts.googleapis.com%2Fcss%3Ffamily%3DPoppins;spacingTop=-6;" vertex="1" parent="1">
          <mxGeometry x="1169" y="626.25" width="50" height="50" as="geometry" />
        </mxCell>
        <mxCell id="G-SFm_TVFVV3ppfT51CN-7" style="edgeStyle=orthogonalEdgeStyle;rounded=0;orthogonalLoop=1;jettySize=auto;html=1;" edge="1" parent="1" source="NXJt-m0JsOO_-4kB2BMB-38" target="G-SFm_TVFVV3ppfT51CN-4">
          <mxGeometry relative="1" as="geometry" />
        </mxCell>
        <mxCell id="NXJt-m0JsOO_-4kB2BMB-38" value="DOCUMENT" style="shape=image;html=1;verticalAlign=top;verticalLabelPosition=bottom;labelBackgroundColor=none;imageAspect=0;aspect=fixed;image=https://cdn2.iconfinder.com/data/icons/font-awesome/1792/table-128.png;fontSize=11;fontFamily=Poppins;fontSource=https%3A%2F%2Ffonts.googleapis.com%2Fcss%3Ffamily%3DPoppins;spacingTop=-5;" vertex="1" parent="1">
          <mxGeometry x="899" y="579.84" width="50" height="50" as="geometry" />
        </mxCell>
        <mxCell id="NXJt-m0JsOO_-4kB2BMB-39" style="edgeStyle=orthogonalEdgeStyle;rounded=0;orthogonalLoop=1;jettySize=auto;html=1;" edge="1" parent="1" source="NXJt-m0JsOO_-4kB2BMB-41" target="NXJt-m0JsOO_-4kB2BMB-37">
          <mxGeometry relative="1" as="geometry" />
        </mxCell>
        <mxCell id="NXJt-m0JsOO_-4kB2BMB-40" style="edgeStyle=orthogonalEdgeStyle;rounded=0;orthogonalLoop=1;jettySize=auto;html=1;" edge="1" parent="1" source="NXJt-m0JsOO_-4kB2BMB-41" target="NXJt-m0JsOO_-4kB2BMB-43">
          <mxGeometry relative="1" as="geometry" />
        </mxCell>
        <mxCell id="NXJt-m0JsOO_-4kB2BMB-41" value="&lt;font data-font-src=&quot;https://fonts.googleapis.com/css?family=Poppins&quot; face=&quot;Poppins&quot;&gt;CISL&lt;br&gt;Adapter&lt;/font&gt;" style="sketch=0;pointerEvents=1;shadow=0;dashed=0;html=1;strokeColor=none;fillColor=#DF8C42;labelPosition=center;verticalLabelPosition=bottom;verticalAlign=top;align=center;outlineConnect=0;shape=mxgraph.veeam2.application;" vertex="1" parent="1">
          <mxGeometry x="1259" y="625.25" width="50" height="52" as="geometry" />
        </mxCell>
        <mxCell id="NXJt-m0JsOO_-4kB2BMB-42" value="Kafka" style="shape=image;verticalLabelPosition=middle;labelBackgroundColor=none;verticalAlign=middle;aspect=fixed;imageAspect=0;image=data:image/png,iVBORw0KGgoAAAANSUhEUgAAAQAAAAEACAYAAABccqhmAAAACXBIWXMAAAsSAAALEgHS3X78AAAZUklEQVR42u2debSWxZHGS4JoxBU1QHCLCgbEgPuuI7gAgwoG4aDijg4RcHfihuMSg7iMK2rQEBR3jfsWDMR1BMVdA0YRXFBBNhGRRZx+7L4zNzcX7uV+1W93v/38zqm/OOfS3V9Vvd3V1VUiRJu1jexj5FQjI4w8Y2SSkS+NzDPyjZE5Rj4x8rqRB41cZeQYI+2NrMolJCQdVjHySyPnGHnRyEIjP1QgM4zca6SfkfW4vITESVMj/Y2MN/J9hUa/PMFu4Q4jezhHQwiJYIuPr/0Xnoy+Nllm5CUj3Yw04k9ASPE0dl/8zws0/NocwTgj2/LnIKQ4tjbyQkDDrymLjVxuZA3+NIT4A+fu37iz+A8RyptGtuHPRIg++LreFqnhV5f5Rvrw5yJEjw0j2/LXJUuNnC28KSCkYloaeSsh468eILyMToCQyr78KRp/dbmUToCQhp35X0rc+Kt2Aifz5ySk/iC55o4SGH+VLDHSlT8rIfVjcImMv0q+MrIZf1pCVkwHI9+W0AFAkDXYmD8xIbWDp7cTSmr8VTKQPzMhtTOw5MYPmSv2apMQUo1mRmZ6Nj687b/PyJlGeop91ruzkU5i3/sPNfK8kUWexzGCPzch/8zFnowNtQGeMtLdyGr1HEsLI6cZ+cjTmOBgtuJPTohlXSOzPRjaa0b2rGBcqztH8DV3AYT442QPX/3LV+KLXxetjbyqPMYFRn7Gn57kDpJ+3hbdt/nHehjnmkYeVXYCp/PnJ7mzvfKX/xiPY13dxRM0jyh8J0Cy5vei+/CmiHjFJEWHxWAgyRZ8/d5UMiZUA25S0Lh3dkcNjXHzoRDJFly3LRGdAhw7FTz24UoO4BGqAcmVg5WM6MEAY28lOm8WUM6c7wNIllyg5AD2CTT+20WnXsAmVAWSI/cqGNDHAb+gXZUcWBeqAsmRVxSM548Bx4/cAI0S5QOoCiRHPlUwnhMDz0Hj+fLFVAWSG0jTnadgPJ0Cz2O0whyGUx1IbqCbr0YUvX3geVytMIeRVAeSG2uJzrv70Jl0wxTmcBvVgeTGGko7gI6B53GdpB3IJCQIqP+nUQOgW+B53K8wh2upDiRHpioYzxkBx4+3DO8pzGEIVYHkiEbDzwcDjr+56DwKOoaqQHLkT6JTZbdpoPEfJTqZgHtSFUiOnKFkQEcEGv9Y0WkbxtJgJEv2UXIAqNf3k4LHvoPYgh6Vjv1DYVUgkilri14bsL4FjhsG+xelcY+iGpCcGadkSNML3Eprnf0h/agCJGdOUzSmJ8TmF/gEqcfzlMb7ndibBEKyZTPRKQtWJTd7jAdsamSK4lif5s9PiMgY0a23j8c1qymPsZ2y8RcdtyAkWg4R/dZbLxrZQmFsCPgdZmSO8vg+N/LTxH6nRi7OghuQHmIbsKCj8ylGTjJytNgejHifsb7wdoPUE5zbJ3twAvONnC/2tqEhbGPkMbF1+7THdn4CvwvKrO/mxvqk2EBrfa8+caybKjZTE3GeDlL8VS1JiGM8GFmVoO34Ve7LVVf9wHWM9HKGv9TTeGaJbYce61d+TxdL+VJxzsvcEepy51gJ+ZddwNsenUD1Mtz4ml3nvmy/FVuSC09yUd7r2wLG8J8Rrj+OI8cX9BtgF/GckZ7cFZDq7Cc62XUxy+TIzv7YER1n5KNA6/GGixswXkB+5LYSG//3zsnFwi5GJkawLsvcrmxLqj9B9HhaSR3ADZGsMbocXya6+RdaQduBLg5BMmZv0akXGJO8LrYMWmg2E51S5j4FNwfr0QzyZrD4uX4LITMi2d4iuv9lImv2Ho8EeYOg0DUlMP4FRvaKYD2RuPNtYmuHG5vtaQr5giuiUQkbPx77HBTBOvZK+EiFnIkdaQr5gmuqWxP98sdg/F2cI0r9CNWOppAviApfmlBMYKYLZIYG6bdzSxJHQeUkPp3OHBTP+CZyRUViS+sI1grXqf+Qct2k/FX813sgkYOCHK9LnEk+N4ltGR5DAPV+KWcuxYU0AYK3/v8l8US1sT3tGtH6HCXlzaZEH4ZdaAIEtDFyn4R7P4Dz9XkSri9BbTR3MYgyv6fAMasJ1Z9UsYNzBIuluCDfJUY2jHAtbi5oDRCL+buRZ8VWSH7eyAdS3I3DIKo9qckv3BnRR/BriVP2YyM559dGO89OENl56GO4k9T+ohGxBxRfQb8HvPv/1ONYkNG4DlWe1AYSiLYT+97/+QqUbLoLpp1oZOME5n2nJ2Ob4GIcK/t2H7GaI93OwMe4zqaqk7poXYGCbZ3Y7kc72w/b/JOk8qIdeAQ1VPRfH34m6dVVJAk5gJSyzy5VNi4UCOmgPMZuol9c9TCqOMndAayqfN6e7PHIg7z+WaKbHERI1g6gk3JwbQvP4/030bstQNCzFdWc5OwAtJ5Nowpyl4LGfKqi0+pPNSe5OgBcvU1SMqQRBY4bgcUXlMZ9P9Wc5OoAWopO/4KvjbQoeOxoOqKRxTldWF6cZOoADlT6il4baPcyVmHseCa+OVWd5OgAzlUyoA6Bxn+YkgM7mKpOcnQAIxWM530J15gD1X8XKszhdKo6ydEBaGyhbw08h/EKc7ieqk5ydADvKBjP4MBzGKEwh3uo6iQ3B4Btu0YXpZ6B53GewhyepKqT3BwAiqVOVzCeToHnMViYEkzoAII5gH0Dz+MUhTmMoaqTHGMAGm29eweew0UKc3iMqk5ydABvKBjPbwPPYbTCHO6gqpMcHcATCsZzb+A5vKcwh6uo6qQ22legVGjqGXuO+Y0KxoMmnKEabmwiOm8ZTqKqE7ChO9MiMWSiVNZJaJkzDlwxIeV2d7F17mJCI4IO6Rxo/KcojX9fqn6+tHKG8Jz474I7051ZD4rEGewl6T6pRePXd0WnjkELmkFeYGv+70YekXCtrz8XW/56y4DrgDLcGh2SULCz6AdBfZR+B5SBX4UmkQfoCHOM0pdDs10VvqDbBVoTrcIaSKZpVNCY1xKdK0zILTSL8tPIne3fj8jwa9uKwhFsVeC6bGDkRcU5nFLAmFdxRqs15l40j3LTwZ3vU+ldh4KXw9xXzif7G/lEeew4Tu3nedwDxQZYNcY73x2DSAlZXWyW2KKEjL+6TBE/0Wk02vhv0bk+q03miW3v5YNjRbdByF00k3KCbfSriRp+zWMBjFXrxqCjkbcKGDcCi0cpBtcQ8UffRu1Ozp1pKuWjt/sKlaml9f+ITXqpxIDOFJ3qOSuTB4EU25YV/p5tjYzzML43hcVASxfou8jDVyIWQS+7XRuwLpuKjdCHGvdcse3QWzXA8G8Sfy3D+9FkygOu9/5UUsOv2XDzoHquCbbfKJo5S+IJbj4t9qYAjmxD97s1dkecn7vYAbImX/IYo4CgEtKqNJvyBPseyMD4q0fa+9axJs3c9nuZxB3fWOB2CN8WuHPDmnSn2ZTny5+T8VdPHuqznDVBhZ6pGa5JfeUhYeZfac78ozJWZGypu9TYCQ3zvHVOXXAc2pimUw4uoUL/uH1GotM2Rl7jetS59e9LsykHfUsc7W/Io6IFXAfW/s+FrcU2o6RS+5clJZnHGImvFgNpAD8VnTp2lBULdlc3O2f7UeJzwdFoPZpOObiMxuldUMWoR7U1b5PwrQKy/X5GsykHO4i9/gp9d42qPqgngGSV541MMPKh2JdlqRs/CqTUlrqL9tmTEpsL0qc3oNmUA+RsvxxoKzzR3TgcYKS5LD9/fHX3tTxCbNfdLxIyFjivAbLigh7I3BuXyHxQqbgpzaY8HFmwAs0xcqXY0t4NTRpB0AkZZ09K3Hfz6K7btp5zauLWJdb5IEvyLCmuMhEpgNULDEThOu13YlNptY8viETHlJq72O1smjRgPl1Fp7Godn7/zjSX8jGgIAUaK7YRiC+wk+jrYgihjeUDI3tUOJ91jFwt/l7rrczx5Xz3oSAlY1WnrL4De0PEvkorAqSivhDIWJa5+MQ6ivNp687cRecMoLbBzcLU3lLTy7MS4RXaoQHmhXyGOws2mBnitwAm4iXDxaYn+76mxHXwJjSP8jPGs/F3CTg37Dj+WJDxIxDZqqB5ocgmyoE9KnpXozg2oX5fD+c8SQZs7nFbuTTQl782J/CQ+I2KD5Jwpa/WFFt3D2f0P4styz5/BcFQXLviBuZtZ/CnG9lFmMabJWd7NIwhEc0TX8x3PO5y1o/sd0WwroWLHWxvZCexxUoRgN1AWKmHOF7xZBTjCgz41ZcOotOiqzY5kqpEUmNj8ZNsskD8XvVVwgXiLyuOkKTwlfl3acRzRsMOHwlPX0nDkn0ICYaP6PicCM/DNTnBk+PbjipFUsJH996rEpg3rrg+9zD3gVQpkgrrin4/P1wvtUtk/pd7cAAjqVYkFXbwYACvSzqloHcU/UdDr1KtSCoc7sEB/C6h+eOK8jPl+c8W3q+TRPCRANQlsTW4z8MRiKWxSBIM96D8LRNbg3M8OMEOVC2SAneL/j1448TWwMcryE5ULZICjysr/t8TXIPdPDiAQ6haJAW0nwC/nOAabO3BAbAtFkmCscqK/0KCa/BLDw6gH1WLpMDTyoo/McE16OjBAfShapEUeFhZ8fHAJrV+8J09OIADqVokBUaJ/hPg1MpIHevBAexO1SIpcIUH5W+X2Bpc6WENWlO1SAoM9KD8Rye2Bs+Lfm3AtalaJAW6e3AAtyc0f7yG1C4P9nGCcRCSKVuK/ms4lJVOpXNMHw8OcAzViqQCylfN9mAEPROZ/2Me5j6MakVSwkcb6hS+ggjULfYw90OpUiQlLvFgBHgVuGvk8/6D+GmC0ooqRVLCRyIM5G8Sb+/49qJfCq2qbTYDgCQpUCJ7jicncFSE80XrrrGe5ns51YmkyH2eDGKWkc0im+upnuYK2YOqRFLk1x6NYrzbZcTAXka+8zTPTySuYii44dlIbE/AA8TWKEDxk4Pdse9XYkuX/YTqT5qKrebjywlghxG6UCYaZM7wOEd0Vx4q4brrbio2CxPBTbzKnCc2GFtX0BK/O7IhrzXSW1jPMFuu8WgckNESrm1WW/eF/qEAQaPVot5DoK37uUbeEL3+jgiOoq7DYCPNaRb50NZ9xXwaB0qQrRtg2z+jIOOvkvlGBoifWxDcMuxr5IkCfi+kSd8ptn8CyYCHCzCOSe5c6hucbU/zeOavjzxipIXinPZxX+dlBc/je+e8t6eJlJud63Fu1BAYJRqIrOlpHrjnHxfQ8KvLdLGPrioBLdwfKOi3qSvOMcLIBjSV8vJQgQqFc/lARUfQxsgt4ifJp9Iv6PUu2Lqy2/3jjcyNbD5waj1oKuWNBRS9bZ7hgpBIH17Z24L1xFbhLeJMXKm8LfVvH46aAvdEPBc4tesk3K0H8cgVARXrS7cLGeIMe2+xnXZQvhvNTHGn3d/I1UZeMrIwcqOvKRjvGbLi+/ctxKYVpzCf54RXh6VjLSNTEjOs1GSMO9vXBIG2zxOby2SxV5KkROCqaSkN1asgCad3jSDsrETnMk1sgRlSIq6kkXoXXOmNFFtJeGbic/lQbPoxKQmruXM2DbWYoFoZ5jFRWBS1VMCjf0oD/VGeSXiLXqTg9qIRTac8IBX068yV+lmxxU43MfJXGnmdMohmUy66Sdi02pCCxzbrV1sLPPs9S9K7gixS0CWqLc2mXKBuwKLMFPldIy2Xsx7bu3+nwS9/18R6AyUDBSW+zUSB31yB8VeB9N4bIg7i4ZYBJd/QuBUPsaYVfJw7giZTPvbJIBiGx0TNVmJN0BE4lgQe5Bfc4nZsSDZatZbbHdzZH2nkXiPfeBzLVEmvYSypB+3cF6WMxn+rNKy7EXYLjwYcN4ztRFn5R0d43XeuR6d+Es2lnKC4xwMlMnwcbX4jlZX2buT+xjcFjruqHFnTCn9P5PSPFv16Ax9I+JJwxBNVCj+/BOf9bRXXBY+XJha03d9PcdxwfnhspX3jczBNpdyg1dYzCRo+rvIuET8NTfE3h4m/Z8qIOWzj6ffsphzsfYQmksdu4DB3Fk0hB/9J96X2DcpwT1MePyL5vkt0oc/hUkVHy0pCmYA+AEiU+SJS43/RyP5SbBsvJBK9rOi8Di9o3L8XXgmSBoK6AicbeT8Co8eX7Al3Xg7Vv+8Vpbk8UOAccGX4ltK4R9Mk8gQR4C7i/865NvnIfcXaBF4D5BRoZFFiK71FwWPvIjo3A9OEj4SyZx2xpb5Gi5/EGQTckLuPa7HdJJ52XVpdmEcGGDt2GxMUxo5syY1pAqQKGCcejBwntmpuQ68SYfAXGTlI4u1mc7rS2X/XQOPvr+TAulHtyfKY3EClOiuBuf1BaQsd6nENHOtihTmcTDUnOTqApxWM5/bAc3hDYQ7XUM1Jjg5AI5J+euA5jFSYw11Uc5KjA5iqYDy9As/hAoU5PEE1J7k5AFx9TVcwns6B53GywhyeoZoTOgA6AEJ4BOARgJA8HMCbwiAgg4AkWwcwRngNyGtAkq0DuEWYCMREIJKtAzhTmArMVGCSrQM4QNJ+DDRe+BiI0AE0mA2UttB8DkzoABJ0AEDjJoAFQQgdQKIOYKiwJBgh2TqAXRSNiUVBCR1AYg4AV3j/UHQCPsuCdxWWBSd0AOqcK7ol0Hw0Bjle2BiE0AF4oYWRBaJfB5GtwUjSoIvOhw1UsAslreulG0W/GGpVc9AThM1BSSIgKWSQ2A49c6SyBBOU/x4htk33GpHPe1Pl83VNmenW4hBhe3ASGU2M9Bb7OMZXz7xZ7ivbMeJ1GOrR6GpeGcK5ThHbzh0G+XVB/zev/sj/ga/AQPelLkr5sDNAMc49I1yPtUW/X2Bs8qyEe7xEIgFn8z4VnO+1voIPS/juQDU50DmpMho/Ap1tqf55s7nolMPWEpy7z3fHkFi4qaQOYBDVP2/6GZkbqXK+7IJgMYCA5aslM/57hI9+sg7yDRf9u2QfgcLukazZL0SnaGgMMtHFN0iGoPHnXxJS1iUuMBkDO0a8Y6qvIM6zEc0gT9Y38kqCSrvMxQVWiWAN9zYyL1HjnxbRsYoUzLqJn2PhBM6NZC3R0vyrxNZvsgv4kgxBVtnYEpxdcR3XP5I1xfXZ+4ms23Ni3xCQDMG2+RYpT/R6kZFOkaxtM7FPaGN2mNe5DwDJlP4Sf7S/IW/sW0Wyvo1ckHJ+hGvUg+qfN20jVEwteUriusdGEdBHI3C2uDXBIyNW9smcxkZekHLnsZ8Q4XELpcXHS5jt/uPivwQZSYQTSm78VZV2YgxuYWeyv9ulLBH/qdPo5bcTVZ5UgWSfLzwr3lz3xUE32sPdlw/BuQOd87lWbMaZbwO4IfLfAkcD5DCg3LhW8c5Fbnc3WGw7MEL+iSHi7y4ez0dRiba+FW02dQbwmacxoS5eCvfbOB5sZuRod0afIDahqK6Xht+7nc6LYpt2Hiq80iMrADneMz0Y2rtuW9vQbLw1nSNY4GFsNyb6W6EKUEsj27kdVE9n4IjedzbSwX3hG1OtSX05ycNX/3rRKxm1tZG3lceImw5GvUn24Ov8hqJhLRU/xSJ9PEhiS2uSPR1F7x4af2eAx7Hijf04RQfwisTxWIiQYFyiaFBXFTBevE7UKkOGYBlfupGseV3JmF6T4vLH9xC9q0KWuCLZ0lzJkPAl3b3gsWs9VnqQakBy5UAlI3o0wNiRK7BQdB7AsMQ1yZILlBzAfoHGf5foBC43oSqQHLlbwYA+lXANIrsrObD9qQokRzRq/Y0KOP61RKcX339QFUiOfKpgPAMCz0GjZuHFVAWSG6jzr1GuunPgedwh5X8dSIg6TZW2z+0Dz+NqhTmMpDqQ3MD5eZGC8WwVeB7DFOZwG9WB5Aby6jWe2XYIPI/rFOZwK9WB5Aau7mYrGE/XwPO4T2EO11IdSI5MVTCe0wLP4R2FOQyhKpAc0agA/EDA8W9oZLHCHI6lKpAcGaVgPLNdPCEEh4tOJuDeVAWSI2cqGVCfQOPXqBCECkYsmEmypLOSA3hZiu+401F0SmZPEVYFIpmCOnsLlZxArwLHDYN9XGnco6kGJGeeVTKkj8WW6yqCvqJXx/AoqgBhHEBHHhL/xTWQeThb9LrltKQKkJzZXPTaT0Gu8RgP+LmR9xXH+gx/fkJ0S21Xdd3RLhLS2sgk5XH2409PiL3G0269NVb0Sm2h/dVXyuP7Uurfq5CQUoPaAB96cAJzjJwhDU8UamPkXtEL+FWXC/mzE/L/nCB+OvFCpottQLJNPeIDcBbdnOEv8jQeOCb2BSSkGqt5OGPXVoF3mtj3A5e53QH6850jtirP38S2v/7Bs5zHn5uQf6W7p+12TDKFZ39CamcVt/Uuq/F/744XhJDl0Nyd2cvoAEbw5yWkbrqIXvPNWASFQ9biT0tI/TinRMaP1OG2/EkJqT+4rru1BMb/nYTrXUhI0iCd9/6EjR/lwnrzZySk4SA/4J5Ev/x9+PMRorMTuD4h40emXxf+bITogRyBge7LGrPxI5uxPX8uQvywi+i+yddMM75dbJkzQohHcJ+OppyLIzF+tDn/tbC4JyGFsq3Yqjqh3g98Y2Qov/qEhI0NoLz4GLG59kUY/jy3A9mIy09IPPxKbE3AL8TPQ55XjQwy0oxLTUi8NHG7giuMvCYNvzmYZeRJsQ1I2/CMT0iarGtkVyPHia0MhBTjPxt5ysUQ0OTjbiPDjZxt5FCxuftNuHSkSP4X++MPoUBbrVkAAAAASUVORK5CYII=;labelPosition=right;align=left;fontFamily=Poppins;fontSource=https%3A%2F%2Ffonts.googleapis.com%2Fcss%3Ffamily%3DPoppins;" vertex="1" parent="1">
          <mxGeometry x="1355.25" y="578.59" width="20" height="20" as="geometry" />
        </mxCell>
        <mxCell id="NXJt-m0JsOO_-4kB2BMB-43" value="Contract&#xa;Creation&#xa;Topic" style="shape=image;verticalLabelPosition=bottom;labelBackgroundColor=none;verticalAlign=top;aspect=fixed;imageAspect=0;image=data:image/png,iVBORw0KGgoAAAANSUhEUgAAAQAAAAEACAYAAABccqhmAAAACXBIWXMAAAsSAAALEgHS3X78AAAZUklEQVR42u2debSWxZHGS4JoxBU1QHCLCgbEgPuuI7gAgwoG4aDijg4RcHfihuMSg7iMK2rQEBR3jfsWDMR1BMVdA0YRXFBBNhGRRZx+7L4zNzcX7uV+1W93v/38zqm/OOfS3V9Vvd3V1VUiRJu1jexj5FQjI4w8Y2SSkS+NzDPyjZE5Rj4x8rqRB41cZeQYI+2NrMolJCQdVjHySyPnGHnRyEIjP1QgM4zca6SfkfW4vITESVMj/Y2MN/J9hUa/PMFu4Q4jezhHQwiJYIuPr/0Xnoy+Nllm5CUj3Yw04k9ASPE0dl/8zws0/NocwTgj2/LnIKQ4tjbyQkDDrymLjVxuZA3+NIT4A+fu37iz+A8RyptGtuHPRIg++LreFqnhV5f5Rvrw5yJEjw0j2/LXJUuNnC28KSCkYloaeSsh468eILyMToCQyr78KRp/dbmUToCQhp35X0rc+Kt2Aifz5ySk/iC55o4SGH+VLDHSlT8rIfVjcImMv0q+MrIZf1pCVkwHI9+W0AFAkDXYmD8xIbWDp7cTSmr8VTKQPzMhtTOw5MYPmSv2apMQUo1mRmZ6Nj687b/PyJlGeop91ruzkU5i3/sPNfK8kUWexzGCPzch/8zFnowNtQGeMtLdyGr1HEsLI6cZ+cjTmOBgtuJPTohlXSOzPRjaa0b2rGBcqztH8DV3AYT442QPX/3LV+KLXxetjbyqPMYFRn7Gn57kDpJ+3hbdt/nHehjnmkYeVXYCp/PnJ7mzvfKX/xiPY13dxRM0jyh8J0Cy5vei+/CmiHjFJEWHxWAgyRZ8/d5UMiZUA25S0Lh3dkcNjXHzoRDJFly3LRGdAhw7FTz24UoO4BGqAcmVg5WM6MEAY28lOm8WUM6c7wNIllyg5AD2CTT+20WnXsAmVAWSI/cqGNDHAb+gXZUcWBeqAsmRVxSM548Bx4/cAI0S5QOoCiRHPlUwnhMDz0Hj+fLFVAWSG0jTnadgPJ0Cz2O0whyGUx1IbqCbr0YUvX3geVytMIeRVAeSG2uJzrv70Jl0wxTmcBvVgeTGGko7gI6B53GdpB3IJCQIqP+nUQOgW+B53K8wh2upDiRHpioYzxkBx4+3DO8pzGEIVYHkiEbDzwcDjr+56DwKOoaqQHLkT6JTZbdpoPEfJTqZgHtSFUiOnKFkQEcEGv9Y0WkbxtJgJEv2UXIAqNf3k4LHvoPYgh6Vjv1DYVUgkilri14bsL4FjhsG+xelcY+iGpCcGadkSNML3Eprnf0h/agCJGdOUzSmJ8TmF/gEqcfzlMb7ndibBEKyZTPRKQtWJTd7jAdsamSK4lif5s9PiMgY0a23j8c1qymPsZ2y8RcdtyAkWg4R/dZbLxrZQmFsCPgdZmSO8vg+N/LTxH6nRi7OghuQHmIbsKCj8ylGTjJytNgejHifsb7wdoPUE5zbJ3twAvONnC/2tqEhbGPkMbF1+7THdn4CvwvKrO/mxvqk2EBrfa8+caybKjZTE3GeDlL8VS1JiGM8GFmVoO34Ve7LVVf9wHWM9HKGv9TTeGaJbYce61d+TxdL+VJxzsvcEepy51gJ+ZddwNsenUD1Mtz4ml3nvmy/FVuSC09yUd7r2wLG8J8Rrj+OI8cX9BtgF/GckZ7cFZDq7Cc62XUxy+TIzv7YER1n5KNA6/GGixswXkB+5LYSG//3zsnFwi5GJkawLsvcrmxLqj9B9HhaSR3ADZGsMbocXya6+RdaQduBLg5BMmZv0akXGJO8LrYMWmg2E51S5j4FNwfr0QzyZrD4uX4LITMi2d4iuv9lImv2Ho8EeYOg0DUlMP4FRvaKYD2RuPNtYmuHG5vtaQr5giuiUQkbPx77HBTBOvZK+EiFnIkdaQr5gmuqWxP98sdg/F2cI0r9CNWOppAviApfmlBMYKYLZIYG6bdzSxJHQeUkPp3OHBTP+CZyRUViS+sI1grXqf+Qct2k/FX813sgkYOCHK9LnEk+N4ltGR5DAPV+KWcuxYU0AYK3/v8l8US1sT3tGtH6HCXlzaZEH4ZdaAIEtDFyn4R7P4Dz9XkSri9BbTR3MYgyv6fAMasJ1Z9UsYNzBIuluCDfJUY2jHAtbi5oDRCL+buRZ8VWSH7eyAdS3I3DIKo9qckv3BnRR/BriVP2YyM559dGO89OENl56GO4k9T+ohGxBxRfQb8HvPv/1ONYkNG4DlWe1AYSiLYT+97/+QqUbLoLpp1oZOME5n2nJ2Ob4GIcK/t2H7GaI93OwMe4zqaqk7poXYGCbZ3Y7kc72w/b/JOk8qIdeAQ1VPRfH34m6dVVJAk5gJSyzy5VNi4UCOmgPMZuol9c9TCqOMndAayqfN6e7PHIg7z+WaKbHERI1g6gk3JwbQvP4/030bstQNCzFdWc5OwAtJ5Nowpyl4LGfKqi0+pPNSe5OgBcvU1SMqQRBY4bgcUXlMZ9P9Wc5OoAWopO/4KvjbQoeOxoOqKRxTldWF6cZOoADlT6il4baPcyVmHseCa+OVWd5OgAzlUyoA6Bxn+YkgM7mKpOcnQAIxWM530J15gD1X8XKszhdKo6ydEBaGyhbw08h/EKc7ieqk5ydADvKBjP4MBzGKEwh3uo6iQ3B4Btu0YXpZ6B53GewhyepKqT3BwAiqVOVzCeToHnMViYEkzoAII5gH0Dz+MUhTmMoaqTHGMAGm29eweew0UKc3iMqk5ydABvKBjPbwPPYbTCHO6gqpMcHcATCsZzb+A5vKcwh6uo6qQ22legVGjqGXuO+Y0KxoMmnKEabmwiOm8ZTqKqE7ChO9MiMWSiVNZJaJkzDlwxIeV2d7F17mJCI4IO6Rxo/KcojX9fqn6+tHKG8Jz474I7051ZD4rEGewl6T6pRePXd0WnjkELmkFeYGv+70YekXCtrz8XW/56y4DrgDLcGh2SULCz6AdBfZR+B5SBX4UmkQfoCHOM0pdDs10VvqDbBVoTrcIaSKZpVNCY1xKdK0zILTSL8tPIne3fj8jwa9uKwhFsVeC6bGDkRcU5nFLAmFdxRqs15l40j3LTwZ3vU+ldh4KXw9xXzif7G/lEeew4Tu3nedwDxQZYNcY73x2DSAlZXWyW2KKEjL+6TBE/0Wk02vhv0bk+q03miW3v5YNjRbdByF00k3KCbfSriRp+zWMBjFXrxqCjkbcKGDcCi0cpBtcQ8UffRu1Ozp1pKuWjt/sKlaml9f+ITXqpxIDOFJ3qOSuTB4EU25YV/p5tjYzzML43hcVASxfou8jDVyIWQS+7XRuwLpuKjdCHGvdcse3QWzXA8G8Sfy3D+9FkygOu9/5UUsOv2XDzoHquCbbfKJo5S+IJbj4t9qYAjmxD97s1dkecn7vYAbImX/IYo4CgEtKqNJvyBPseyMD4q0fa+9axJs3c9nuZxB3fWOB2CN8WuHPDmnSn2ZTny5+T8VdPHuqznDVBhZ6pGa5JfeUhYeZfac78ozJWZGypu9TYCQ3zvHVOXXAc2pimUw4uoUL/uH1GotM2Rl7jetS59e9LsykHfUsc7W/Io6IFXAfW/s+FrcU2o6RS+5clJZnHGImvFgNpAD8VnTp2lBULdlc3O2f7UeJzwdFoPZpOObiMxuldUMWoR7U1b5PwrQKy/X5GsykHO4i9/gp9d42qPqgngGSV541MMPKh2JdlqRs/CqTUlrqL9tmTEpsL0qc3oNmUA+RsvxxoKzzR3TgcYKS5LD9/fHX3tTxCbNfdLxIyFjivAbLigh7I3BuXyHxQqbgpzaY8HFmwAs0xcqXY0t4NTRpB0AkZZ09K3Hfz6K7btp5zauLWJdb5IEvyLCmuMhEpgNULDEThOu13YlNptY8viETHlJq72O1smjRgPl1Fp7Godn7/zjSX8jGgIAUaK7YRiC+wk+jrYgihjeUDI3tUOJ91jFwt/l7rrczx5Xz3oSAlY1WnrL4De0PEvkorAqSivhDIWJa5+MQ6ivNp687cRecMoLbBzcLU3lLTy7MS4RXaoQHmhXyGOws2mBnitwAm4iXDxaYn+76mxHXwJjSP8jPGs/F3CTg37Dj+WJDxIxDZqqB5ocgmyoE9KnpXozg2oX5fD+c8SQZs7nFbuTTQl782J/CQ+I2KD5Jwpa/WFFt3D2f0P4styz5/BcFQXLviBuZtZ/CnG9lFmMabJWd7NIwhEc0TX8x3PO5y1o/sd0WwroWLHWxvZCexxUoRgN1AWKmHOF7xZBTjCgz41ZcOotOiqzY5kqpEUmNj8ZNsskD8XvVVwgXiLyuOkKTwlfl3acRzRsMOHwlPX0nDkn0ICYaP6PicCM/DNTnBk+PbjipFUsJH996rEpg3rrg+9zD3gVQpkgrrin4/P1wvtUtk/pd7cAAjqVYkFXbwYACvSzqloHcU/UdDr1KtSCoc7sEB/C6h+eOK8jPl+c8W3q+TRPCRANQlsTW4z8MRiKWxSBIM96D8LRNbg3M8OMEOVC2SAneL/j1448TWwMcryE5ULZICjysr/t8TXIPdPDiAQ6haJAW0nwC/nOAabO3BAbAtFkmCscqK/0KCa/BLDw6gH1WLpMDTyoo/McE16OjBAfShapEUeFhZ8fHAJrV+8J09OIADqVokBUaJ/hPg1MpIHevBAexO1SIpcIUH5W+X2Bpc6WENWlO1SAoM9KD8Rye2Bs+Lfm3AtalaJAW6e3AAtyc0f7yG1C4P9nGCcRCSKVuK/ms4lJVOpXNMHw8OcAzViqQCylfN9mAEPROZ/2Me5j6MakVSwkcb6hS+ggjULfYw90OpUiQlLvFgBHgVuGvk8/6D+GmC0ooqRVLCRyIM5G8Sb+/49qJfCq2qbTYDgCQpUCJ7jicncFSE80XrrrGe5ns51YmkyH2eDGKWkc0im+upnuYK2YOqRFLk1x6NYrzbZcTAXka+8zTPTySuYii44dlIbE/AA8TWKEDxk4Pdse9XYkuX/YTqT5qKrebjywlghxG6UCYaZM7wOEd0Vx4q4brrbio2CxPBTbzKnCc2GFtX0BK/O7IhrzXSW1jPMFuu8WgckNESrm1WW/eF/qEAQaPVot5DoK37uUbeEL3+jgiOoq7DYCPNaRb50NZ9xXwaB0qQrRtg2z+jIOOvkvlGBoifWxDcMuxr5IkCfi+kSd8ptn8CyYCHCzCOSe5c6hucbU/zeOavjzxipIXinPZxX+dlBc/je+e8t6eJlJud63Fu1BAYJRqIrOlpHrjnHxfQ8KvLdLGPrioBLdwfKOi3qSvOMcLIBjSV8vJQgQqFc/lARUfQxsgt4ifJp9Iv6PUu2Lqy2/3jjcyNbD5waj1oKuWNBRS9bZ7hgpBIH17Z24L1xFbhLeJMXKm8LfVvH46aAvdEPBc4tesk3K0H8cgVARXrS7cLGeIMe2+xnXZQvhvNTHGn3d/I1UZeMrIwcqOvKRjvGbLi+/ctxKYVpzCf54RXh6VjLSNTEjOs1GSMO9vXBIG2zxOby2SxV5KkROCqaSkN1asgCad3jSDsrETnMk1sgRlSIq6kkXoXXOmNFFtJeGbic/lQbPoxKQmruXM2DbWYoFoZ5jFRWBS1VMCjf0oD/VGeSXiLXqTg9qIRTac8IBX068yV+lmxxU43MfJXGnmdMohmUy66Sdi02pCCxzbrV1sLPPs9S9K7gixS0CWqLc2mXKBuwKLMFPldIy2Xsx7bu3+nwS9/18R6AyUDBSW+zUSB31yB8VeB9N4bIg7i4ZYBJd/QuBUPsaYVfJw7giZTPvbJIBiGx0TNVmJN0BE4lgQe5Bfc4nZsSDZatZbbHdzZH2nkXiPfeBzLVEmvYSypB+3cF6WMxn+rNKy7EXYLjwYcN4ztRFn5R0d43XeuR6d+Es2lnKC4xwMlMnwcbX4jlZX2buT+xjcFjruqHFnTCn9P5PSPFv16Ax9I+JJwxBNVCj+/BOf9bRXXBY+XJha03d9PcdxwfnhspX3jczBNpdyg1dYzCRo+rvIuET8NTfE3h4m/Z8qIOWzj6ffsphzsfYQmksdu4DB3Fk0hB/9J96X2DcpwT1MePyL5vkt0oc/hUkVHy0pCmYA+AEiU+SJS43/RyP5SbBsvJBK9rOi8Di9o3L8XXgmSBoK6AicbeT8Co8eX7Al3Xg7Vv+8Vpbk8UOAccGX4ltK4R9Mk8gQR4C7i/865NvnIfcXaBF4D5BRoZFFiK71FwWPvIjo3A9OEj4SyZx2xpb5Gi5/EGQTckLuPa7HdJJ52XVpdmEcGGDt2GxMUxo5syY1pAqQKGCcejBwntmpuQ68SYfAXGTlI4u1mc7rS2X/XQOPvr+TAulHtyfKY3EClOiuBuf1BaQsd6nENHOtihTmcTDUnOTqApxWM5/bAc3hDYQ7XUM1Jjg5AI5J+euA5jFSYw11Uc5KjA5iqYDy9As/hAoU5PEE1J7k5AFx9TVcwns6B53GywhyeoZoTOgA6AEJ4BOARgJA8HMCbwiAgg4AkWwcwRngNyGtAkq0DuEWYCMREIJKtAzhTmArMVGCSrQM4QNJ+DDRe+BiI0AE0mA2UttB8DkzoABJ0AEDjJoAFQQgdQKIOYKiwJBgh2TqAXRSNiUVBCR1AYg4AV3j/UHQCPsuCdxWWBSd0AOqcK7ol0Hw0Bjle2BiE0AF4oYWRBaJfB5GtwUjSoIvOhw1UsAslreulG0W/GGpVc9AThM1BSSIgKWSQ2A49c6SyBBOU/x4htk33GpHPe1Pl83VNmenW4hBhe3ASGU2M9Bb7OMZXz7xZ7ivbMeJ1GOrR6GpeGcK5ThHbzh0G+XVB/zev/sj/ga/AQPelLkr5sDNAMc49I1yPtUW/X2Bs8qyEe7xEIgFn8z4VnO+1voIPS/juQDU50DmpMho/Ap1tqf55s7nolMPWEpy7z3fHkFi4qaQOYBDVP2/6GZkbqXK+7IJgMYCA5aslM/57hI9+sg7yDRf9u2QfgcLukazZL0SnaGgMMtHFN0iGoPHnXxJS1iUuMBkDO0a8Y6qvIM6zEc0gT9Y38kqCSrvMxQVWiWAN9zYyL1HjnxbRsYoUzLqJn2PhBM6NZC3R0vyrxNZvsgv4kgxBVtnYEpxdcR3XP5I1xfXZ+4ms23Ni3xCQDMG2+RYpT/R6kZFOkaxtM7FPaGN2mNe5DwDJlP4Sf7S/IW/sW0Wyvo1ckHJ+hGvUg+qfN20jVEwteUriusdGEdBHI3C2uDXBIyNW9smcxkZekHLnsZ8Q4XELpcXHS5jt/uPivwQZSYQTSm78VZV2YgxuYWeyv9ulLBH/qdPo5bcTVZ5UgWSfLzwr3lz3xUE32sPdlw/BuQOd87lWbMaZbwO4IfLfAkcD5DCg3LhW8c5Fbnc3WGw7MEL+iSHi7y4ez0dRiba+FW02dQbwmacxoS5eCvfbOB5sZuRod0afIDahqK6Xht+7nc6LYpt2Hiq80iMrADneMz0Y2rtuW9vQbLw1nSNY4GFsNyb6W6EKUEsj27kdVE9n4IjedzbSwX3hG1OtSX05ycNX/3rRKxm1tZG3lceImw5GvUn24Ov8hqJhLRU/xSJ9PEhiS2uSPR1F7x4af2eAx7Hijf04RQfwisTxWIiQYFyiaFBXFTBevE7UKkOGYBlfupGseV3JmF6T4vLH9xC9q0KWuCLZ0lzJkPAl3b3gsWs9VnqQakBy5UAlI3o0wNiRK7BQdB7AsMQ1yZILlBzAfoHGf5foBC43oSqQHLlbwYA+lXANIrsrObD9qQokRzRq/Y0KOP61RKcX339QFUiOfKpgPAMCz0GjZuHFVAWSG6jzr1GuunPgedwh5X8dSIg6TZW2z+0Dz+NqhTmMpDqQ3MD5eZGC8WwVeB7DFOZwG9WB5Aby6jWe2XYIPI/rFOZwK9WB5Aau7mYrGE/XwPO4T2EO11IdSI5MVTCe0wLP4R2FOQyhKpAc0agA/EDA8W9oZLHCHI6lKpAcGaVgPLNdPCEEh4tOJuDeVAWSI2cqGVCfQOPXqBCECkYsmEmypLOSA3hZiu+401F0SmZPEVYFIpmCOnsLlZxArwLHDYN9XGnco6kGJGeeVTKkj8WW6yqCvqJXx/AoqgBhHEBHHhL/xTWQeThb9LrltKQKkJzZXPTaT0Gu8RgP+LmR9xXH+gx/fkJ0S21Xdd3RLhLS2sgk5XH2409PiL3G0269NVb0Sm2h/dVXyuP7Uurfq5CQUoPaAB96cAJzjJwhDU8UamPkXtEL+FWXC/mzE/L/nCB+OvFCpottQLJNPeIDcBbdnOEv8jQeOCb2BSSkGqt5OGPXVoF3mtj3A5e53QH6850jtirP38S2v/7Bs5zHn5uQf6W7p+12TDKFZ39CamcVt/Uuq/F/744XhJDl0Nyd2cvoAEbw5yWkbrqIXvPNWASFQ9biT0tI/TinRMaP1OG2/EkJqT+4rru1BMb/nYTrXUhI0iCd9/6EjR/lwnrzZySk4SA/4J5Ev/x9+PMRorMTuD4h40emXxf+bITogRyBge7LGrPxI5uxPX8uQvywi+i+yddMM75dbJkzQohHcJ+OppyLIzF+tDn/tbC4JyGFsq3Yqjqh3g98Y2Qov/qEhI0NoLz4GLG59kUY/jy3A9mIy09IPPxKbE3AL8TPQ55XjQwy0oxLTUi8NHG7giuMvCYNvzmYZeRJsQ1I2/CMT0iarGtkVyPHia0MhBTjPxt5ysUQ0OTjbiPDjZxt5FCxuftNuHSkSP4X++MPoUBbrVkAAAAASUVORK5CYII=;labelPosition=center;align=center;fontFamily=Poppins;fontSource=https%3A%2F%2Ffonts.googleapis.com%2Fcss%3Ffamily%3DPoppins;fontSize=11;fontStyle=1;fontColor=#D10000;" vertex="1" parent="1">
          <mxGeometry x="1375.25" y="627.5" width="47.5" height="47.5" as="geometry" />
        </mxCell>
        <mxCell id="NXJt-m0JsOO_-4kB2BMB-44" value="&lt;font data-font-src=&quot;https://fonts.googleapis.com/css?family=Poppins&quot; face=&quot;Poppins&quot;&gt;Proteo&lt;/font&gt;" style="rounded=1;whiteSpace=wrap;html=1;fillColor=#bac8d3;strokeColor=none;labelPosition=left;verticalLabelPosition=top;align=right;verticalAlign=bottom;spacingTop=0;spacingBottom=-24;spacingLeft=0;spacingRight=-52;" vertex="1" parent="1">
          <mxGeometry x="1250" y="750" width="100" height="155" as="geometry" />
        </mxCell>
        <mxCell id="NXJt-m0JsOO_-4kB2BMB-45" style="edgeStyle=orthogonalEdgeStyle;rounded=0;orthogonalLoop=1;jettySize=auto;html=1;" edge="1" parent="1" source="NXJt-m0JsOO_-4kB2BMB-46" target="NXJt-m0JsOO_-4kB2BMB-43">
          <mxGeometry relative="1" as="geometry" />
        </mxCell>
        <mxCell id="NXJt-m0JsOO_-4kB2BMB-46" value="&lt;font face=&quot;Poppins&quot;&gt;Contract&lt;br&gt;Creation&lt;br&gt;EPC&lt;/font&gt;" style="sketch=0;pointerEvents=1;shadow=0;dashed=0;html=1;strokeColor=none;fillColor=#DF8C42;labelPosition=center;verticalLabelPosition=bottom;verticalAlign=top;align=center;outlineConnect=0;shape=mxgraph.veeam2.application;" vertex="1" parent="1">
          <mxGeometry x="1275" y="791.75" width="50" height="52" as="geometry" />
        </mxCell>
        <mxCell id="G-SFm_TVFVV3ppfT51CN-1" style="edgeStyle=orthogonalEdgeStyle;rounded=0;orthogonalLoop=1;jettySize=auto;html=1;" edge="1" parent="1" source="NXJt-m0JsOO_-4kB2BMB-49" target="NXJt-m0JsOO_-4kB2BMB-25">
          <mxGeometry relative="1" as="geometry" />
        </mxCell>
        <mxCell id="G-SFm_TVFVV3ppfT51CN-2" style="edgeStyle=orthogonalEdgeStyle;rounded=0;orthogonalLoop=1;jettySize=auto;html=1;" edge="1" parent="1" source="NXJt-m0JsOO_-4kB2BMB-49" target="NXJt-m0JsOO_-4kB2BMB-22">
          <mxGeometry relative="1" as="geometry" />
        </mxCell>
        <mxCell id="G-SFm_TVFVV3ppfT51CN-5" style="edgeStyle=orthogonalEdgeStyle;rounded=1;orthogonalLoop=1;jettySize=auto;html=1;curved=0;" edge="1" parent="1" source="NXJt-m0JsOO_-4kB2BMB-49" target="G-SFm_TVFVV3ppfT51CN-4">
          <mxGeometry relative="1" as="geometry" />
        </mxCell>
        <mxCell id="d4_QVtWtd0wObWvXCjmu-1" style="edgeStyle=orthogonalEdgeStyle;rounded=1;orthogonalLoop=1;jettySize=auto;html=1;curved=0;" edge="1" parent="1" source="NXJt-m0JsOO_-4kB2BMB-49" target="NXJt-m0JsOO_-4kB2BMB-38">
          <mxGeometry relative="1" as="geometry">
            <Array as="points">
              <mxPoint x="920" y="645" />
            </Array>
          </mxGeometry>
        </mxCell>
        <mxCell id="d4_QVtWtd0wObWvXCjmu-3" style="edgeStyle=orthogonalEdgeStyle;rounded=1;orthogonalLoop=1;jettySize=auto;html=1;curved=0;" edge="1" parent="1" source="NXJt-m0JsOO_-4kB2BMB-49" target="d4_QVtWtd0wObWvXCjmu-2">
          <mxGeometry relative="1" as="geometry" />
        </mxCell>
        <mxCell id="NXJt-m0JsOO_-4kB2BMB-49" value="Offer Creator" style="html=1;outlineConnect=0;whiteSpace=wrap;fillColor=#99ffff;shape=mxgraph.archimate3.application;appType=comp;archiType=square;verticalAlign=top;rounded=1" vertex="1" parent="1">
          <mxGeometry x="605.34" y="558.75" width="150" height="172.49" as="geometry" />
        </mxCell>
        <mxCell id="G-SFm_TVFVV3ppfT51CN-3" value="Offers" style="html=1;outlineConnect=0;whiteSpace=wrap;fillColor=#99ffff;shape=mxgraph.archimate3.businessObject;overflow=fill;" vertex="1" parent="1">
          <mxGeometry x="645.33" y="680" width="70" height="38.5" as="geometry" />
        </mxCell>
        <mxCell id="G-SFm_TVFVV3ppfT51CN-4" value="PERSON" style="shape=image;html=1;verticalAlign=top;verticalLabelPosition=bottom;labelBackgroundColor=none;imageAspect=0;aspect=fixed;image=https://cdn2.iconfinder.com/data/icons/font-awesome/1792/table-128.png;fontSize=11;fontFamily=Poppins;fontSource=https%3A%2F%2Ffonts.googleapis.com%2Fcss%3Ffamily%3DPoppins;spacingTop=-5;" vertex="1" parent="1">
          <mxGeometry x="810" y="579.84" width="50" height="50" as="geometry" />
        </mxCell>
        <mxCell id="d4_QVtWtd0wObWvXCjmu-2" value="OPEN_POLICY" style="shape=image;html=1;verticalAlign=top;verticalLabelPosition=bottom;labelBackgroundColor=none;imageAspect=0;aspect=fixed;image=https://cdn2.iconfinder.com/data/icons/font-awesome/1792/table-128.png;fontSize=11;fontFamily=Poppins;fontSource=https%3A%2F%2Ffonts.googleapis.com%2Fcss%3Ffamily%3DPoppins;spacingTop=-5;" vertex="1" parent="1">
          <mxGeometry x="810" y="660" width="50" height="50" as="geometry" />
        </mxCell>
      </root>
    </mxGraphModel>
  </diagram>
</mxfile>
